<svg xmlns="http://www.w3.org/2000/svg" viewBox="0 0 624.57 422.81"><title>autoCade</title><g id="Background_Complete" data-name="Background Complete"><path d="M674,299.21c0-.18.87-.33,1.93-.33s1.93.15,1.93.33-.86.34-1.93.34S674,299.4,674,299.21Z" transform="translate(-61.64 -7.06)" style="fill:#e0e0e0"/><path d="M666.3,299.21c0-.18.86-.33,1.92-.33s1.93.15,1.93.33-.86.34-1.93.34S666.3,299.4,666.3,299.21Z" transform="translate(-61.64 -7.06)" style="fill:#e0e0e0"/><path d="M658.59,299.21c0-.18.86-.33,1.93-.33s1.92.15,1.92.33-.86.34-1.92.34S658.59,299.4,658.59,299.21Z" transform="translate(-61.64 -7.06)" style="fill:#e0e0e0"/><path d="M650.88,299.21c0-.18.86-.33,1.93-.33s1.93.15,1.93.33-.87.34-1.93.34S650.88,299.4,650.88,299.21Z" transform="translate(-61.64 -7.06)" style="fill:#e0e0e0"/><path d="M643.17,299.21c0-.18.87-.33,1.93-.33s1.93.15,1.93.33-.86.34-1.93.34S643.17,299.4,643.17,299.21Z" transform="translate(-61.64 -7.06)" style="fill:#e0e0e0"/><path d="M635.47,299.21c0-.18.86-.33,1.92-.33s1.93.15,1.93.33-.86.34-1.93.34S635.47,299.4,635.47,299.21Z" transform="translate(-61.64 -7.06)" style="fill:#e0e0e0"/><path d="M627.76,299.21c0-.18.86-.33,1.93-.33s1.92.15,1.92.33-.86.34-1.92.34S627.76,299.4,627.76,299.21Z" transform="translate(-61.64 -7.06)" style="fill:#e0e0e0"/><path d="M620.05,299.21c0-.18.87-.33,1.93-.33s1.93.15,1.93.33-.87.34-1.93.34S620.05,299.4,620.05,299.21Z" transform="translate(-61.64 -7.06)" style="fill:#e0e0e0"/><path d="M612.35,299.21c0-.18.86-.33,1.92-.33s1.93.15,1.93.33-.86.34-1.93.34S612.35,299.4,612.35,299.21Z" transform="translate(-61.64 -7.06)" style="fill:#e0e0e0"/><path d="M604.64,299.21c0-.18.86-.33,1.92-.33s1.93.15,1.93.33-.86.34-1.93.34S604.64,299.4,604.64,299.21Z" transform="translate(-61.64 -7.06)" style="fill:#e0e0e0"/><path d="M596.93,299.21c0-.18.86-.33,1.93-.33s1.92.15,1.92.33-.86.34-1.92.34S596.93,299.4,596.93,299.21Z" transform="translate(-61.64 -7.06)" style="fill:#e0e0e0"/><path d="M589.22,299.21c0-.18.87-.33,1.93-.33s1.93.15,1.93.33-.87.34-1.93.34S589.22,299.4,589.22,299.21Z" transform="translate(-61.64 -7.06)" style="fill:#e0e0e0"/><path d="M583.73,297c.19,0,.34.86.34,1.92a2.81,2.81,0,0,0,0,.29l-.33-.33c.93,0,1.64.16,1.64.33s-.71.31-1.64.33h-.33v-.63C583.4,297.86,583.55,297,583.73,297Z" transform="translate(-61.64 -7.06)" style="fill:#e0e0e0"/><path d="M583.73,289.29c.19,0,.34.86.34,1.93s-.15,1.92-.34,1.92-.33-.86-.33-1.92S583.55,289.29,583.73,289.29Z" transform="translate(-61.64 -7.06)" style="fill:#e0e0e0"/><path d="M583.73,281.58c.19,0,.34.86.34,1.93s-.15,1.93-.34,1.93-.33-.87-.33-1.93S583.55,281.58,583.73,281.58Z" transform="translate(-61.64 -7.06)" style="fill:#e0e0e0"/><path d="M583.73,273.87c.19,0,.34.87.34,1.93s-.15,1.93-.34,1.93-.33-.86-.33-1.93S583.55,273.87,583.73,273.87Z" transform="translate(-61.64 -7.06)" style="fill:#e0e0e0"/><path d="M583.73,266.17c.19,0,.34.86.34,1.92s-.15,1.93-.34,1.93-.33-.86-.33-1.93S583.55,266.17,583.73,266.17Z" transform="translate(-61.64 -7.06)" style="fill:#e0e0e0"/><path d="M583.73,258.46c.19,0,.34.86.34,1.93s-.15,1.92-.34,1.92-.33-.86-.33-1.92S583.55,258.46,583.73,258.46Z" transform="translate(-61.64 -7.06)" style="fill:#e0e0e0"/><path d="M583.73,250.75c.19,0,.34.86.34,1.93s-.15,1.93-.34,1.93-.33-.87-.33-1.93S583.55,250.75,583.73,250.75Z" transform="translate(-61.64 -7.06)" style="fill:#e0e0e0"/><path d="M583.73,243c.19,0,.34.87.34,1.93s-.15,1.93-.34,1.93-.33-.86-.33-1.93S583.55,243,583.73,243Z" transform="translate(-61.64 -7.06)" style="fill:#e0e0e0"/><path d="M583.73,235.34c.19,0,.34.86.34,1.92s-.15,1.93-.34,1.93-.33-.86-.33-1.93S583.55,235.34,583.73,235.34Z" transform="translate(-61.64 -7.06)" style="fill:#e0e0e0"/><path d="M583.73,227.63c.19,0,.34.86.34,1.93s-.15,1.92-.34,1.92-.33-.86-.33-1.92S583.55,227.63,583.73,227.63Z" transform="translate(-61.64 -7.06)" style="fill:#e0e0e0"/><path d="M583.73,219.92c.19,0,.34.87.34,1.93s-.15,1.93-.34,1.93-.33-.87-.33-1.93S583.55,219.92,583.73,219.92Z" transform="translate(-61.64 -7.06)" style="fill:#e0e0e0"/><path d="M583.73,212.21c.19,0,.34.87.34,1.93s-.15,1.93-.34,1.93-.33-.86-.33-1.93S583.55,212.21,583.73,212.21Z" transform="translate(-61.64 -7.06)" style="fill:#e0e0e0"/><path d="M584.31,205.08c0,.1-.22.18-.58.24l.24-.24a8.38,8.38,0,0,1,.1,1.35c0,1.07-.15,1.93-.34,1.93s-.33-.86-.33-1.93a8.51,8.51,0,0,1,.09-1.35l0-.27.19,0C584.09,204.91,584.31,205,584.31,205.08Z" transform="translate(-61.64 -7.06)" style="fill:#e0e0e0"/><path d="M592,205.08c0,.19-.87.34-1.93.34s-1.93-.15-1.93-.34.86-.33,1.93-.33S592,204.9,592,205.08Z" transform="translate(-61.64 -7.06)" style="fill:#e0e0e0"/><path d="M599.72,205.08c0,.19-.86.34-1.92.34s-1.93-.15-1.93-.34.86-.33,1.93-.33S599.72,204.9,599.72,205.08Z" transform="translate(-61.64 -7.06)" style="fill:#e0e0e0"/><path d="M607.43,205.08c0,.19-.86.34-1.93.34s-1.92-.15-1.92-.34.86-.33,1.92-.33S607.43,204.9,607.43,205.08Z" transform="translate(-61.64 -7.06)" style="fill:#e0e0e0"/><path d="M615.14,205.08c0,.19-.87.34-1.93.34s-1.93-.15-1.93-.34.87-.33,1.93-.33S615.14,204.9,615.14,205.08Z" transform="translate(-61.64 -7.06)" style="fill:#e0e0e0"/><path d="M622.85,205.08c0,.19-.87.34-1.93.34s-1.93-.15-1.93-.34.86-.33,1.93-.33S622.85,204.9,622.85,205.08Z" transform="translate(-61.64 -7.06)" style="fill:#e0e0e0"/><ellipse cx="566.99" cy="198.02" rx="1.93" ry="0.33" style="fill:#e0e0e0"/><path d="M638.26,205.08c0,.19-.86.34-1.93.34s-1.92-.15-1.92-.34.86-.33,1.92-.33S638.26,204.9,638.26,205.08Z" transform="translate(-61.64 -7.06)" style="fill:#e0e0e0"/><path d="M646,205.08c0,.19-.87.34-1.93.34s-1.93-.15-1.93-.34.87-.33,1.93-.33S646,204.9,646,205.08Z" transform="translate(-61.64 -7.06)" style="fill:#e0e0e0"/><path d="M653.68,205.08c0,.19-.87.34-1.93.34s-1.93-.15-1.93-.34.86-.33,1.93-.33S653.68,204.9,653.68,205.08Z" transform="translate(-61.64 -7.06)" style="fill:#e0e0e0"/><path d="M661.38,205.08c0,.19-.86.34-1.92.34s-1.93-.15-1.93-.34.86-.33,1.93-.33S661.38,204.9,661.38,205.08Z" transform="translate(-61.64 -7.06)" style="fill:#e0e0e0"/><path d="M669.09,205.08c0,.19-.86.34-1.93.34s-1.92-.15-1.92-.34.86-.33,1.92-.33S669.09,204.9,669.09,205.08Z" transform="translate(-61.64 -7.06)" style="fill:#e0e0e0"/><path d="M676.8,205.08c0,.19-.87.34-1.93.34s-1.93-.15-1.93-.34.87-.33,1.93-.33S676.8,204.9,676.8,205.08Z" transform="translate(-61.64 -7.06)" style="fill:#e0e0e0"/><path d="M677.86,211.73c-.19,0-.34-.86-.34-1.93s.15-1.92.34-1.92.33.86.33,1.92S678,211.73,677.86,211.73Z" transform="translate(-61.64 -7.06)" style="fill:#e0e0e0"/><path d="M677.86,219.44c-.19,0-.34-.86-.34-1.93s.15-1.93.34-1.93.33.87.33,1.93S678,219.44,677.86,219.44Z" transform="translate(-61.64 -7.06)" style="fill:#e0e0e0"/><path d="M677.86,227.15c-.19,0-.34-.87-.34-1.93s.15-1.93.34-1.93.33.86.33,1.93S678,227.15,677.86,227.15Z" transform="translate(-61.64 -7.06)" style="fill:#e0e0e0"/><path d="M677.86,234.85c-.19,0-.34-.86-.34-1.92s.15-1.93.34-1.93.33.86.33,1.93S678,234.85,677.86,234.85Z" transform="translate(-61.64 -7.06)" style="fill:#e0e0e0"/><path d="M677.86,242.56c-.19,0-.34-.86-.34-1.93s.15-1.92.34-1.92.33.86.33,1.92S678,242.56,677.86,242.56Z" transform="translate(-61.64 -7.06)" style="fill:#e0e0e0"/><path d="M677.86,250.27c-.19,0-.34-.86-.34-1.93s.15-1.93.34-1.93.33.87.33,1.93S678,250.27,677.86,250.27Z" transform="translate(-61.64 -7.06)" style="fill:#e0e0e0"/><path d="M677.86,258c-.19,0-.34-.87-.34-1.93s.15-1.93.34-1.93.33.86.33,1.93S678,258,677.86,258Z" transform="translate(-61.64 -7.06)" style="fill:#e0e0e0"/><path d="M677.86,265.68c-.19,0-.34-.86-.34-1.92s.15-1.93.34-1.93.33.86.33,1.93S678,265.68,677.86,265.68Z" transform="translate(-61.64 -7.06)" style="fill:#e0e0e0"/><path d="M677.86,273.39c-.19,0-.34-.86-.34-1.93s.15-1.92.34-1.92.33.86.33,1.92S678,273.39,677.86,273.39Z" transform="translate(-61.64 -7.06)" style="fill:#e0e0e0"/><path d="M677.86,281.1c-.19,0-.34-.86-.34-1.93s.15-1.93.34-1.93.33.87.33,1.93S678,281.1,677.86,281.1Z" transform="translate(-61.64 -7.06)" style="fill:#e0e0e0"/><path d="M677.86,288.81c-.19,0-.34-.87-.34-1.93s.15-1.93.34-1.93.33.86.33,1.93S678,288.81,677.86,288.81Z" transform="translate(-61.64 -7.06)" style="fill:#e0e0e0"/><path d="M677.86,296.51c-.19,0-.34-.86-.34-1.92s.15-1.93.34-1.93.33.86.33,1.93S678,296.51,677.86,296.51Z" transform="translate(-61.64 -7.06)" style="fill:#e0e0e0"/><rect x="612.74" y="287.71" width="6.97" height="6.97" style="fill:#e0e0e0"/><rect x="518.61" y="288.67" width="6.97" height="6.97" style="fill:#e0e0e0"/><rect x="612.74" y="193.86" width="6.97" height="6.97" style="fill:#e0e0e0"/><rect x="518.61" y="194.54" width="6.97" height="6.97" style="fill:#e0e0e0"/><rect x="223.28" y="27.44" width="135.14" height="90.49" style="fill:#fff"/><path d="M420.05,125s0-.56,0-1.64,0-2.69,0-4.78c0-4.18,0-10.33-.05-18.19,0-15.72-.06-38.32-.1-65.87l.19.19-135.13.05h0l.25-.24c0,32.23,0,62.89,0,90.48l-.23-.22,97.36.11,27.82.06,7.4,0h2.56l-.63,0h-1.88l-7.36,0-27.76.06-97.51.11h-.22V125c0-27.59,0-58.25,0-90.48v-.24h.25l135.13.05h.2v.19c0,27.6-.08,50.24-.1,66,0,7.84,0,14,0,18.15,0,2.07,0,3.66,0,4.74S420.05,125,420.05,125Z" transform="translate(-61.64 -7.06)" style="fill:#e0e0e0"/><path d="M284.91,42.57c0-.13,30.23-.24,67.51-.24s67.52.11,67.52.24-30.22.25-67.52.25S284.91,42.71,284.91,42.57Z" transform="translate(-61.64 -7.06)" style="fill:#e0e0e0"/><g style="opacity:0.30000000000000004"><path d="M290.24,38.5a1.08,1.08,0,1,1-1.08-1.08A1.08,1.08,0,0,1,290.24,38.5Z" transform="translate(-61.64 -7.06)" style="fill:#e0e0e0"/></g><g style="opacity:0.30000000000000004"><path d="M294,38.5a1.09,1.09,0,1,1-1.09-1.08A1.08,1.08,0,0,1,294,38.5Z" transform="translate(-61.64 -7.06)" style="fill:#e0e0e0"/></g><g style="opacity:0.30000000000000004"><path d="M297.61,38.5a1.08,1.08,0,1,1-1.08-1.08A1.08,1.08,0,0,1,297.61,38.5Z" transform="translate(-61.64 -7.06)" style="fill:#e0e0e0"/></g><rect x="234.9" y="44.95" width="36.05" height="36.05" style="fill:#e0e0e0"/><path d="M401.52,62.2c0,.13-14.06.24-31.4.24s-31.4-.11-31.4-.24,14.06-.24,31.4-.24S401.52,62.07,401.52,62.2Z" transform="translate(-61.64 -7.06)" style="fill:#e0e0e0"/><path d="M401.52,68.9c0,.13-14.06.24-31.4.24s-31.4-.11-31.4-.24,14.06-.24,31.4-.24S401.52,68.76,401.52,68.9Z" transform="translate(-61.64 -7.06)" style="fill:#e0e0e0"/><path d="M401.52,75.6c0,.13-14.06.24-31.4.24s-31.4-.11-31.4-.24,14.06-.24,31.4-.24S401.52,75.46,401.52,75.6Z" transform="translate(-61.64 -7.06)" style="fill:#e0e0e0"/><path d="M375.84,82.3a9.5,9.5,0,0,1-1.46.09l-4,.08c-3.36,0-8,.07-13.12.07s-9.77,0-13.12-.07l-4-.08a9.5,9.5,0,0,1-1.46-.09,7.42,7.42,0,0,1,1.46-.1l4-.07c3.35,0,8-.08,13.12-.08s9.76,0,13.12.08l4,.07A7.42,7.42,0,0,1,375.84,82.3Z" transform="translate(-61.64 -7.06)" style="fill:#e0e0e0"/><rect x="237.15" y="93.15" width="16.94" height="16.94" style="fill:#e0e0e0"/><rect x="267.88" y="93.15" width="16.94" height="16.94" style="fill:#e0e0e0"/><rect x="298.6" y="93.15" width="16.94" height="16.94" style="fill:#e0e0e0"/><rect x="329.32" y="93.15" width="16.94" height="16.94" style="fill:#e0e0e0"/><polygon points="13.54 30.87 116.22 30.87 116.22 179.75 14.23 179.75 13.54 30.87" style="fill:#e0e0e0"/><rect x="67.47" y="38.63" width="101.75" height="147.48" transform="translate(175.05 217.69) rotate(180)" style="fill:#fff"/><path d="M169.92,37.93V186.81H66.77V37.93Zm-1.4,147.48V39.33H68.17V185.41Z" transform="translate(-61.64 -7.06)" style="fill:#e0e0e0"/><rect x="18.47" y="47.55" width="76.47" height="115.53" style="fill:#fff"/><path d="M80.11,54.61s0,.19,0,.57,0,.93,0,1.64c0,1.46,0,3.59,0,6.34,0,5.55,0,13.62.09,23.81,0,20.38.1,49.22.16,83.17l-.33-.33,76.46,0h0l-.36.36c0-43.58,0-83.76.07-115.53l.29.29-55.63-.16-15.39-.07-4,0-1.4,0,1.34,0,4,0,15.32-.07,55.81-.15h.29v.29c0,31.77,0,72,.08,115.53v.36h-.37l-76.46,0h-.34v-.33c.07-34,.13-63,.17-83.39C80,76.59,80,68.55,80,63c0-2.73,0-4.83,0-6.28,0-.69,0-1.22,0-1.6S80.11,54.61,80.11,54.61Z" transform="translate(-61.64 -7.06)" style="fill:#e0e0e0"/><path d="M67.18,186.11a13,13,0,0,1,1.64-2.53c1.09-1.51,2.64-3.57,4.41-5.78s3.46-4.17,4.72-5.55a12.17,12.17,0,0,1,2.16-2.11c.15.14-2.77,3.68-6.31,8.11S67.35,186.24,67.18,186.11Z" transform="translate(-61.64 -7.06)" style="fill:#e0e0e0"/><path d="M67.47,38.63c.16-.12,3.11,3.35,6.6,7.76s6.2,8.09,6,8.22S77,51.26,73.5,46.85,67.31,38.76,67.47,38.63Z" transform="translate(-61.64 -7.06)" style="fill:#e0e0e0"/><path d="M169.23,38.75,155.9,55.19" transform="translate(-61.64 -7.06)" style="fill:#fff"/><path d="M155.9,55.19c-.15-.12,2.7-3.91,6.38-8.45s6.79-8.12,6.95-8-2.7,3.91-6.38,8.45S156.06,55.32,155.9,55.19Z" transform="translate(-61.64 -7.06)" style="fill:#e0e0e0"/><path d="M169.22,186.11c-.16.13-3.09-3.31-6.54-7.68s-6.13-8-6-8.13,3.09,3.32,6.54,7.68S169.37,186,169.22,186.11Z" transform="translate(-61.64 -7.06)" style="fill:#e0e0e0"/><path d="M123.27,114.06H109.82l-1.61,3.71a8.25,8.25,0,0,0-.78,3.06,2.55,2.55,0,0,0,1.29,2.36,10.93,10.93,0,0,0,3.74.67v1H99.79v-1a5.63,5.63,0,0,0,3.37-1.7,22.7,22.7,0,0,0,3.26-5.74L120,86h.53l13.74,31.24q2,4.44,3.23,5.59a4.41,4.41,0,0,0,2.7,1v1H121.81v-1h.76a5.81,5.81,0,0,0,3.12-.61,1.52,1.52,0,0,0,.62-1.3,3.58,3.58,0,0,0-.17-1c0-.17-.32-.87-.85-2.1Zm-1-2.08-5.68-13.12L110.8,112Z" transform="translate(-61.64 -7.06)" style="fill:#e0e0e0"/><path d="M461,65.7a2.54,2.54,0,0,1,1.18-.14h.39l-.13.13c0-.46.07-.79.13-.79s.11.33.13.79v.12h-.53A2.79,2.79,0,0,1,461,65.7Z" transform="translate(-61.64 -7.06)" style="fill:#e0e0e0"/><path d="M457.88,65.7c0-.08.36-.14.79-.14s.79.06.79.14-.35.13-.79.13S457.88,65.77,457.88,65.7Z" transform="translate(-61.64 -7.06)" style="fill:#e0e0e0"/><path d="M454.73,65.7c0-.08.35-.14.79-.14s.79.06.79.14-.36.13-.79.13S454.73,65.77,454.73,65.7Z" transform="translate(-61.64 -7.06)" style="fill:#e0e0e0"/><path d="M451.58,65.7c0-.08.35-.14.79-.14s.79.06.79.14-.36.13-.79.13S451.58,65.77,451.58,65.7Z" transform="translate(-61.64 -7.06)" style="fill:#e0e0e0"/><path d="M448.43,65.7c0-.08.35-.14.78-.14s.79.06.79.14-.35.13-.79.13S448.43,65.77,448.43,65.7Z" transform="translate(-61.64 -7.06)" style="fill:#e0e0e0"/><path d="M445.27,65.7c0-.08.36-.14.79-.14s.79.06.79.14-.35.13-.79.13S445.27,65.77,445.27,65.7Z" transform="translate(-61.64 -7.06)" style="fill:#e0e0e0"/><path d="M442.12,65.7c0-.08.35-.14.79-.14s.79.06.79.14-.35.13-.79.13S442.12,65.77,442.12,65.7Z" transform="translate(-61.64 -7.06)" style="fill:#e0e0e0"/><path d="M439,65.7c0-.08.35-.14.79-.14s.79.06.79.14-.36.13-.79.13S439,65.77,439,65.7Z" transform="translate(-61.64 -7.06)" style="fill:#e0e0e0"/><path d="M435.82,65.7c0-.08.35-.14.79-.14s.78.06.78.14-.35.13-.78.13S435.82,65.77,435.82,65.7Z" transform="translate(-61.64 -7.06)" style="fill:#e0e0e0"/><path d="M432.66,65.7c0-.08.36-.14.79-.14s.79.06.79.14-.35.13-.79.13S432.66,65.77,432.66,65.7Z" transform="translate(-61.64 -7.06)" style="fill:#e0e0e0"/><path d="M429.51,65.7c0-.08.36-.14.79-.14s.79.06.79.14-.35.13-.79.13S429.51,65.77,429.51,65.7Z" transform="translate(-61.64 -7.06)" style="fill:#e0e0e0"/><path d="M426.36,65.7c0-.08.35-.14.79-.14s.79.06.79.14-.36.13-.79.13S426.36,65.77,426.36,65.7Z" transform="translate(-61.64 -7.06)" style="fill:#e0e0e0"/><path d="M423.21,65.7c0-.08.35-.14.79-.14s.78.06.78.14-.35.13-.78.13S423.21,65.77,423.21,65.7Z" transform="translate(-61.64 -7.06)" style="fill:#e0e0e0"/><path d="M420.06,65.7c0-.08.35-.14.78-.14s.79.06.79.14-.35.13-.79.13S420.06,65.77,420.06,65.7Z" transform="translate(-61.64 -7.06)" style="fill:#e0e0e0"/><path d="M416.9,65.7c0-.08.36-.14.79-.14s.79.06.79.14-.35.13-.79.13S416.9,65.77,416.9,65.7Z" transform="translate(-61.64 -7.06)" style="fill:#e0e0e0"/><path d="M413.75,65.7c0-.08.35-.14.79-.14s.79.06.79.14-.36.13-.79.13S413.75,65.77,413.75,65.7Z" transform="translate(-61.64 -7.06)" style="fill:#e0e0e0"/><path d="M410.6,65.7c0-.08.35-.14.79-.14s.78.06.78.14-.35.13-.78.13S410.6,65.77,410.6,65.7Z" transform="translate(-61.64 -7.06)" style="fill:#e0e0e0"/><path d="M407.45,65.7c0-.08.35-.14.78-.14s.79.06.79.14-.35.13-.79.13S407.45,65.77,407.45,65.7Z" transform="translate(-61.64 -7.06)" style="fill:#e0e0e0"/><path d="M406.46,63.53c.08,0,.14.35.14.78s-.06.79-.14.79-.14-.35-.14-.79S406.39,63.53,406.46,63.53Z" transform="translate(-61.64 -7.06)" style="fill:#e0e0e0"/><path d="M406.46,60.37c.08,0,.14.36.14.79s-.06.79-.14.79-.14-.35-.14-.79S406.39,60.37,406.46,60.37Z" transform="translate(-61.64 -7.06)" style="fill:#e0e0e0"/><path d="M406.46,57.22c.08,0,.14.35.14.79s-.06.79-.14.79-.14-.35-.14-.79S406.39,57.22,406.46,57.22Z" transform="translate(-61.64 -7.06)" style="fill:#e0e0e0"/><path d="M406.46,54.07c.08,0,.14.35.14.79s-.06.79-.14.79-.14-.36-.14-.79S406.39,54.07,406.46,54.07Z" transform="translate(-61.64 -7.06)" style="fill:#e0e0e0"/><path d="M406.46,50.92c.08,0,.14.35.14.79s-.06.78-.14.78-.14-.35-.14-.78S406.39,50.92,406.46,50.92Z" transform="translate(-61.64 -7.06)" style="fill:#e0e0e0"/><path d="M406.46,47.76c.08,0,.14.36.14.79s-.06.79-.14.79-.14-.35-.14-.79S406.39,47.76,406.46,47.76Z" transform="translate(-61.64 -7.06)" style="fill:#e0e0e0"/><path d="M406.46,44.61c.08,0,.14.36.14.79s-.06.79-.14.79-.14-.35-.14-.79S406.39,44.61,406.46,44.61Z" transform="translate(-61.64 -7.06)" style="fill:#e0e0e0"/><path d="M406.46,41.46c.08,0,.14.35.14.79s-.06.79-.14.79-.14-.36-.14-.79S406.39,41.46,406.46,41.46Z" transform="translate(-61.64 -7.06)" style="fill:#e0e0e0"/><path d="M406.46,38.31c.08,0,.14.35.14.79s-.06.78-.14.78-.14-.35-.14-.78S406.39,38.31,406.46,38.31Z" transform="translate(-61.64 -7.06)" style="fill:#e0e0e0"/><path d="M406.46,35.16c.08,0,.14.35.14.78s-.06.79-.14.79-.14-.35-.14-.79S406.39,35.16,406.46,35.16Z" transform="translate(-61.64 -7.06)" style="fill:#e0e0e0"/><path d="M406.46,32c.08,0,.14.36.14.79s-.06.79-.14.79-.14-.35-.14-.79S406.39,32,406.46,32Z" transform="translate(-61.64 -7.06)" style="fill:#e0e0e0"/><path d="M406.46,28.85c.08,0,.14.35.14.79s-.06.79-.14.79-.14-.36-.14-.79S406.39,28.85,406.46,28.85Z" transform="translate(-61.64 -7.06)" style="fill:#e0e0e0"/><path d="M406.46,25.7c.08,0,.14.35.14.79s-.06.78-.14.78-.14-.35-.14-.78S406.39,25.7,406.46,25.7Z" transform="translate(-61.64 -7.06)" style="fill:#e0e0e0"/><path d="M406.46,22.55c.08,0,.14.35.14.78s-.06.79-.14.79-.14-.35-.14-.79S406.39,22.55,406.46,22.55Z" transform="translate(-61.64 -7.06)" style="fill:#e0e0e0"/><path d="M406.46,19.39c.08,0,.14.36.14.79s-.06.79-.14.79-.14-.35-.14-.79S406.39,19.39,406.46,19.39Z" transform="translate(-61.64 -7.06)" style="fill:#e0e0e0"/><path d="M406.46,16.24c.08,0,.14.35.14.79s-.06.79-.14.79-.14-.36-.14-.79S406.39,16.24,406.46,16.24Z" transform="translate(-61.64 -7.06)" style="fill:#e0e0e0"/><path d="M406.46,13.09c.08,0,.14.35.14.79s-.06.78-.14.78-.14-.35-.14-.78S406.39,13.09,406.46,13.09Z" transform="translate(-61.64 -7.06)" style="fill:#e0e0e0"/><path d="M406.46,9.94c.08,0,.14.35.14.78s-.06.79-.14.79-.14-.35-.14-.79S406.39,9.94,406.46,9.94Z" transform="translate(-61.64 -7.06)" style="fill:#e0e0e0"/><path d="M409.22,9.54c0,.08-.35.14-.79.14s-.78-.06-.78-.14.35-.13.78-.13S409.22,9.47,409.22,9.54Z" transform="translate(-61.64 -7.06)" style="fill:#e0e0e0"/><path d="M412.38,9.54c0,.08-.36.14-.79.14s-.79-.06-.79-.14.35-.13.79-.13S412.38,9.47,412.38,9.54Z" transform="translate(-61.64 -7.06)" style="fill:#e0e0e0"/><path d="M415.53,9.54c0,.08-.36.14-.79.14s-.79-.06-.79-.14.35-.13.79-.13S415.53,9.47,415.53,9.54Z" transform="translate(-61.64 -7.06)" style="fill:#e0e0e0"/><path d="M418.68,9.54c0,.08-.35.14-.79.14s-.79-.06-.79-.14.36-.13.79-.13S418.68,9.47,418.68,9.54Z" transform="translate(-61.64 -7.06)" style="fill:#e0e0e0"/><path d="M421.83,9.54c0,.08-.35.14-.79.14s-.78-.06-.78-.14.35-.13.78-.13S421.83,9.47,421.83,9.54Z" transform="translate(-61.64 -7.06)" style="fill:#e0e0e0"/><path d="M425,9.54c0,.08-.35.14-.78.14s-.79-.06-.79-.14.35-.13.79-.13S425,9.47,425,9.54Z" transform="translate(-61.64 -7.06)" style="fill:#e0e0e0"/><path d="M428.14,9.54c0,.08-.36.14-.79.14s-.79-.06-.79-.14.35-.13.79-.13S428.14,9.47,428.14,9.54Z" transform="translate(-61.64 -7.06)" style="fill:#e0e0e0"/><path d="M431.29,9.54c0,.08-.35.14-.79.14s-.79-.06-.79-.14.36-.13.79-.13S431.29,9.47,431.29,9.54Z" transform="translate(-61.64 -7.06)" style="fill:#e0e0e0"/><path d="M434.44,9.54c0,.08-.35.14-.79.14s-.78-.06-.78-.14.35-.13.78-.13S434.44,9.47,434.44,9.54Z" transform="translate(-61.64 -7.06)" style="fill:#e0e0e0"/><path d="M437.59,9.54c0,.08-.35.14-.78.14s-.79-.06-.79-.14.35-.13.79-.13S437.59,9.47,437.59,9.54Z" transform="translate(-61.64 -7.06)" style="fill:#e0e0e0"/><path d="M440.75,9.54c0,.08-.36.14-.79.14s-.79-.06-.79-.14.35-.13.79-.13S440.75,9.47,440.75,9.54Z" transform="translate(-61.64 -7.06)" style="fill:#e0e0e0"/><path d="M443.9,9.54c0,.08-.35.14-.79.14s-.79-.06-.79-.14.36-.13.79-.13S443.9,9.47,443.9,9.54Z" transform="translate(-61.64 -7.06)" style="fill:#e0e0e0"/><path d="M447.05,9.54c0,.08-.35.14-.79.14s-.78-.06-.78-.14.35-.13.78-.13S447.05,9.47,447.05,9.54Z" transform="translate(-61.64 -7.06)" style="fill:#e0e0e0"/><path d="M450.2,9.54c0,.08-.35.14-.78.14s-.79-.06-.79-.14.35-.13.79-.13S450.2,9.47,450.2,9.54Z" transform="translate(-61.64 -7.06)" style="fill:#e0e0e0"/><path d="M453.36,9.54c0,.08-.36.14-.79.14s-.79-.06-.79-.14.35-.13.79-.13S453.36,9.47,453.36,9.54Z" transform="translate(-61.64 -7.06)" style="fill:#e0e0e0"/><path d="M456.51,9.54c0,.08-.35.14-.79.14s-.79-.06-.79-.14.36-.13.79-.13S456.51,9.47,456.51,9.54Z" transform="translate(-61.64 -7.06)" style="fill:#e0e0e0"/><path d="M459.66,9.54c0,.08-.35.14-.79.14s-.78-.06-.78-.14.35-.13.78-.13S459.66,9.47,459.66,9.54Z" transform="translate(-61.64 -7.06)" style="fill:#e0e0e0"/><path d="M462.61,9.75s-.06-.08-.09-.21l.09.1a4.26,4.26,0,0,1-.58,0c-.44,0-.79-.06-.79-.14s.35-.13.79-.13a4.26,4.26,0,0,1,.58,0l.11,0,0,.07C462.68,9.67,462.65,9.75,462.61,9.75Z" transform="translate(-61.64 -7.06)" style="fill:#e0e0e0"/><path d="M462.61,12.9c-.07,0-.13-.35-.13-.79s.06-.79.13-.79.14.35.14.79S462.69,12.9,462.61,12.9Z" transform="translate(-61.64 -7.06)" style="fill:#e0e0e0"/><path d="M462.61,16.05c-.07,0-.13-.35-.13-.79s.06-.79.13-.79.14.36.14.79S462.69,16.05,462.61,16.05Z" transform="translate(-61.64 -7.06)" style="fill:#e0e0e0"/><path d="M462.61,19.2c-.07,0-.13-.35-.13-.79s.06-.78.13-.78.14.35.14.78S462.69,19.2,462.61,19.2Z" transform="translate(-61.64 -7.06)" style="fill:#e0e0e0"/><path d="M462.61,22.36c-.07,0-.13-.36-.13-.79s.06-.79.13-.79.14.35.14.79S462.69,22.36,462.61,22.36Z" transform="translate(-61.64 -7.06)" style="fill:#e0e0e0"/><path d="M462.61,25.51c-.07,0-.13-.36-.13-.79s.06-.79.13-.79.14.35.14.79S462.69,25.51,462.61,25.51Z" transform="translate(-61.64 -7.06)" style="fill:#e0e0e0"/><path d="M462.61,28.66c-.07,0-.13-.35-.13-.79s.06-.79.13-.79.14.36.14.79S462.69,28.66,462.61,28.66Z" transform="translate(-61.64 -7.06)" style="fill:#e0e0e0"/><path d="M462.61,31.81c-.07,0-.13-.35-.13-.79s.06-.78.13-.78.14.35.14.78S462.69,31.81,462.61,31.81Z" transform="translate(-61.64 -7.06)" style="fill:#e0e0e0"/><path d="M462.61,35c-.07,0-.13-.35-.13-.78s.06-.79.13-.79.14.35.14.79S462.69,35,462.61,35Z" transform="translate(-61.64 -7.06)" style="fill:#e0e0e0"/><path d="M462.61,38.12c-.07,0-.13-.36-.13-.79s.06-.79.13-.79.14.35.14.79S462.69,38.12,462.61,38.12Z" transform="translate(-61.64 -7.06)" style="fill:#e0e0e0"/><path d="M462.61,41.27c-.07,0-.13-.35-.13-.79s.06-.79.13-.79.14.36.14.79S462.69,41.27,462.61,41.27Z" transform="translate(-61.64 -7.06)" style="fill:#e0e0e0"/><path d="M462.61,44.42c-.07,0-.13-.35-.13-.79s.06-.78.13-.78.14.35.14.78S462.69,44.42,462.61,44.42Z" transform="translate(-61.64 -7.06)" style="fill:#e0e0e0"/><path d="M462.61,47.57c-.07,0-.13-.35-.13-.78s.06-.79.13-.79.14.35.14.79S462.69,47.57,462.61,47.57Z" transform="translate(-61.64 -7.06)" style="fill:#e0e0e0"/><path d="M462.61,50.73c-.07,0-.13-.36-.13-.79s.06-.79.13-.79.14.35.14.79S462.69,50.73,462.61,50.73Z" transform="translate(-61.64 -7.06)" style="fill:#e0e0e0"/><path d="M462.61,53.88c-.07,0-.13-.35-.13-.79s.06-.79.13-.79.14.36.14.79S462.69,53.88,462.61,53.88Z" transform="translate(-61.64 -7.06)" style="fill:#e0e0e0"/><path d="M462.61,57c-.07,0-.13-.35-.13-.79s.06-.78.13-.78.14.35.14.78S462.69,57,462.61,57Z" transform="translate(-61.64 -7.06)" style="fill:#e0e0e0"/><path d="M462.61,60.18c-.07,0-.13-.35-.13-.78s.06-.79.13-.79.14.35.14.79S462.69,60.18,462.61,60.18Z" transform="translate(-61.64 -7.06)" style="fill:#e0e0e0"/><path d="M462.61,63.34c-.07,0-.13-.36-.13-.79s.06-.79.13-.79.14.35.14.79S462.69,63.34,462.61,63.34Z" transform="translate(-61.64 -7.06)" style="fill:#e0e0e0"/><rect x="398.9" y="55.99" width="4.16" height="4.16" style="fill:#e0e0e0"/><rect x="342.75" y="56.56" width="4.16" height="4.16" style="fill:#e0e0e0"/><rect x="398.9" width="4.16" height="4.16" style="fill:#e0e0e0"/><rect x="342.75" y="0.4" width="4.16" height="4.16" style="fill:#e0e0e0"/><path d="M662.13,64.74h-3.36l-7.34-10.23V47.8s-5.2-.32-4.59,8.47-.05,6.55-.05,6.55-11,0-11.95,1c-.67.7-1,11.66-1.08,17.61a6.44,6.44,0,0,0,4.56,6.48,4.8,4.8,0,0,0,1.19.16c2.75,0,16.81-2.24,16.81-2.24h5.81Z" transform="translate(-61.64 -7.06)" style="fill:#ebebeb"/><polygon points="610.12 55.84 608.05 78.84 602.3 78.84 602.3 56.3 610.12 55.84" style="fill:#ebebeb"/></g><g id="Floor"><path d="M681.26,429.61c0,.14-137.13.26-306.25.26s-306.27-.12-306.27-.26,137.1-.26,306.27-.26S681.26,429.47,681.26,429.61Z" transform="translate(-61.64 -7.06)" style="fill:#263238"/></g><g id="Character_3" data-name="Character 3"><path d="M553.32,312.43c1-.21,9.16,37.16,8.09,51.7s-8.09,65.05-8.09,65.05H519.68l-6.07-71.49,1.15,71.49H469.55s-10.47-49.14-8.6-64,11.81-54,11.81-54Z" transform="translate(-61.64 -7.06)" style="fill:#263238"/><path d="M517,321a7.78,7.78,0,0,1,.07,1.4c0,.9,0,2.2,0,3.81-.07,3.21-.28,7.65-.69,12.54s-1,9.3-1.43,12.49c-.23,1.59-.44,2.87-.6,3.76a7.67,7.67,0,0,1-.3,1.36,6.57,6.57,0,0,1,.1-1.39c.11-1,.26-2.26.44-3.78.37-3.19.86-7.6,1.27-12.48s.68-9.31.84-12.52c.09-1.53.15-2.8.21-3.8A6.91,6.91,0,0,1,517,321Z" transform="translate(-61.64 -7.06)" style="fill:#455a64"/><path d="M523.07,324.06a1.39,1.39,0,0,1,.75,0,3.06,3.06,0,0,1,1.75,1.05,3.35,3.35,0,0,1,.66,1.29,2.87,2.87,0,0,1-.12,1.68,3.3,3.3,0,0,1-3,2.11,3.27,3.27,0,0,1-2.93-2.23,2.81,2.81,0,0,1,.68-2.94,2.75,2.75,0,0,1,1.85-.86,1.21,1.21,0,0,1,.73.15c0,.05-.27,0-.71.05a2.77,2.77,0,0,0-1.6.91,2.46,2.46,0,0,0-.5,2.53,2.66,2.66,0,0,0,5,.1,2.57,2.57,0,0,0-.38-2.56,3.1,3.1,0,0,0-1.51-1.08C523.34,324.11,523.07,324.11,523.07,324.06Z" transform="translate(-61.64 -7.06)" style="fill:#455a64"/><path d="M558.33,330.33a2.82,2.82,0,0,1-.88.34,13.68,13.68,0,0,1-2.53.46,15.84,15.84,0,0,1-14.69-7,12.82,12.82,0,0,1-1.24-2.25,2.83,2.83,0,0,1-.3-.89c.09,0,.58,1.21,1.84,2.93a16.56,16.56,0,0,0,14.36,6.81C557,330.65,558.31,330.24,558.33,330.33Z" transform="translate(-61.64 -7.06)" style="fill:#455a64"/><path d="M481.41,151.14c-2.55,9.28-6.41,16.72-10.17,20.45s-7.79,8.11-7.65,13.4c.05,2.08.74,4.29-.17,6.16-1.18,2.44-4.32,3-6.68,4.29a11.19,11.19,0,0,0-5.29,10.1,16.22,16.22,0,0,0,5,10.61c2.93,2.95,7.57,5,11.21,3,2.19-1.21,3.44-3.59,4.55-5.84q8.6-17.49,15.56-35.72" transform="translate(-61.64 -7.06)" style="fill:#263238"/><path d="M504.87,111.4a23.92,23.92,0,0,1,41.68,16.25c-.07,6.22-2.5,12.73,0,18.44,1.73,4,5.75,7.09,6.3,11.45.65,5.06-3.68,9.65-3.46,14.75.15,3.32,2.24,6.26,4.64,8.57s5.19,4.21,7.39,6.71c6.11,7,6.5,17.92,1.88,25.94s-13.55,13.05-22.74,14.14-18.56-1.45-26.69-5.86c-5.3-2.88-10.28-6.67-13.43-11.81s-4.23-11.8-1.74-17.3" transform="translate(-61.64 -7.06)" style="fill:#263238"/><path d="M524.42,188.86s20.74,6.12,22.76,9.41,8.54,41.81,8.54,41.81L543,285.45s10.53,17,11,25.53c-23.54,15.19-50.1,10.93-77.91-1.24l-2-44.37-2.64-70.87,17.12-6Z" transform="translate(-61.64 -7.06)" style="fill:#e0e0e0"/><path d="M547.48,294.6a4,4,0,0,1-.76,0l-2.18-.15-8-.63-26.39-2.31L483.75,289l-8-.81-2.17-.24a5.25,5.25,0,0,1-.75-.12,3.37,3.37,0,0,1,.76,0l2.18.15,8,.64,26.4,2.3,26.39,2.46,8,.8,2.17.25A3.89,3.89,0,0,1,547.48,294.6Z" transform="translate(-61.64 -7.06)" style="fill:#e8505b"/><path d="M523.14,244.61c0,.15-9.11.26-20.35.26s-20.35-.11-20.35-.26,9.11-.26,20.35-.26S523.14,244.47,523.14,244.61Z" transform="translate(-61.64 -7.06)" style="fill:#e8505b"/><path d="M550.53,214.17a10.07,10.07,0,0,1-1.61.15l-4.41.25c-3.73.21-8.87.52-14.54,1s-10.8.92-14.51,1.28l-4.4.42a10.19,10.19,0,0,1-1.62.1,9.52,9.52,0,0,1,1.6-.3c1-.15,2.53-.36,4.38-.58,3.7-.46,8.83-1,14.51-1.44s10.83-.68,14.56-.79c1.87-.06,3.38-.09,4.42-.09A9.37,9.37,0,0,1,550.53,214.17Z" transform="translate(-61.64 -7.06)" style="fill:#e8505b"/><path d="M547.18,198.27,568,254.74l14-27.83,18.26,3.75-10.51,43.85A18.58,18.58,0,0,1,575,290.14h0a18.57,18.57,0,0,1-17.49-5.68L551,277.29Z" transform="translate(-61.64 -7.06)" style="fill:#e0e0e0"/><path d="M567.57,290.41a6.64,6.64,0,0,1-.15-1.41c-.07-.92-.13-2.24-.19-3.87-.11-3.27-.16-7.8,0-12.79s.46-9.51.76-12.77c.15-1.63.29-2.95.41-3.85a9.11,9.11,0,0,1,.23-1.41,6.53,6.53,0,0,1,0,1.43c-.06,1-.14,2.3-.24,3.86-.21,3.26-.46,7.77-.61,12.75s-.16,9.5-.14,12.77c0,1.56,0,2.86,0,3.87A8.28,8.28,0,0,1,567.57,290.41Z" transform="translate(-61.64 -7.06)" style="fill:#e8505b"/><path d="M594.47,256c-.05.13-5.17-1.69-11.43-4.07s-11.3-4.41-11.25-4.55,5.17,1.69,11.43,4.07S594.52,255.82,594.47,256Z" transform="translate(-61.64 -7.06)" style="fill:#e8505b"/><polygon points="542.97 217.14 534.21 223.59 524.49 221.21 526.82 218.62 542.97 217.14" style="fill:#ffbe9d"/><polygon points="574.64 138.54 503.77 169.25 504.11 189.79 496.09 198.19 523.17 222.4 531.08 213.55 552.15 210.6 574.64 138.54" style="fill:#fafafa"/><path d="M636.28,145.61,614,217.73l0,.14-.15,0-21.07,3,.15-.08-7.9,8.85-.17.19-.19-.17L570.81,217.3l-13.25-11.85-.2-.18.18-.19,8-8.4-.07.18c-.11-7.11-.22-14-.33-20.54v-.16l.15-.07,71-30.48L565.5,176.53l.14-.22c.12,6.57.24,13.43.36,20.54v.1l-.07.08-8,8.4v-.37l13.26,11.85L585,229.26l-.37,0,7.92-8.85.06-.07h.09l21.08-2.94-.2.17C626.92,175.26,635.64,147.61,636.28,145.61Z" transform="translate(-61.64 -7.06)" style="fill:#263238"/><path d="M607.52,195.91a11.12,11.12,0,1,1-.88-15.7A11.11,11.11,0,0,1,607.52,195.91Z" transform="translate(-61.64 -7.06)" style="fill:#263238"/><path d="M636.28,145.61c.11.09-8.1,9.77-18.33,21.61s-18.61,21.38-18.72,21.28,8.1-9.77,18.33-21.62S636.17,145.51,636.28,145.61Z" transform="translate(-61.64 -7.06)" style="fill:#263238"/><path d="M418,390.5h0a17.72,17.72,0,0,1-1.47-24.95L549.74,214.76l26.42,23.62L443,389A17.72,17.72,0,0,1,418,390.5Z" transform="translate(-61.64 -7.06)" style="fill:#e8505b"/><rect x="560.75" y="200.53" width="14.48" height="41.68" transform="translate(-37.21 490.27) rotate(-48.21)" style="fill:#e8505b"/><rect x="631.77" y="142.13" width="7.72" height="7.72" transform="translate(180.58 -381.23) rotate(39.96)" style="fill:#e8505b"/><path d="M684.55,185.6c-.26.3-22.87-18.23-50.51-41.39S584.2,102,584.45,101.71,607.32,119.94,635,143.1,684.8,185.29,684.55,185.6Z" transform="translate(-61.64 -7.06)" style="fill:#e8505b"/><path d="M685.67,186.54a2.29,2.29,0,1,1-.28-3.22A2.28,2.28,0,0,1,685.67,186.54Z" transform="translate(-61.64 -7.06)" style="fill:#e8505b"/><path d="M586.2,103.18a2.29,2.29,0,1,1-.28-3.22A2.28,2.28,0,0,1,586.2,103.18Z" transform="translate(-61.64 -7.06)" style="fill:#e8505b"/><polygon points="488.1 207.7 514.53 231.32 510.96 235.36 486.83 209.14 488.1 207.7" style="opacity:0.30000000000000004"/><polygon points="504.16 202.63 504.16 221.53 508 225.49 508 206.06 504.16 202.63" style="fill:#fff;opacity:0.5"/><path d="M597.5,200.87l9.7,3.88,2.08,7.81-4.67,11.64-17.14,2.49,5-5.13-.65-4.47s-4.78-1.5-4.9-2.23.59-3.18,1.33-3.3,5.75,1.75,5.75,1.75-5.94-4.7-5.77-5.46.8-2.68,2-2.89,10.77,4.3,10.77,4.3l1.55,3.54,1.36-5.67S595.4,204.74,597.5,200.87Z" transform="translate(-61.64 -7.06)" style="fill:#ffbe9d"/><path d="M596.28,219.2c.06,0,.24-.34.33-1a5.25,5.25,0,0,0-1.66-4.49c-.48-.42-.85-.58-.88-.52a10.7,10.7,0,0,1,1.78,2.74A11,11,0,0,1,596.28,219.2Z" transform="translate(-61.64 -7.06)" style="fill:#eb996e"/><path d="M600.89,217.5a20.25,20.25,0,0,1-.38-2.54,11.15,11.15,0,0,0-.49-2.81,4.23,4.23,0,0,0-.89-1.5,4.42,4.42,0,0,0-1.59-1c-2.32-.84-4.41-1.52-5.94-2a14.59,14.59,0,0,0-2.5-.69,12.55,12.55,0,0,0,2.39,1c1.49.57,3.59,1.32,5.86,2.14a4.07,4.07,0,0,1,1.42.88,3.89,3.89,0,0,1,.82,1.32,11.86,11.86,0,0,1,.56,2.69A5.2,5.2,0,0,0,600.89,217.5Z" transform="translate(-61.64 -7.06)" style="fill:#eb996e"/><path d="M603.12,215.75a4,4,0,0,0-.07-1.91c-.17-1-.42-1.85-.55-1.83s-.11.88.06,1.91S603,215.77,603.12,215.75Z" transform="translate(-61.64 -7.06)" style="fill:#eb996e"/><path d="M530.35,285.05s15.55-5.34,15.92-5.52,11-5.11,10.08-8c0,0,3-2.39,2.09-3.74l-4.26,1.79s6-3.9,5-7.42c0,0,.63-1.19,0-1.92s-3.76,1.48-6.08,2.88L548.57,265a9.37,9.37,0,0,1-6.14.29h0a1.93,1.93,0,0,1-1.35-2.28,19.58,19.58,0,0,0-.32-10.49s-1.11.4-1.87,2.79c-1,3.08-4,5.44-5.18,7.47-.64,1.16-1.67,3-2.42,4.37a4.76,4.76,0,0,1-2.94,2.29l1.07,8.11Z" transform="translate(-61.64 -7.06)" style="fill:#ffbe9d"/><path d="M547.21,270.37a2,2,0,0,0,.54-.16c.34-.12.83-.32,1.42-.58a34.56,34.56,0,0,0,4.44-2.42,32.72,32.72,0,0,0,4-3.08c.48-.43.86-.8,1.11-1.06a2.7,2.7,0,0,0,.37-.42s-.17.11-.44.35l-1.16,1a41.65,41.65,0,0,1-4,3,41,41,0,0,1-4.38,2.47l-1.38.65A3.38,3.38,0,0,0,547.21,270.37Z" transform="translate(-61.64 -7.06)" style="fill:#eb996e"/><path d="M547.48,273.47a4.28,4.28,0,0,0,1.15-.38,20.34,20.34,0,0,0,2.59-1.31,24.3,24.3,0,0,0,2.39-1.65,5.75,5.75,0,0,0,.92-.78c0-.07-1.52,1-3.45,2.21-1,.58-1.86,1.05-2.53,1.37A7.35,7.35,0,0,0,547.48,273.47Z" transform="translate(-61.64 -7.06)" style="fill:#eb996e"/><path d="M547.35,277.19a7.4,7.4,0,0,0,1.46-.56,26.62,26.62,0,0,0,3.32-1.79,32.37,32.37,0,0,0,3.06-2.22,8.1,8.1,0,0,0,1.16-1.05,9.92,9.92,0,0,0-1.27.91c-.77.57-1.85,1.35-3.09,2.14s-2.4,1.41-3.26,1.85A12.09,12.09,0,0,0,547.35,277.19Z" transform="translate(-61.64 -7.06)" style="fill:#eb996e"/><path d="M530.35,285.05l-57.72,17.36A34.47,34.47,0,0,1,452.52,268c1.82-20.4,4.22-47.24,4.93-54,1.18-11.23,14.06-19.5,14.06-19.5,17.7,1.15,13.78,36.16,13.78,36.16l-7.13,40.27,50.19-2Z" transform="translate(-61.64 -7.06)" style="fill:#e0e0e0"/><path d="M478.16,270.93a10.22,10.22,0,0,1,.07-1.61c.07-1,.24-2.53.45-4.37.45-3.68,1.23-8.74,2.27-14.3s2.07-10.56,2.89-14.18c.4-1.8.75-3.26,1-4.27a8.1,8.1,0,0,1,.45-1.54,11.22,11.22,0,0,1-.25,1.59c-.22,1.1-.5,2.55-.84,4.3-.72,3.63-1.71,8.65-2.74,14.2S479.59,261.34,479,265c-.24,1.76-.45,3.22-.61,4.34A9.32,9.32,0,0,1,478.16,270.93Z" transform="translate(-61.64 -7.06)" style="fill:#263238"/><path d="M528.35,268.91a2.05,2.05,0,0,1-.54.09l-1.57.13c-1.37.1-3.34.23-5.78.35-4.88.25-11.63.49-19.08.7l-19.08.55-5.78.18L475,271a3.33,3.33,0,0,1-.55,0,2.05,2.05,0,0,1,.54-.09l1.57-.13c1.37-.1,3.34-.23,5.78-.35,4.88-.25,11.63-.49,19.08-.7l19.07-.55,5.79-.18,1.57,0A3.33,3.33,0,0,1,528.35,268.91Z" transform="translate(-61.64 -7.06)" style="fill:#263238"/><path d="M480.35,255.66a4.33,4.33,0,0,1-1.06,0l-2.88-.21c-2.43-.19-5.78-.42-9.49-.58s-7.06-.2-9.5-.22l-2.88,0a3.91,3.91,0,0,1-1.06-.07,4.53,4.53,0,0,1,1-.13c.68-.05,1.67-.1,2.89-.14,2.44-.07,5.81-.08,9.53.07s7.07.45,9.5.73c1.21.14,2.18.27,2.86.38A4.19,4.19,0,0,1,480.35,255.66Z" transform="translate(-61.64 -7.06)" style="fill:#e8505b"/><path d="M485.29,227.87c0,.14-6.55,0-14.61-.35s-14.59-.73-14.58-.87,6.54,0,14.6.35S485.29,227.73,485.29,227.87Z" transform="translate(-61.64 -7.06)" style="fill:#e8505b"/><path d="M457.93,289.11a4.44,4.44,0,0,1,.55-.93c.39-.57,1-1.39,1.74-2.36a59.19,59.19,0,0,1,14.27-13c1-.68,1.9-1.19,2.51-1.52a4.5,4.5,0,0,1,1-.47c0,.07-1.26.88-3.28,2.29a76.14,76.14,0,0,0-7.52,6,77.47,77.47,0,0,0-6.66,6.94C458.92,287.93,458,289.16,457.93,289.11Z" transform="translate(-61.64 -7.06)" style="fill:#e8505b"/><path d="M499.34,294.6c-.14,0-1.11-5.4-2.17-12.11s-1.8-12.16-1.66-12.18,1.12,5.39,2.18,12.1S499.49,294.58,499.34,294.6Z" transform="translate(-61.64 -7.06)" style="fill:#e8505b"/><g style="opacity:0.30000000000000004"><path d="M472.28,302.41l64.64-19.62c-4.84,6.37-14.28,12.32-21.4,16s-14.73,6.26-22.31,8.83c-4.12,1.4-8.34,2.82-12.69,2.78s-8.6-1.28-10.89-5Z" transform="translate(-61.64 -7.06)"/></g><path d="M483.42,136.23A6.83,6.83,0,0,0,481,128.1a7.36,7.36,0,0,0-8.56.44,8,8,0,0,0-2.45,8.32,8.14,8.14,0,0,0,15.84-1.15" transform="translate(-61.64 -7.06)" style="fill:#263238"/><path d="M493.08,119.35l0,4.72-1,70.72c-.12,8.2,6.85,14.84,15.64,14.9h0c8.87.06,16.27-6.61,16.53-14.9.26-8.7.7-17.86.7-17.86s11.26-1.55,14-16.12c1.36-7.24,1.32-19.17,1-28.94A15.45,15.45,0,0,0,523.24,117Z" transform="translate(-61.64 -7.06)" style="fill:#ffbe9d"/><path d="M534.93,140.38a1.87,1.87,0,0,1-1.86,1.84,1.8,1.8,0,0,1-1.89-1.74,1.88,1.88,0,0,1,1.86-1.84A1.79,1.79,0,0,1,534.93,140.38Z" transform="translate(-61.64 -7.06)" style="fill:#263238"/><path d="M537.13,138c-.24.24-1.64-.85-3.65-.9s-3.53.92-3.74.66c-.11-.11.14-.54.8-1a5.07,5.07,0,0,1,3-.84,5,5,0,0,1,2.9,1C537.05,137.45,537.24,137.9,537.13,138Z" transform="translate(-61.64 -7.06)" style="fill:#263238"/><path d="M515.18,140.19a1.89,1.89,0,0,1-1.86,1.84,1.79,1.79,0,0,1-1.89-1.74,1.87,1.87,0,0,1,1.86-1.85A1.8,1.8,0,0,1,515.18,140.19Z" transform="translate(-61.64 -7.06)" style="fill:#263238"/><path d="M517.27,137.83c-.24.24-1.63-.85-3.65-.9s-3.52.92-3.74.66.15-.54.81-1a5.15,5.15,0,0,1,3-.83,5,5,0,0,1,2.9,1C517.19,137.28,517.39,137.73,517.27,137.83Z" transform="translate(-61.64 -7.06)" style="fill:#263238"/><path d="M524.19,153a14,14,0,0,1,3.29-.5c.52,0,1-.13,1.11-.47a2.6,2.6,0,0,0-.31-1.54c-.45-1.26-.92-2.58-1.41-4-2-5.65-3.37-10.28-3.14-10.36s2,4.44,4,10.08l1.36,4a3.07,3.07,0,0,1,.21,2,1.31,1.31,0,0,1-.87.73,3.21,3.21,0,0,1-.88.1A12.89,12.89,0,0,1,524.19,153Z" transform="translate(-61.64 -7.06)" style="fill:#263238"/><path d="M524.92,176.93a37.21,37.21,0,0,1-19.44-5.77s4.47,10.18,19.15,9.22Z" transform="translate(-61.64 -7.06)" style="fill:#eb996e"/><path d="M523.2,157.85A3.65,3.65,0,0,0,520,156.4a3.32,3.32,0,0,0-2.33,1.17,2.12,2.12,0,0,0-.23,2.4,2.47,2.47,0,0,0,2.63.75,7.65,7.65,0,0,0,2.62-1.47,2.55,2.55,0,0,0,.6-.58.68.68,0,0,0,0-.76" transform="translate(-61.64 -7.06)" style="fill:#eb996e"/><path d="M518.21,154.24c.33,0,.27,2.18,2.1,3.78s4.17,1.43,4.18,1.74c0,.14-.53.41-1.52.41a5.45,5.45,0,0,1-3.49-1.32,4.74,4.74,0,0,1-1.62-3.18C517.8,154.76,518.06,154.22,518.21,154.24Z" transform="translate(-61.64 -7.06)" style="fill:#263238"/><path d="M518,129.94c-.21.54-2.22.22-4.6.44s-4.31.82-4.61.32c-.13-.24.22-.75,1-1.26a7.71,7.71,0,0,1,3.45-1.1,7.55,7.55,0,0,1,3.57.52C517.68,129.23,518.11,129.68,518,129.94Z" transform="translate(-61.64 -7.06)" style="fill:#263238"/><path d="M536.55,132.14c-.37.45-1.75-.07-3.42-.13s-3.1.22-3.41-.27c-.14-.24.1-.69.73-1.11a5,5,0,0,1,5.5.33C536.53,131.44,536.71,131.92,536.55,132.14Z" transform="translate(-61.64 -7.06)" style="fill:#263238"/><path d="M511.48,114.72c3.91,5.2-.16,12.56-4.66,17.25s-10,10.13-8.77,16.52c1.43,7.4,11.55,12.14,10.05,19.53-.55,2.7-2.68,5-2.69,7.75,0,5,6.41,7.38,8.26,12,2.54,6.32-4.43,12.62-4.54,19.42-.06,3.87,2.13,7.47,2.25,11.33.24,7.92-9.12,13.71-16.8,11.77S481.65,220.84,480,213.1s.87-18.62,2.11-26.44l-13.3,3.08c-2.48-2.36.91-4.87,1.47-8.25,1.4-8.46,7-15.63,9.61-23.79,2.31-7.13,2.33-14.77,3.34-22.2s3.31-15.18,9-20.08,15.5-5.51,20.09.42" transform="translate(-61.64 -7.06)" style="fill:#263238"/><path d="M481.66,138.75a23.58,23.58,0,0,0,5.86.17,25,25,0,0,0,12.72-5.76,53.21,53.21,0,0,0,9.29-10.71c1-1.45,1.82-2.65,2.44-3.57a9.62,9.62,0,0,1,.94-1.29,8.61,8.61,0,0,1-.77,1.4c-.52.87-1.3,2.14-2.3,3.67a49.52,49.52,0,0,1-9.27,10.9,24.37,24.37,0,0,1-13,5.73,16.51,16.51,0,0,1-4.36-.15,10,10,0,0,1-1.15-.26C481.79,138.81,481.65,138.77,481.66,138.75Z" transform="translate(-61.64 -7.06)" style="fill:#455a64"/><path d="M499,140.71a8,8,0,0,1-2.13,1.49,18.13,18.13,0,0,1-6,2,17.91,17.91,0,0,1-6.29-.18,7.81,7.81,0,0,1-2.47-.82c0-.08,1,.21,2.54.46a20.53,20.53,0,0,0,12-1.76C498.12,141.19,498.94,140.63,499,140.71Z" transform="translate(-61.64 -7.06)" style="fill:#455a64"/><path d="M546.54,130.87a8.73,8.73,0,0,1-7.81-4.62,14.15,14.15,0,0,0,7.81,4.62Z" transform="translate(-61.64 -7.06)" style="fill:#455a64"/><path d="M545.6,135.8a5.25,5.25,0,0,1-5.22-1.3c.09-.13,1.12.52,2.55.87S545.58,135.65,545.6,135.8Z" transform="translate(-61.64 -7.06)" style="fill:#455a64"/><path d="M482.76,141.93a10.79,10.79,0,0,1-.42-4.85,11,11,0,0,1,1.26-4.7c.15.05-.52,2.11-.74,4.75S482.91,141.91,482.76,141.93Z" transform="translate(-61.64 -7.06)" style="fill:#e8505b"/></g><g id="Character_2" data-name="Character 2"><path d="M344.53,310.77c-1-.22-9.06,37.7-8,52.44s8,66,8,66h82.93s10.37-49.86,8.52-65-11.7-54.81-11.7-54.81Z" transform="translate(-61.64 -7.06)" style="fill:#263238"/><path d="M333.93,239.07l-11.85-53.35-.69-8.83s-2.71-19.8-2.73-21.74c0-2.24-1.1-2.76-1.93-2.7-1.28.1-2.17,1.69-2.22,3.61,0,.67.19,11.15.19,11.15a24.21,24.21,0,0,0-2.06-2.81c-1.57-2-5.22-3-9-2.87s-4.76.54-4.77,2a1.83,1.83,0,0,0,.75,1.4,3.68,3.68,0,0,0,2.47.83c6-.18,7.63,3,7.63,3l.09,1.16s-3.67-2.56-6.55-1.43a3.64,3.64,0,0,0-1.15.72,4.69,4.69,0,0,0-4,7,1.94,1.94,0,0,0,1.9,1.15,2.47,2.47,0,0,0,1.05-.65,3.51,3.51,0,0,1,.53-.4l.7,3.2s2,7.11,2.47,10.3L308,242.71A13.15,13.15,0,0,0,322.12,255h0A13.14,13.14,0,0,0,333.93,239.07Z" transform="translate(-61.64 -7.06)" style="fill:#ffbe9d"/><path d="M320.35,185a2.72,2.72,0,0,1-2.83-1.45c-.61-1-.87-2.1-1.4-3.11-1.59-3-5.38-4.41-6.82-7.5-.2-.43-.32-1,.06-1.31s.85-.06,1.23.15l9.93,5.35" transform="translate(-61.64 -7.06)" style="fill:#ffbe9d"/><path d="M320.52,177.15a4.63,4.63,0,0,0-1-.69c-.67-.4-1.66-1-2.88-1.67l-4.31-2.4-1.25-.68a2.22,2.22,0,0,0-1.63-.45,1,1,0,0,0-.64.85,1.9,1.9,0,0,0,.17.91,7.12,7.12,0,0,0,.87,1.42c1.38,1.76,3.16,2.86,4.45,4.14a8.48,8.48,0,0,1,1.58,2c.39.69.63,1.42.92,2.07a4,4,0,0,0,2.32,2.44,1.47,1.47,0,0,0,1.24-.06,3.29,3.29,0,0,1-1.16-.18,3.84,3.84,0,0,1-2-2.37,22.18,22.18,0,0,0-.87-2.16,8.65,8.65,0,0,0-1.64-2.15c-1.32-1.36-3.08-2.48-4.35-4.11a6.91,6.91,0,0,1-.79-1.28c-.19-.43-.17-.86.08-.91s.72.15,1.14.39l1.26.66,4.37,2.28c1.25.65,2.27,1.15,3,1.49A4.5,4.5,0,0,0,320.52,177.15Z" transform="translate(-61.64 -7.06)" style="fill:#eb996e"/><path d="M310,170a4.57,4.57,0,0,0-.71-2,3.57,3.57,0,0,0-1.83-1.3,9.3,9.3,0,0,0-2.84-.38,14.83,14.83,0,0,1-3-.22,4.69,4.69,0,0,1-2.21-1.08,1.83,1.83,0,0,1-.61-1.54,1.25,1.25,0,0,1,.19-.58s0,.22,0,.59a1.76,1.76,0,0,0,.65,1.32,4.59,4.59,0,0,0,2.09.91,16.24,16.24,0,0,0,2.89.19,8.78,8.78,0,0,1,2.95.43,3.79,3.79,0,0,1,2,1.5,3.41,3.41,0,0,1,.52,1.57C310.07,169.75,310,170,310,170Z" transform="translate(-61.64 -7.06)" style="fill:#eb996e"/><path d="M314.54,155.32a11.93,11.93,0,0,1,.06,2.09v5c0,1.88,0,3.59.07,5a11.19,11.19,0,0,1,0,2.08,9.93,9.93,0,0,1-.27-2.07c-.1-1.28-.18-3.06-.2-5s0-3.74.12-5A9.79,9.79,0,0,1,314.54,155.32Z" transform="translate(-61.64 -7.06)" style="fill:#eb996e"/><path d="M307.65,172.35a3.18,3.18,0,0,1-.61-.23,2,2,0,0,0-1.61-.06,1,1,0,0,0-.53.87,5.53,5.53,0,0,0,.11,1.36,2.31,2.31,0,0,1-.23,1.64,2,2,0,0,1-1.59.85,2.26,2.26,0,0,1-1.64-.7,2.79,2.79,0,0,1-.79-1.44,9.24,9.24,0,0,1,0-2.69,5.35,5.35,0,0,1,.51-1.73,1.31,1.31,0,0,1,.42-.51s-.12.2-.27.58a6.13,6.13,0,0,0-.37,1.7,9.83,9.83,0,0,0,.07,2.57,2.24,2.24,0,0,0,2.05,1.8,1.59,1.59,0,0,0,1.26-.65,2,2,0,0,0,.19-1.37,5.88,5.88,0,0,1-.07-1.45,1.31,1.31,0,0,1,.74-1.09,2,2,0,0,1,1.81.17C307.48,172.18,307.67,172.32,307.65,172.35Z" transform="translate(-61.64 -7.06)" style="fill:#eb996e"/><path d="M301.72,175.76s.08.22-.06.6a1.78,1.78,0,0,1-1.2,1.09,2.41,2.41,0,0,1-2.3-.69A4,4,0,0,1,297.1,174a4.83,4.83,0,0,1,.87-2.81,4.6,4.6,0,0,1,1.85-1.52,4.44,4.44,0,0,1,1.56-.39c.38,0,.59,0,.59.06a7.32,7.32,0,0,0-2,.59,4.46,4.46,0,0,0-2.43,4.06,3.66,3.66,0,0,0,.91,2.48,2.14,2.14,0,0,0,2,.67,1.73,1.73,0,0,0,1.13-.87C301.68,176,301.68,175.76,301.72,175.76Z" transform="translate(-61.64 -7.06)" style="fill:#eb996e"/><path d="M309,182.69s.37-.12,1,0a4,4,0,0,1,2.19,1.3l-.35.1a10.5,10.5,0,0,1,.22-1.39,9,9,0,0,1,2.11-4.4,22.89,22.89,0,0,0-1.71,4.48c-.1.47-.17.93-.22,1.36l-.06.46-.29-.36a4.21,4.21,0,0,0-2-1.31C309.37,182.75,309,182.74,309,182.69Z" transform="translate(-61.64 -7.06)" style="fill:#eb996e"/><path d="M308.61,164.86c.1,0-.29.8-1.21,1.21s-1.74.2-1.71.09.75-.11,1.54-.47S308.52,164.79,308.61,164.86Z" transform="translate(-61.64 -7.06)" style="fill:#eb996e"/><path d="M429,193.77c4.34,0,14.77,12.32,16.59,31.06.83,8.57,5.13,43.71,7.21,60.6a16.84,16.84,0,0,1-6.86,15.69c-11.23,8.16-33.7,21-63.6,20.63L364.2,306.56,423,281.78l0-1.34,2.56-2.81-7.34-45S411.4,193.77,429,193.77Z" transform="translate(-61.64 -7.06)" style="fill:#e8505b"/><path d="M413.67,114.62c.22,6.08,8.33,9.77,8.23,15.86,0,2.61-1.67,5-2,7.55-.43,3.49,1.52,6.78,2.24,10.22,1.49,7.08-2.63,14.55-8.74,18.43s-13.79,4.62-21,3.64" transform="translate(-61.64 -7.06)" style="fill:#263238"/><path d="M364.68,113.12c.24,3.27-1.92,6.19-4.09,8.64s-4.6,5-5.07,8.25c-.83,5.74,4.8,11.08,3.64,16.76-.63,3-3.12,5.5-3.57,8.58s1.17,5.89,3.15,8.16,4.27,1.94,6,4.39a24.51,24.51,0,0,0,7.59,6.74c6.31,3.46,13.87-1.54,16.91-2.43" transform="translate(-61.64 -7.06)" style="fill:#263238"/><path d="M414.89,118.12c.08-3-2.66-5.25-5.42-6.34s-5.82-1.49-8.28-3.15c-2.18-1.46-3.64-3.75-5.48-5.62A18.25,18.25,0,0,0,365,111.39c-1.06,4.21-.34,9.2,3,12,3.86,3.25,9.58,2.53,14.52,1.52s10.55-2,14.68.89c2.49,1.75,3.92,4.6,5.44,7.24s3.43,5.33,6.31,6.32,6.79-.72,6.9-3.76" transform="translate(-61.64 -7.06)" style="fill:#263238"/><path d="M375.5,187.13c0-6.8-.08-13.42-.08-13.39s-10.8-1.81-13-15.91c-1.09-7-.72-18.51-.1-27.9.55-8.46,6.17-18.82,14.6-17.91l26.29,6.71a5,5,0,0,1,4.43,5h0l-2.41,63.83a14.85,14.85,0,0,1-15.15,14.3h0A14.86,14.86,0,0,1,375.5,187.13Z" transform="translate(-61.64 -7.06)" style="fill:#ffbe9d"/><path d="M366.78,138a1.81,1.81,0,0,0,1.74,1.83,1.73,1.73,0,0,0,1.87-1.62,1.8,1.8,0,0,0-1.74-1.83A1.73,1.73,0,0,0,366.78,138Z" transform="translate(-61.64 -7.06)" style="fill:#263238"/><path d="M364.79,135.91c.22.24,1.59-.77,3.54-.76s3.37,1,3.58.75-.13-.54-.75-1a5,5,0,0,0-2.86-.89,4.79,4.79,0,0,0-2.82.9C364.88,135.38,364.68,135.81,364.79,135.91Z" transform="translate(-61.64 -7.06)" style="fill:#263238"/><path d="M385.67,138.47a1.8,1.8,0,0,0,1.74,1.83,1.74,1.74,0,0,0,1.87-1.63,1.82,1.82,0,0,0-1.74-1.83A1.74,1.74,0,0,0,385.67,138.47Z" transform="translate(-61.64 -7.06)" style="fill:#263238"/><path d="M383.91,136.32c.22.23,1.59-.78,3.54-.77s3.37,1,3.58.75-.12-.53-.75-1a4.83,4.83,0,0,0-2.86-.89,4.72,4.72,0,0,0-2.82.9C384,135.79,383.8,136.21,383.91,136.32Z" transform="translate(-61.64 -7.06)" style="fill:#263238"/><path d="M376.82,150.73a13.12,13.12,0,0,0-3.16-.58c-.5-.05-1-.15-1.05-.49a2.5,2.5,0,0,1,.33-1.47l1.48-3.78c2.05-5.38,3.54-9.81,3.32-9.89s-2.06,4.22-4.11,9.6l-1.41,3.8a2.88,2.88,0,0,0-.27,2,1.28,1.28,0,0,0,.82.73,3.53,3.53,0,0,0,.84.12A12.72,12.72,0,0,0,376.82,150.73Z" transform="translate(-61.64 -7.06)" style="fill:#263238"/><path d="M375.42,173.74a35.8,35.8,0,0,0,18.89-5c-.16,0-5.2,9.8-18.71,8.32Z" transform="translate(-61.64 -7.06)" style="fill:#eb996e"/><path d="M377.63,155.42a3.5,3.5,0,0,1,3.14-1.3,3.21,3.21,0,0,1,2.21,1.19,2,2,0,0,1,.15,2.32,2.34,2.34,0,0,1-2.55.64,7.18,7.18,0,0,1-2.48-1.49,2.17,2.17,0,0,1-.56-.57.65.65,0,0,1,0-.73" transform="translate(-61.64 -7.06)" style="fill:#e8505b"/><path d="M382.54,152.09c-.32,0-.33,2.09-2.14,3.58s-4.06,1.26-4.07,1.56c0,.13.5.41,1.45.44a5.31,5.31,0,0,0,3.4-1.18,4.57,4.57,0,0,0,1.65-3C382.92,152.6,382.68,152.07,382.54,152.09Z" transform="translate(-61.64 -7.06)" style="fill:#263238"/><path d="M383,132.91c.19.53,2.13.28,4.41.56s4.13.91,4.44.44c.13-.23-.19-.73-.93-1.24a7.72,7.72,0,0,0-6.74-.76C383.38,132.24,383,132.66,383,132.91Z" transform="translate(-61.64 -7.06)" style="fill:#263238"/><path d="M365.51,130.28c.35.45,1.69,0,3.3,0s3,.31,3.29-.15c.14-.23-.08-.67-.67-1.09a4.78,4.78,0,0,0-5.31.15C365.55,129.61,365.36,130.07,365.51,130.28Z" transform="translate(-61.64 -7.06)" style="fill:#263238"/><path d="M409.17,165.88c-3.88.79-4.22-1.19-7.12-3.88a12.71,12.71,0,0,1-3.89-10.74c.43-3.46,2.3-7,1.1-10.26-1.59-4.33-7.66-5.66-9.27-10-.94-2.51-.1-5.45-1.16-7.91s-3.43-3.65-5.8-4.51-4.92-1.45-6.91-3-3.23-4.47-1.95-6.64a133.74,133.74,0,0,1,30.8,7.48c2.31.86,4.72,1.89,6.08,3.94s1.37,5,1.25,7.55l-1.77,38" transform="translate(-61.64 -7.06)" style="fill:#263238"/><path d="M418,137.13a10.82,10.82,0,0,1,20.47-3.75c2,4,1.28,8.83-.55,12.87-2.17,4.81-6.62,9.19-11.89,9-5-.23-8.95-4.58-10.38-9.33s-.85-9.84-.26-14.77" transform="translate(-61.64 -7.06)" style="fill:#263238"/><path d="M420.8,156.43a2.44,2.44,0,0,0,.73-.81,6.89,6.89,0,0,0,1.06-2.82,13.89,13.89,0,0,0-.13-4.46c-.29-1.66-.85-3.39-1.25-5.24a13.07,13.07,0,0,1-.31-5.22c.29-1.57,1-2.9,1.35-4.14a5.26,5.26,0,0,0,.08-3c-.22-.7-.52-1-.54-1s.17.35.31,1a5.54,5.54,0,0,1-.27,2.82,34.6,34.6,0,0,0-1.49,4.17,13,13,0,0,0,.26,5.45c.42,1.89,1,3.62,1.3,5.22a13.78,13.78,0,0,1,.25,4.29A8.78,8.78,0,0,1,420.8,156.43Z" transform="translate(-61.64 -7.06)" style="fill:#455a64"/><path d="M421,139.51a7,7,0,0,0,2.16,2.11,12.38,12.38,0,0,0,13.93.25,6.92,6.92,0,0,0,2.24-2c-.08-.08-.88.75-2.47,1.66a13.18,13.18,0,0,1-6.76,1.78,13.39,13.39,0,0,1-6.7-2C421.86,140.29,421.08,139.43,421,139.51Z" transform="translate(-61.64 -7.06)" style="fill:#455a64"/><path d="M421.7,141.72a6.69,6.69,0,0,0,1.19,2.21,15.38,15.38,0,0,0,10.22,6.14,6.47,6.47,0,0,0,2.51,0,22.17,22.17,0,0,0-2.44-.45,18.13,18.13,0,0,1-5.48-2.14,17.9,17.9,0,0,1-4.46-3.84A23.43,23.43,0,0,0,421.7,141.72Z" transform="translate(-61.64 -7.06)" style="fill:#455a64"/><path d="M418.15,161.15s.06-.05.16-.17a5.49,5.49,0,0,0,.38-.57,7.25,7.25,0,0,0,.93-2.46,8.63,8.63,0,0,0-.22-4.16,7.93,7.93,0,0,0-3.28-4.41c-1.68-1.18-3.85-2-5.24-3.88a4.23,4.23,0,0,1-.76-3.31,19.17,19.17,0,0,1,1.22-3.66,10.49,10.49,0,0,0-.18-8.41,9.28,9.28,0,0,0-2.86-3.56,11.27,11.27,0,0,0-4.32-1.79c-1.53-.35-3.05-.55-4.46-1a8.69,8.69,0,0,1-3.74-2,6.16,6.16,0,0,1-1.62-3.7,31.28,31.28,0,0,0-.67-4.1,14.11,14.11,0,0,0-3.8-6.67,11.19,11.19,0,0,0-6-3,8.88,8.88,0,0,0-5.45.83,8.65,8.65,0,0,0-3.15,2.73,7.35,7.35,0,0,0-1.1,2.39,3.61,3.61,0,0,0-.14.91A8.81,8.81,0,0,1,375.3,108a8.48,8.48,0,0,1,8.33-3.26,10.72,10.72,0,0,1,5.7,2.9,13.7,13.7,0,0,1,3.61,6.45,30.77,30.77,0,0,1,.63,4,6.84,6.84,0,0,0,1.78,4,9.09,9.09,0,0,0,4,2.21c1.48.45,3,.65,4.5,1a10.6,10.6,0,0,1,4.1,1.69,8.49,8.49,0,0,1,2.67,3.31,10,10,0,0,1,.2,8,19.42,19.42,0,0,0-1.23,3.78,4.74,4.74,0,0,0,.89,3.69c1.54,2,3.78,2.81,5.4,3.94a7.66,7.66,0,0,1,3.2,4.15,8.72,8.72,0,0,1,.32,4A9.34,9.34,0,0,1,418.15,161.15Z" transform="translate(-61.64 -7.06)" style="fill:#455a64"/><path d="M417.21,121.8a1.6,1.6,0,0,0,.17-.65,3,3,0,0,0-.47-1.87,4.69,4.69,0,0,0-2.35-2,7.42,7.42,0,0,0-4.05-.14c-1.48.28-3,.87-4.69,1.2a6.3,6.3,0,0,1-5.1-.8c-1.49-1.14-2.24-3.12-3-5.08a21.19,21.19,0,0,0-3.26-5.8,19.49,19.49,0,0,0-10.67-6.9,11.12,11.12,0,0,0-5.63.15,8.7,8.7,0,0,0-4.12,2.66,6.53,6.53,0,0,0-1.1,6.76A5,5,0,0,0,374,111a2.09,2.09,0,0,0,.52.42,7,7,0,0,1-1.36-2.12,6.34,6.34,0,0,1-.34-2.9,6.17,6.17,0,0,1,1.55-3.48,8.3,8.3,0,0,1,3.94-2.46,10.76,10.76,0,0,1,5.36-.08,19.14,19.14,0,0,1,10.3,6.72,20.61,20.61,0,0,1,3.18,5.65c.78,1.94,1.55,4,3.24,5.3a5.36,5.36,0,0,0,2.78,1,9.62,9.62,0,0,0,2.76-.2c1.74-.36,3.25-1,4.68-1.27a7.2,7.2,0,0,1,3.84,0,4.65,4.65,0,0,1,2.27,1.75,3.16,3.16,0,0,1,.55,1.74C417.26,121.57,417.17,121.79,417.21,121.8Z" transform="translate(-61.64 -7.06)" style="fill:#455a64"/><path d="M430.21,194l-25-6.37h-29.8s-15.45.89-24,8.48a19,19,0,0,0-4.69,7.67l-13.24,30.32-6.8-38-23.78,3.38,3.83,65.41A32.12,32.12,0,0,0,332,293.06l13.53-15.21c1.57,12.41,2.95,23,3.09,22.91.33-.33,74.08-4.81,74.08-4.81l-7.47-25.23Z" transform="translate(-61.64 -7.06)" style="fill:#e8505b"/><path d="M335.71,109.32a17.05,17.05,0,1,0-24.48,15.18c0,2,0,4.3,0,4.3l14.94.15s.12-2.41.17-4.56A17.06,17.06,0,0,0,335.71,109.32Z" transform="translate(-61.64 -7.06)" style="fill:#e8505b"/><path d="M320.73,128.83a1.53,1.53,0,0,1,0-.21l.07-.62c.08-.54.18-1.33.34-2.36s.38-2.26.72-3.69a25.38,25.38,0,0,1,1.6-4.73,17,17,0,0,1,1.42-2.54,3.19,3.19,0,0,1,1.18-1,1.73,1.73,0,0,1,1.62.07,1.18,1.18,0,0,1,.45,1.55,2.38,2.38,0,0,1-1.33,1.12,4.69,4.69,0,0,1-5.92-3.16,3.62,3.62,0,0,1-.08-2,1.53,1.53,0,0,1,1.56-1.17,1.1,1.1,0,0,1,.87.61,1.58,1.58,0,0,1,.12,1.05,3.32,3.32,0,0,1-1.21,1.68,5.07,5.07,0,0,1-4,1.11,4.42,4.42,0,0,1-3.27-2.49,2.59,2.59,0,0,1-.1-2.06,1.34,1.34,0,0,1,.76-.75,1.28,1.28,0,0,1,1.05.11,1.71,1.71,0,0,1,.71.75,2.46,2.46,0,0,1,.25,1,4.87,4.87,0,0,1-.28,1.94,5.1,5.1,0,0,1-2.43,2.84,5.26,5.26,0,0,1-3.53.45,2.79,2.79,0,0,1-1.53-.83,1.34,1.34,0,0,1-.08-1.65,1.08,1.08,0,0,1,.77-.36,1.57,1.57,0,0,1,.81.16,2.44,2.44,0,0,1,1,1.18c.42.93.76,1.83,1.1,2.7,1.33,3.45,2.26,6.29,2.89,8.26.31,1,.54,1.75.7,2.27.07.26.13.45.17.59a1.79,1.79,0,0,1,.05.21s0-.07-.07-.2-.11-.33-.19-.59l-.74-2.26c-.65-2-1.61-4.79-2.95-8.23-.34-.86-.69-1.77-1.1-2.68a2.34,2.34,0,0,0-1-1.1,1,1,0,0,0-1.29,1.58,2.54,2.54,0,0,0,1.43.77,5.06,5.06,0,0,0,3.4-.44A4.92,4.92,0,0,0,317.1,113a4.72,4.72,0,0,0,.27-1.87,1.83,1.83,0,0,0-.86-1.57,1.09,1.09,0,0,0-.88-.1,1.15,1.15,0,0,0-.64.64,2.38,2.38,0,0,0,.1,1.9,4.23,4.23,0,0,0,3.11,2.37,4.9,4.9,0,0,0,3.82-1.07,3.17,3.17,0,0,0,1.15-1.57,1.31,1.31,0,0,0-.11-.91.91.91,0,0,0-.7-.5,1.21,1.21,0,0,0-.85.27,1.46,1.46,0,0,0-.49.76,3.33,3.33,0,0,0,.07,1.85,4.55,4.55,0,0,0,2.28,2.75,4.47,4.47,0,0,0,3.39.29,2.25,2.25,0,0,0,1.23-1,1,1,0,0,0-.38-1.33,1.6,1.6,0,0,0-1.46-.06,3,3,0,0,0-1.12,1,16.59,16.59,0,0,0-1.42,2.5A26,26,0,0,0,322,122c-.35,1.43-.57,2.67-.75,3.69s-.29,1.8-.37,2.35c0,.26-.08.46-.1.61A1.76,1.76,0,0,1,320.73,128.83Z" transform="translate(-61.64 -7.06)" style="fill:#263238"/><path d="M325,131.71l-12.83-.14a1,1,0,0,1-.95-1h0a1,1,0,0,1,1-.95l12.83.13a1,1,0,0,1,1,1h0A1,1,0,0,1,325,131.71Z" transform="translate(-61.64 -7.06)" style="fill:#263238"/><path d="M324.94,132.55l-12.82-.14a1,1,0,0,0,0,1.93h1.41l1.83,3.58a1.23,1.23,0,0,0,1.09.67l4.59.05a1.21,1.21,0,0,0,1.1-.66l1.86-3.53h.95a1,1,0,1,0,0-1.92Z" transform="translate(-61.64 -7.06)" style="fill:#263238"/><g style="opacity:0.2"><path d="M307.82,98.17a12.35,12.35,0,0,1,3.44-2.23,9.13,9.13,0,0,1,2.63-.74c.65-.06,1,0,1.05.14.07.31-1.23.76-3,1.9a14,14,0,0,0-6.54,13.7c.22,2.09.69,3.37.4,3.51-.12.07-.41-.18-.77-.72a9.08,9.08,0,0,1-1.08-2.51,12.63,12.63,0,0,1-.43-4.07,13.36,13.36,0,0,1,1.24-4.92" transform="translate(-61.64 -7.06)" style="fill:#fff"/></g><g style="opacity:0.2"><path d="M319,96.12c-1.08,0-2-.33-2.14-.9,0-.28.16-.59.55-.82a3.5,3.5,0,0,1,3.23,0c.38.25.58.55.52.84" transform="translate(-61.64 -7.06)" style="fill:#fff"/></g><path d="M321.87,138.29s-.33-.12-.88-.28a7.06,7.06,0,0,0-4.33.08c-.54.18-.85.34-.87.31a2.59,2.59,0,0,1,.82-.45,6.31,6.31,0,0,1,2.21-.45,6.4,6.4,0,0,1,2.22.37A2.61,2.61,0,0,1,321.87,138.29Z" transform="translate(-61.64 -7.06)" style="fill:#455a64"/><path d="M324,134.51c0,.06-2.32.08-5.18.05s-5.18-.1-5.18-.16,2.32-.08,5.19-.05S324,134.45,324,134.51Z" transform="translate(-61.64 -7.06)" style="fill:#455a64"/><path d="M323.18,136a6.78,6.78,0,0,1-1.27.12c-.78,0-1.86.07-3.06.08s-2.28,0-3.06-.06a7.48,7.48,0,0,1-1.27-.11,7.8,7.8,0,0,1,1.27,0h3.06l3.06,0A7.36,7.36,0,0,1,323.18,136Z" transform="translate(-61.64 -7.06)" style="fill:#455a64"/><path d="M348.34,251.81a3.91,3.91,0,0,1-.75-.92,10.22,10.22,0,0,1-1.33-3,18.55,18.55,0,0,1,.63-10.6c1.34-4,3.09-7.31,4.07-9.84.5-1.26.87-2.29,1.1-3a5.21,5.21,0,0,1,.4-1.12,4.92,4.92,0,0,1-.2,1.17,31.11,31.11,0,0,1-1,3.09c-.9,2.59-2.6,6-3.92,9.87a19.27,19.27,0,0,0-.77,10.35A15.42,15.42,0,0,0,348.34,251.81Z" transform="translate(-61.64 -7.06)" style="fill:#263238"/><path d="M417.4,226a1.72,1.72,0,0,1,.14.51c.08.4.18.9.31,1.5.25,1.38.59,3.24,1,5.51.83,4.66,1.94,11.1,3.1,18.22s2.15,13.59,2.79,18.28c.32,2.35.55,4.25.7,5.57.05.61.09,1.11.13,1.52a2.15,2.15,0,0,1,0,.53,2,2,0,0,1-.12-.52c-.06-.41-.13-.9-.23-1.51-.21-1.38-.5-3.25-.86-5.53-.76-4.74-1.79-11.16-2.94-18.25s-2.18-13.51-2.94-18.25c-.35-2.28-.64-4.15-.85-5.54-.09-.6-.16-1.1-.21-1.51A2.11,2.11,0,0,1,417.4,226Z" transform="translate(-61.64 -7.06)" style="fill:#263238"/><path d="M332.79,252.79A19.39,19.39,0,0,1,333,250c.15-1.71.32-4.08.39-6.7s0-5,0-6.71a17.41,17.41,0,0,1,0-2.79,12.71,12.71,0,0,1,.39,2.77,62.32,62.32,0,0,1-.35,13.47A12.58,12.58,0,0,1,332.79,252.79Z" transform="translate(-61.64 -7.06)" style="fill:#263238"/><path d="M434.41,284.26c-.08,0-.23-.65-.71-1.63a8.54,8.54,0,0,0-6.5-4.81c-1.07-.17-1.76-.11-1.77-.2a3.62,3.62,0,0,1,1.82-.17,8.18,8.18,0,0,1,4.12,1.54,8.09,8.09,0,0,1,2.67,3.49A3.61,3.61,0,0,1,434.41,284.26Z" transform="translate(-61.64 -7.06)" style="fill:#263238"/><path d="M428.92,287.22a24.15,24.15,0,0,0-2.6-3.26,23.9,23.9,0,0,0-3.45-2.33,8,8,0,0,1,6.05,5.59Z" transform="translate(-61.64 -7.06)" style="fill:#263238"/><path d="M410.5,287.23c-.05-.14,2.79-1.3,6.24-2.83s6.22-2.84,6.29-2.71a51.35,51.35,0,0,1-12.53,5.54Z" transform="translate(-61.64 -7.06)" style="fill:#263238"/><path d="M313.25,245.07s14.36,68.39,14.36,67.5,72.46,3.11,85.43,3.68l2.7-.66,20.46-18.83-23.53-1.9-8.42-48.12Z" transform="translate(-61.64 -7.06)" style="fill:#e0e0e0"/><path d="M404.25,246.74c.14,0,2.83,15.37,6,34.38s5.63,34.45,5.49,34.47-2.83-15.37-6-34.38S404.11,246.76,404.25,246.74Z" transform="translate(-61.64 -7.06)" style="fill:#455a64"/><path d="M404.51,246.77s-.15.2-.51.52a12.65,12.65,0,0,0-1.5,1.42c-.25.33-.59.79-.41,1.27s.21,1.13.34,1.77c.22,1.27.47,2.71.75,4.29,1.09,6.43,2.59,15.21,4.24,24.91s3,18.51,4.08,24.94c.49,3.15.89,5.73,1.18,7.57.12.85.22,1.54.3,2.06a3.3,3.3,0,0,1,.06.73,6.16,6.16,0,0,1-.17-.71l-.39-2.05c-.33-1.83-.78-4.4-1.34-7.54-1.09-6.42-2.59-15.21-4.24-24.91s-3-18.5-4.08-24.94c-.25-1.59-.48-3-.68-4.31-.11-.63-.17-1.23-.29-1.75a1.62,1.62,0,0,1,.49-1.46,10.75,10.75,0,0,1,1.59-1.37C404.31,246.92,404.5,246.76,404.51,246.77Z" transform="translate(-61.64 -7.06)" style="fill:#455a64"/><path d="M401.86,249.27a5,5,0,0,1-.89,0h-2.56l-9.41-.13-31.06-.55-31.06-.52-9.41-.14-2.56-.06a4.77,4.77,0,0,1-.89,0,4.77,4.77,0,0,1,.89-.05l2.56,0c2.23,0,5.44,0,9.42,0,7.95,0,18.93.15,31.06.37s23.11.48,31.06.7l9.41.3,2.55.11A5.54,5.54,0,0,1,401.86,249.27Z" transform="translate(-61.64 -7.06)" style="fill:#455a64"/><path d="M412.61,296.81a6.78,6.78,0,0,1,1.39,0l3.8.16c3.22.15,7.68.39,12.67.69l.64,0-.49.42-.92.78c-4,3.41-7.67,6.48-10.34,8.68l-3.17,2.58a7,7,0,0,1-1.21.9,8.19,8.19,0,0,1,1.08-1.05c.8-.7,1.83-1.61,3.06-2.71,2.61-2.27,6.23-5.38,10.24-8.8l.93-.78.15.46c-5-.31-9.45-.61-12.66-.86L414,297A8.69,8.69,0,0,1,412.61,296.81Z" transform="translate(-61.64 -7.06)" style="fill:#455a64"/><path d="M349.56,314.67h0l-.93-11.14a3.47,3.47,0,0,1,4,3.58v-6.89s4.24-.93,5.17,4.64a39.69,39.69,0,0,0,2.25,8.57l2.26,1.24-2.12-12.86s4.5.39,5.3,4.64a41.25,41.25,0,0,0,2,7.22l7.12,2s-4.08-3.64-3.69-4.84.14-1.12.93-1.29a7.63,7.63,0,0,1,3.8,1c1.3.69,8.8,5.13,8.8,5.13v5.5s-17.46,1.26-21.4.53l-7.64-1.77A8.09,8.09,0,0,1,349.56,314.67Z" transform="translate(-61.64 -7.06)" style="fill:#ffbe9d"/><path d="M366.24,278.09a4.85,4.85,0,1,1-5.63-4.52A5.11,5.11,0,0,1,366.24,278.09Z" transform="translate(-61.64 -7.06)" style="fill:#fafafa"/><g style="opacity:0.4"><path d="M425.52,277.34a13,13,0,0,1,9.09.27,9.32,9.32,0,0,1,5.53,7,4.47,4.47,0,0,1-.15,2.12,2.38,2.38,0,0,1-1.46,1.48,2.77,2.77,0,0,1-2.92-1.39,18.82,18.82,0,0,1-1.29-3.22,10.16,10.16,0,0,0-9.05-6.28l.48.13" transform="translate(-61.64 -7.06)"/></g><path d="M372.92,191.36c.59-1.88.06-3.9-.27-5.84s-.38-4.17.94-5.63,3.5-1.64,5.46-1.72l24.2-1.06c1.65-.07,3.57,0,4.6,1.26a3.55,3.55,0,0,1,.85,3c-1.24,4.61-.85,8.49,1,11.74" transform="translate(-61.64 -7.06)" style="fill:#e8505b"/><path d="M405.71,189.05a6.25,6.25,0,0,1-1.06.89,27.25,27.25,0,0,1-3.18,2,31.42,31.42,0,0,1-11.86,3.62,27.87,27.87,0,0,1-6.87-.13,16.28,16.28,0,0,1-5.34-1.73,9.7,9.7,0,0,1-2.94-2.38,6.78,6.78,0,0,1-.6-.84,1.06,1.06,0,0,1-.16-.32,11.93,11.93,0,0,0,3.87,3.21,16.36,16.36,0,0,0,5.24,1.58,29,29,0,0,0,6.75.09,33,33,0,0,0,11.74-3.43C404.11,190.21,405.65,189,405.71,189.05Z" transform="translate(-61.64 -7.06)" style="fill:#263238"/><path d="M389.19,195.66a14.15,14.15,0,0,1-.63-2.67c-.32-1.66-.73-4-1.15-6.49-.21-1.27-.4-2.47-.58-3.59a6.47,6.47,0,0,1,.1-3,2.94,2.94,0,0,1,1.27-1.62c.44-.24.73-.23.73-.2s-.25.1-.62.37a3,3,0,0,0-1,1.56,6.34,6.34,0,0,0,0,2.84c.19,1.12.39,2.32.61,3.58.42,2.54.77,4.85,1,6.52A14.74,14.74,0,0,1,389.19,195.66Z" transform="translate(-61.64 -7.06)" style="fill:#263238"/><path d="M401.77,191.83a9.71,9.71,0,0,1-.45-2.2c-.22-1.37-.48-3.26-.74-5.35s-.42-4-.61-5.34a2,2,0,0,0-.76-1.29c-.3-.21-.52-.22-.51-.27s.24-.08.62.1a2.08,2.08,0,0,1,1,1.37c.31,1.4.5,3.26.78,5.37s.46,4,.58,5.36A9.92,9.92,0,0,1,401.77,191.83Z" transform="translate(-61.64 -7.06)" style="fill:#263238"/><path d="M378.74,178.19a5.31,5.31,0,0,0-1.63,1.36,5.09,5.09,0,0,0-.89,2.09,10.65,10.65,0,0,0-.08,2.85c.18,2,.36,3.94.44,5.29a9.5,9.5,0,0,1,0,2.21,9.27,9.27,0,0,1-.4-2.17c-.18-1.35-.41-3.21-.6-5.29a10.14,10.14,0,0,1,.13-3,5.18,5.18,0,0,1,1.07-2.22C377.77,178.21,378.76,178.13,378.74,178.19Z" transform="translate(-61.64 -7.06)" style="fill:#263238"/></g><g id="Character_1" data-name="Character 1"><path d="M280.06,325.58c0,5.14,3,103.84,3,103.84l-42-.21-7.34-43.87-1.94,43.87H191.42l4.38-108.34Z" transform="translate(-61.64 -7.06)" style="fill:#455a64"/><path d="M156.24,284.71l-21.46-32,15.92-12.93,26.93,25s11.59-65,23-68.92l-.89,100.81h0A34.5,34.5,0,0,1,156.24,284.71Z" transform="translate(-61.64 -7.06)" style="fill:#263238"/><polygon points="50.66 126.96 55.23 189.26 130 332.6 173.23 307.56 99.54 167.47 50.66 126.96" style="fill:#e8505b"/><g style="opacity:0.7000000000000001"><path d="M161.91,174.8a4.39,4.39,0,0,1-6.39,1.25,11.12,11.12,0,0,1-17.77,11.31,13,13,0,0,1-20.92,8.49L112.3,134Z" transform="translate(-61.64 -7.06)" style="fill:#fff"/></g><path d="M114.13,159.07s10.14,6.36,18.19-8.45l-20-16.6Z" transform="translate(-61.64 -7.06)" style="fill:#e8505b"/><path d="M208.12,328c-.13.06-16-31.31-35.51-70.07s-35.17-70.24-35-70.31,16,31.31,35.51,70.08S208.25,327.88,208.12,328Z" transform="translate(-61.64 -7.06)" style="fill:#fff"/><path d="M226.09,317.19c-.13.07-16-31.31-35.5-70.06s-35.17-70.25-35.05-70.31,16,31.3,35.51,70.07S226.22,317.13,226.09,317.19Z" transform="translate(-61.64 -7.06)" style="fill:#fff"/><path d="M138.17,217.48l-9.7,3.87-2.07,7.82,3.34,13,7.83,8.31,5.29-4.37.33-8,.64-4.46s4.78-1.5,4.9-2.23-.59-3.19-1.32-3.31-5.75,1.75-5.75,1.75,5.93-4.7,5.77-5.45-.81-2.69-2-2.9-10.76,4.3-10.76,4.3l-1.56,3.54-1.36-5.67S140.28,221.35,138.17,217.48Z" transform="translate(-61.64 -7.06)" style="fill:#b78876"/><path d="M139.39,235.8s-.24-.34-.33-1a5.17,5.17,0,0,1,.3-2.44,5.09,5.09,0,0,1,1.37-2c.48-.42.84-.57.88-.52a10.4,10.4,0,0,0-1.78,2.74A10.79,10.79,0,0,0,139.39,235.8Z" transform="translate(-61.64 -7.06)" style="fill:#aa6550"/><path d="M134.78,234.11a19.71,19.71,0,0,0,.39-2.54,10.79,10.79,0,0,1,.49-2.82,4.09,4.09,0,0,1,.89-1.5,4.3,4.3,0,0,1,1.58-1c2.32-.84,4.41-1.52,5.94-2a12.56,12.56,0,0,1,2.51-.69,14.41,14.41,0,0,1-2.39,1c-1.49.58-3.59,1.32-5.87,2.15a4.05,4.05,0,0,0-1.42.87,3.86,3.86,0,0,0-.81,1.32,11.89,11.89,0,0,0-.57,2.7A5.13,5.13,0,0,1,134.78,234.11Z" transform="translate(-61.64 -7.06)" style="fill:#aa6550"/><path d="M132.56,232.35c-.14,0-.11-.87.06-1.91s.42-1.85.56-1.83a4,4,0,0,1-.07,1.91C132.94,231.56,132.69,232.38,132.56,232.35Z" transform="translate(-61.64 -7.06)" style="fill:#aa6550"/><path d="M263.7,177.19l-8.5-2.89-31.78,7.3-2.82,2.33L203.78,339.66c7.22,7.45,30,8.93,42.93,6.72Z" transform="translate(-61.64 -7.06)" style="fill:#e8505b"/><path d="M264.29,177.49l-4.09-2s-9,39.64-9,65.82-5.66,121.11-5.66,121.11l42.87-1.1V256.41Z" transform="translate(-61.64 -7.06)" style="fill:#263238"/><path d="M203.78,364l-16.25-4.76,5.67-76.74-1.07-55.64,8.5-31,20.16-12.45S204.89,354.72,203.78,364Z" transform="translate(-61.64 -7.06)" style="fill:#263238"/><path d="M237.66,196.36h0a15.65,15.65,0,0,1-14.26-15.65l0-13.93s-12.87-2-13-14.86,2.08-42.4,2.08-42.4h0a44.67,44.67,0,0,1,44.91,5.65l1.91,1.46-4.66,65.25A15.67,15.67,0,0,1,237.66,196.36Z" transform="translate(-61.64 -7.06)" style="fill:#b78876"/><path d="M223.43,166.6a29.91,29.91,0,0,0,16.77-4.77s-4,9.26-16.8,8.1Z" transform="translate(-61.64 -7.06)" style="fill:#aa6550"/><path d="M257.74,130c.22-.1,8.83-2.62,8.55,6.18s-9.05,6.7-9.06,6.44S257.74,130,257.74,130Z" transform="translate(-61.64 -7.06)" style="fill:#b78876"/><path d="M260,139.34s.15.11.4.24a1.6,1.6,0,0,0,1.15.06c.94-.31,1.77-1.76,1.86-3.35a5.09,5.09,0,0,0-.36-2.21,1.78,1.78,0,0,0-1.11-1.21.78.78,0,0,0-.92.39c-.13.25-.08.42-.12.44s-.19-.16-.11-.52a1.05,1.05,0,0,1,.37-.54,1.19,1.19,0,0,1,.85-.2,2.17,2.17,0,0,1,1.56,1.42,5.35,5.35,0,0,1,.45,2.47c-.11,1.77-1.07,3.4-2.36,3.72a1.63,1.63,0,0,1-1.39-.27C260,139.55,260,139.35,260,139.34Z" transform="translate(-61.64 -7.06)" style="fill:#aa6550"/><path d="M216.71,129.31a1.85,1.85,0,0,0,1.77,1.86,1.77,1.77,0,0,0,1.9-1.66,1.85,1.85,0,0,0-1.77-1.86A1.77,1.77,0,0,0,216.71,129.31Z" transform="translate(-61.64 -7.06)" style="fill:#263238"/><path d="M214.93,127.62c.23.23,1.62-.79,3.6-.79s3.42,1,3.64.75-.13-.54-.76-1a5.08,5.08,0,0,0-2.92-.9,4.83,4.83,0,0,0-2.86.93C215,127.07,214.82,127.51,214.93,127.62Z" transform="translate(-61.64 -7.06)" style="fill:#263238"/><path d="M236.14,130.14a1.85,1.85,0,0,0,1.77,1.86,1.77,1.77,0,0,0,1.9-1.66,1.83,1.83,0,0,0-1.77-1.85A1.76,1.76,0,0,0,236.14,130.14Z" transform="translate(-61.64 -7.06)" style="fill:#263238"/><path d="M234.36,128c.23.24,1.62-.79,3.6-.78s3.42,1,3.64.75-.13-.54-.76-1a5.06,5.06,0,0,0-2.92-.9,4.83,4.83,0,0,0-2.86.93C234.46,127.44,234.25,127.88,234.36,128Z" transform="translate(-61.64 -7.06)" style="fill:#263238"/><path d="M227.19,142.64a13.68,13.68,0,0,0-3.21-.58c-.51-.05-1-.15-1.07-.49a2.59,2.59,0,0,1,.33-1.5l1.5-3.84c2.07-5.47,3.57-10,3.35-10.06s-2.08,4.29-4.15,9.76c-.5,1.35-1,2.64-1.43,3.87a3,3,0,0,0-.27,2,1.29,1.29,0,0,0,.83.74,3.68,3.68,0,0,0,.86.12A12.21,12.21,0,0,0,227.19,142.64Z" transform="translate(-61.64 -7.06)" style="fill:#263238"/><path d="M233.85,120.24c.19.54,2.17.28,4.49.56s4.19.91,4.5.43c.14-.23-.19-.74-1-1.26a7.39,7.39,0,0,0-3.33-1.16,7.31,7.31,0,0,0-3.51.41C234.19,119.56,233.77,120,233.85,120.24Z" transform="translate(-61.64 -7.06)" style="fill:#263238"/><path d="M215.66,121.89c.34.45,1.71,0,3.34,0s3,.3,3.35-.17c.14-.23-.08-.68-.69-1.1a4.58,4.58,0,0,0-2.72-.74,4.67,4.67,0,0,0-2.67.9C215.69,121.21,215.5,121.68,215.66,121.89Z" transform="translate(-61.64 -7.06)" style="fill:#263238"/><path d="M206.23,101.4A4.74,4.74,0,0,1,208,97.16a3.38,3.38,0,0,1,4.37.32,3.92,3.92,0,0,1,3.37-4.76c2.1-.13,3.89,1.45,5.92,2a9.53,9.53,0,0,0,6-.7c1.91-.76,3.69-1.82,5.61-2.53a16.46,16.46,0,0,1,21,9.66c2.81-.88,6,.55,7.75,2.93a12,12,0,0,1,1.83,8.44,26.51,26.51,0,0,1-1.47,5.78c0,.16,0,.32,0,.49-.13,7.07-.93,15.38-4,15.42-5.26.08-4-9.82-4-9.82-6.46-2.5-4.05-12.17-5.67-13.64s-5-4.87-18.5,2c-5.25,2.69-12.23,2.6-16,1.74l-.34-.07-.08,0-.11,0a12.46,12.46,0,0,1-3.47-1.47,6.86,6.86,0,0,1-2.85-3.18,3.72,3.72,0,0,1,.74-4A8.23,8.23,0,0,1,206.23,101.4Z" transform="translate(-61.64 -7.06)" style="fill:#263238"/><path d="M225.51,148.72a9,9,0,0,0,1.14,2.25,3,3,0,0,0,2.13,1.23A2.7,2.7,0,0,0,231,151a4.3,4.3,0,0,0,.63-2.58c0-.81-.41-1.78-1.21-1.88a2,2,0,0,0-1,.22l-4.25,1.72" transform="translate(-61.64 -7.06)" style="fill:#aa6550"/><path d="M227.2,152.21a6.07,6.07,0,0,0,2.27-.27,3.32,3.32,0,0,0,1.71-1.56,3.41,3.41,0,0,0,0-2.77,2.68,2.68,0,0,0-.37-.64c-.17-.18-.13-.17-.32-.14s-.45.18-.68.27l-.69.28c-.91.37-1.73.69-2.43,1a7.43,7.43,0,0,1-2.31.69,7.83,7.83,0,0,1,2.1-1.18c.67-.33,1.47-.7,2.36-1.1l.69-.31c.25-.1.43-.21.77-.32a1.05,1.05,0,0,1,.63,0,1.08,1.08,0,0,1,.47.37,3.61,3.61,0,0,1,.48.8,4,4,0,0,1-.13,3.4,3.64,3.64,0,0,1-2.16,1.74,3.32,3.32,0,0,1-1.83.07C227.38,152.4,227.19,152.26,227.2,152.21Z" transform="translate(-61.64 -7.06)" style="fill:#263238"/><path d="M249.22,109.56a8.1,8.1,0,0,0,0-1.55,6.08,6.08,0,0,0-2-3.61,8.13,8.13,0,0,0-5.79-1.92,24.91,24.91,0,0,0-7.52,1.69c-1.31.43-2.61.84-3.89,1.13a21,21,0,0,1-3.77.45,20.25,20.25,0,0,1-6.33-.83,19.81,19.81,0,0,1-4-1.68,11,11,0,0,1-1-.62,1.48,1.48,0,0,1-.33-.24s.49.27,1.39.73a21.74,21.74,0,0,0,4,1.55,20.94,20.94,0,0,0,6.25.74,19.32,19.32,0,0,0,3.69-.47c1.27-.28,2.55-.69,3.86-1.12a25.14,25.14,0,0,1,7.64-1.68,8.43,8.43,0,0,1,6,2.07,6.06,6.06,0,0,1,2,3.79A3.44,3.44,0,0,1,249.22,109.56Z" transform="translate(-61.64 -7.06)" style="fill:#455a64"/><path d="M259.22,131.3s-.07-.08-.17-.27-.24-.46-.4-.82a16.47,16.47,0,0,1-1-3.19,17.26,17.26,0,0,1-.33-5,43,43,0,0,1,1.14-6,11.59,11.59,0,0,0,0-5.91,5.79,5.79,0,0,0-1.23-2.24,4.49,4.49,0,0,0-1.85-1.22,4.23,4.23,0,0,0-3.17.08,6.1,6.1,0,0,0-1,.7,2.54,2.54,0,0,1,.92-.83,4.3,4.3,0,0,1,3.33-.2,4.76,4.76,0,0,1,2,1.25,6.31,6.31,0,0,1,1.34,2.35,11.84,11.84,0,0,1,0,6.09,50.67,50.67,0,0,0-1.17,5.93,18,18,0,0,0,.25,4.89,18.81,18.81,0,0,0,.9,3.2C259.06,130.89,259.25,131.29,259.22,131.3Z" transform="translate(-61.64 -7.06)" style="fill:#455a64"/><path d="M250.45,108.53a3,3,0,0,1,0-.52c0-.38,0-.87,0-1.48a16.82,16.82,0,0,0-.59-5.34A9.28,9.28,0,0,0,248.2,98a6.65,6.65,0,0,0-3.45-2.28,8.72,8.72,0,0,0-4.6.19,21.13,21.13,0,0,0-4.6,2.08,36.62,36.62,0,0,1-4.57,2.35,14,14,0,0,1-4.7.95,15.2,15.2,0,0,1-4.31-.53,16.41,16.41,0,0,1-3.49-1.44,14.27,14.27,0,0,1-4.14-3.53,9.06,9.06,0,0,1-.84-1.23,2.24,2.24,0,0,1-.25-.45,2.67,2.67,0,0,1,.31.41,11.37,11.37,0,0,0,.89,1.17A14.73,14.73,0,0,0,218.61,99a16.13,16.13,0,0,0,3.44,1.37,14.68,14.68,0,0,0,4.22.49,13.72,13.72,0,0,0,4.58-.94,38.86,38.86,0,0,0,4.51-2.34,21.32,21.32,0,0,1,4.69-2.11,9,9,0,0,1,4.79-.17,7,7,0,0,1,3.61,2.42,9.75,9.75,0,0,1,1.73,3.37,16.17,16.17,0,0,1,.48,5.42c0,.64-.09,1.14-.12,1.48A1.85,1.85,0,0,1,250.45,108.53Z" transform="translate(-61.64 -7.06)" style="fill:#455a64"/><path d="M264.29,177.49S295,187.3,297,192.62c1.53,4,17.65,52.36,21.12,83.89a23.16,23.16,0,0,1-21,25.5c-20.77,1.9-50.92,4.38-50.92,2.67V278.54l39.06-5.77-14.47-42.53Z" transform="translate(-61.64 -7.06)" style="fill:#263238"/><path d="M224.93,299.4c4,1,21.32,1,21.32,1V279.9s-7.54-3.22-9.62-5.09-8-12.92-8-12.92a5.92,5.92,0,0,0-2.72,6.32c1,4.51,2.84,5.06,3,6.86,0,0,.16.46.16.48.41,2.51-2,4.71-2,4.71a8.83,8.83,0,0,0-2.63-1.35c-3.64-.43-8,2.19-8,3.64,0,0-.12,3.94,0,4.52s2,1.36,2,1.36-.58,2.63,0,3.79a6.14,6.14,0,0,0,2.53,2S222.67,298.81,224.93,299.4Z" transform="translate(-61.64 -7.06)" style="fill:#b78876"/><path d="M229.13,296.11a9.74,9.74,0,0,1-4.18-.23,9.54,9.54,0,0,1-3.88-1.53c.06-.15,1.78.54,4,1S229.13,296,229.13,296.11Z" transform="translate(-61.64 -7.06)" style="fill:#aa6550"/><path d="M228.11,290a12.82,12.82,0,0,1-9.22-1.23c.06-.15,2,.64,4.56,1S228.09,289.8,228.11,290Z" transform="translate(-61.64 -7.06)" style="fill:#aa6550"/><path d="M227.51,272.32a7.61,7.61,0,0,1,1.39,2.54,9,9,0,0,1,.45,1.41,3.5,3.5,0,0,1,0,1.76,5.2,5.2,0,0,1-2.48,3,6.75,6.75,0,0,1-1.91.76,12.74,12.74,0,0,1-1.88.19c-1.18,0-2.24,0-3.12,0-1.77,0-2.83.27-2.86.2a7,7,0,0,1,2.84-.57c.89-.07,2-.08,3.12-.15a12.45,12.45,0,0,0,1.79-.21,6.14,6.14,0,0,0,1.76-.71,4.89,4.89,0,0,0,2.28-2.71,3,3,0,0,0,0-1.54,9.89,9.89,0,0,0-.36-1.38C228,273.31,227.44,272.35,227.51,272.32Z" transform="translate(-61.64 -7.06)" style="fill:#aa6550"/><path d="M285.79,272.71a10.76,10.76,0,0,1-1.54.32l-4.22.73c-3.57.59-8.5,1.37-14,2.19s-10.41,1.54-14,2a37,37,0,0,1-5.82.58l1.54-.27,4.23-.67,14-2.16c5.46-.83,10.4-1.55,14-2.05l4.24-.56A7.68,7.68,0,0,1,285.79,272.71Z" transform="translate(-61.64 -7.06)" style="fill:#455a64"/><path d="M302.38,268.83a18.18,18.18,0,0,1-3.08,0c-1.9-.09-4.52-.24-7.41-.43a14.75,14.75,0,0,0-4,0,4,4,0,0,0-2.6,1.65,2.83,2.83,0,0,0-.37,2.05c.12.5.31.74.27.76s-.27-.18-.46-.7a2.88,2.88,0,0,1,.24-2.29,4.31,4.31,0,0,1,2.81-1.94,13.9,13.9,0,0,1,4.14-.09c2.9.19,5.51.4,7.4.58A19.32,19.32,0,0,1,302.38,268.83Z" transform="translate(-61.64 -7.06)" style="fill:#455a64"/><path d="M296,276a64.21,64.21,0,0,1-11-3.25A61.9,61.9,0,0,1,296,276Z" transform="translate(-61.64 -7.06)" style="fill:#455a64"/><path d="M271.72,224.84c.13-.05,3.28,9.9,7,22.2s6.68,22.32,6.54,22.36-3.29-9.9-7-22.21S271.58,224.88,271.72,224.84Z" transform="translate(-61.64 -7.06)" style="fill:#455a64"/><path d="M294.62,193.36c0,.1-1.8.38-4.53,1.43a27,27,0,0,0-15.61,15.72c-1,2.74-1.29,4.56-1.39,4.54a5.07,5.07,0,0,1,.15-1.28,23,23,0,0,1,.9-3.39A25.86,25.86,0,0,1,290,194.45a23.47,23.47,0,0,1,3.38-.93A5.48,5.48,0,0,1,294.62,193.36Z" transform="translate(-61.64 -7.06)" style="fill:#455a64"/><path d="M192.54,214.7a6.4,6.4,0,0,1,.06.69c0,.51,0,1.17.06,2,0,1.79.09,4.28.15,7.33.08,6.24.18,14.77.29,24.19s.11,18,.15,24.2c0,3.05,0,5.54,0,7.33l0,2a2.93,2.93,0,0,1,0,.7,3.2,3.2,0,0,1-.06-.7c0-.5,0-1.17-.06-2,0-1.79-.09-4.28-.15-7.33-.08-6.25-.18-14.77-.3-24.2s-.1-17.94-.14-24.19c0-3.05,0-5.54,0-7.33,0-.83,0-1.49,0-2A2.88,2.88,0,0,1,192.54,214.7Z" transform="translate(-61.64 -7.06)" style="fill:#455a64"/><path d="M240.89,427.9a3.7,3.7,0,0,1-.21-.75c-.12-.54-.28-1.26-.49-2.17-.42-1.88-1-4.62-1.68-8-1.36-6.78-3.11-16.17-4.77-26.59s-2.93-19.89-3.75-26.76c-.41-3.43-.71-6.21-.9-8.14l-.21-2.22a3.73,3.73,0,0,1,0-.77,7,7,0,0,1,.14.76c.07.56.17,1.29.3,2.21.26,2,.62,4.73,1.07,8.11.91,6.85,2.23,16.31,3.89,26.73s3.35,19.8,4.62,26.6c.64,3.35,1.15,6.09,1.52,8,.16.91.3,1.64.4,2.19A4.39,4.39,0,0,1,240.89,427.9Z" transform="translate(-61.64 -7.06)" style="fill:#263238"/><path d="M297.17,302c0,.14-11.27,1-25.19,1.92s-25.2,1.54-25.21,1.4,11.26-1,25.18-1.92S297.16,301.86,297.17,302Z" transform="translate(-61.64 -7.06)" style="fill:#455a64"/></g><g id="Plants"><path d="M93.4,402a2.56,2.56,0,0,1,.19-.46l.62-1.32A33.58,33.58,0,0,0,96,395c1.2-4.7,1.62-11.87-.16-20.4a109.07,109.07,0,0,0-3.78-13.7c-1.6-4.86-3.46-10-5-15.6a60.35,60.35,0,0,1-2.46-17.93c.23-6.35,2.11-12.68,4.17-19s4.2-12.49,4.83-18.69a28.48,28.48,0,0,0-3.42-17.27c-2.74-5-6.18-9.34-8.75-13.8a48,48,0,0,1-5.26-13.28,49.4,49.4,0,0,1-.33-20.56A38.07,38.07,0,0,1,78,217.48a3.13,3.13,0,0,1-.12.48c-.11.34-.25.8-.44,1.39a51,51,0,0,0-1.33,5.44,50,50,0,0,0,.53,20.41A47.75,47.75,0,0,0,82,258.3c2.57,4.41,6,8.7,8.81,13.8a29,29,0,0,1,3.53,17.61c-.64,6.31-2.79,12.52-4.84,18.83s-3.93,12.56-4.16,18.8a60.11,60.11,0,0,0,2.4,17.75c1.49,5.55,3.33,10.71,4.91,15.59a108.94,108.94,0,0,1,3.73,13.78c1.73,8.59,1.23,15.84-.06,20.55a31.32,31.32,0,0,1-1.94,5.28c-.29.54-.51,1-.68,1.29A2.92,2.92,0,0,1,93.4,402Z" transform="translate(-61.64 -7.06)" style="fill:#263238"/><path d="M85,263s-5.23-16.72,4.15-26.5a.57.57,0,0,1,1,.28C90.62,239.52,91.25,247.93,85,263Z" transform="translate(-61.64 -7.06)" style="fill:#e8505b"/><path d="M88.11,242.05a15.28,15.28,0,0,1-.35,3.08c-.35,2.12-.75,4.62-1.2,7.37s-.83,5.25-1.17,7.37a16.84,16.84,0,0,1-.55,3.05,12.37,12.37,0,0,1,.09-3.1c.18-1.91.51-4.54,1-7.42s1-5.48,1.38-7.36A13.63,13.63,0,0,1,88.11,242.05Z" transform="translate(-61.64 -7.06)" style="fill:#263238"/><path d="M91.12,302.4s3.19-17.22,16.06-21.48a.57.57,0,0,1,.74.71C107.07,284.31,103.69,292,91.12,302.4Z" transform="translate(-61.64 -7.06)" style="fill:#e8505b"/><path d="M103.67,285.36a15,15,0,0,1-1.75,2.56l-4.5,6-4.48,6A16.9,16.9,0,0,1,91,302.29a12.74,12.74,0,0,1,1.54-2.7c1-1.61,2.57-3.77,4.34-6.1s3.42-4.39,4.66-5.85A14.07,14.07,0,0,1,103.67,285.36Z" transform="translate(-61.64 -7.06)" style="fill:#263238"/><path d="M87.64,345.6s-1.94-17.41,9.13-25.23a.58.58,0,0,1,.92.48C97.65,323.65,96.66,332,87.64,345.6Z" transform="translate(-61.64 -7.06)" style="fill:#e8505b"/><path d="M94.71,325.65a15.87,15.87,0,0,1-.94,3l-2.57,7-2.56,7a17,17,0,0,1-1.12,2.89,12.31,12.31,0,0,1,.68-3c.53-1.84,1.37-4.36,2.38-7.1s2-5.19,2.76-6.95A13.26,13.26,0,0,1,94.71,325.65Z" transform="translate(-61.64 -7.06)" style="fill:#263238"/><path d="M97.33,389.05s-1.32-17.47,10-24.88a.58.58,0,0,1,.9.5C108.12,367.47,106.84,375.81,97.33,389.05Z" transform="translate(-61.64 -7.06)" style="fill:#e8505b"/><path d="M105.11,369.36a15.7,15.7,0,0,1-1,2.93c-.82,2-1.77,4.33-2.83,6.91s-2,4.93-2.8,6.92A18.2,18.2,0,0,1,97.21,389a13.23,13.23,0,0,1,.79-3c.6-1.82,1.52-4.3,2.64-7s2.18-5.12,3-6.85A14.2,14.2,0,0,1,105.11,369.36Z" transform="translate(-61.64 -7.06)" style="fill:#263238"/><path d="M77.46,248.29s-15.52-8.11-15.82-21.66a.58.58,0,0,1,.9-.5C64.85,227.73,71.24,233.23,77.46,248.29Z" transform="translate(-61.64 -7.06)" style="fill:#e8505b"/><path d="M64.86,231.29a16,16,0,0,1,1.93,2.43l4.38,6.05,4.39,6a16.9,16.9,0,0,1,1.77,2.55,12.82,12.82,0,0,1-2.13-2.26c-1.23-1.47-2.86-3.57-4.56-5.94s-3.19-4.56-4.23-6.17A13.89,13.89,0,0,1,64.86,231.29Z" transform="translate(-61.64 -7.06)" style="fill:#263238"/><path d="M94.13,284.19S78.15,277,77,263.53a.58.58,0,0,1,.87-.55C80.29,264.43,87,269.53,94.13,284.19Z" transform="translate(-61.64 -7.06)" style="fill:#e8505b"/><path d="M80.52,268a16.42,16.42,0,0,1,2.08,2.31l4.73,5.77,4.75,5.76A16.3,16.3,0,0,1,94,284.26a13.3,13.3,0,0,1-2.26-2.13c-1.32-1.39-3.07-3.39-4.91-5.65s-3.47-4.36-4.6-5.91A13.69,13.69,0,0,1,80.52,268Z" transform="translate(-61.64 -7.06)" style="fill:#263238"/><path d="M84.93,324.23s-11-13.65-5.82-26.18a.58.58,0,0,1,1-.1C81.61,300.34,85.27,307.93,84.93,324.23Z" transform="translate(-61.64 -7.06)" style="fill:#e8505b"/><path d="M80.19,303.6a15.65,15.65,0,0,1,.8,3c.46,2.1,1,4.57,1.59,7.3s1.14,5.19,1.61,7.29a17.36,17.36,0,0,1,.6,3,12.67,12.67,0,0,1-1.05-2.92c-.54-1.85-1.19-4.41-1.8-7.27s-1.1-5.46-1.4-7.35A15.28,15.28,0,0,1,80.19,303.6Z" transform="translate(-61.64 -7.06)" style="fill:#263238"/><path d="M95.81,371.35S79.94,363.93,79,350.41a.58.58,0,0,1,.88-.54C82.3,351.36,88.93,356.57,95.81,371.35Z" transform="translate(-61.64 -7.06)" style="fill:#e8505b"/><path d="M82.47,354.92a15.2,15.2,0,0,1,2,2.34l4.63,5.85L93.8,369a16.27,16.27,0,0,1,1.88,2.47,12.64,12.64,0,0,1-2.23-2.17c-1.3-1.42-3-3.44-4.82-5.73s-3.39-4.42-4.49-6A13.6,13.6,0,0,1,82.47,354.92Z" transform="translate(-61.64 -7.06)" style="fill:#263238"/><path d="M127.41,302.49a1.81,1.81,0,0,1,0,.39c0,.31,0,.67,0,1.12-.05,1.05-.11,2.47-.19,4.25-.2,3.73-.49,8.93-.83,15.16v0c-1.14,6.33-4.36,13.36-8.7,20.18-3.18,5-6.51,9.59-9.39,13.84a99.66,99.66,0,0,0-7,11.63A49.45,49.45,0,0,0,98,377.64c-.28,1.05-.49,1.86-.61,2.42a4.29,4.29,0,0,1-.23.84,4.26,4.26,0,0,1,.1-.86c.08-.57.25-1.4.49-2.46a44.83,44.83,0,0,1,3.13-8.68,92.54,92.54,0,0,1,7-11.77c2.86-4.28,6.17-8.85,9.34-13.85,4.31-6.79,7.52-13.7,8.7-19.94v0c.44-6.22.8-11.42,1.07-15.15.14-1.77.25-3.19.34-4.24,0-.45.08-.81.11-1.12S127.39,302.49,127.41,302.49Z" transform="translate(-61.64 -7.06)" style="fill:#263238"/><path d="M118,342.32s6.72-16.17-1.73-26.76a.58.58,0,0,0-1,.19C114.47,318.46,113.08,326.77,118,342.32Z" transform="translate(-61.64 -7.06)" style="fill:#e8505b"/><path d="M116.74,321.19a14.44,14.44,0,0,1,.53,3.06c.24,1.9.5,4.54.71,7.45s.31,5.56.31,7.48a12.2,12.2,0,0,1-.19,3.1,17.26,17.26,0,0,1-.27-3.08c-.15-2.15-.31-4.67-.5-7.45s-.37-5.31-.52-7.45A15.27,15.27,0,0,1,116.74,321.19Z" transform="translate(-61.64 -7.06)" style="fill:#263238"/><g style="opacity:0.30000000000000004"><path d="M118,342.32s6.72-16.17-1.73-26.76a.58.58,0,0,0-1,.19C114.47,318.46,113.08,326.77,118,342.32Z" transform="translate(-61.64 -7.06)"/></g><path d="M97.15,381.3s5.39-16.67-3.9-26.54a.57.57,0,0,0-1,.28C91.73,357.79,91,366.19,97.15,381.3Z" transform="translate(-61.64 -7.06)" style="fill:#e8505b"/><path d="M94.22,360.34a13.67,13.67,0,0,1,.78,3c.39,1.88.87,4.48,1.31,7.37s.76,5.52.91,7.43a13,13,0,0,1,.07,3.11,16.45,16.45,0,0,1-.53-3.06c-.31-2.13-.69-4.62-1.1-7.38s-.8-5.26-1.12-7.39A15.4,15.4,0,0,1,94.22,360.34Z" transform="translate(-61.64 -7.06)" style="fill:#263238"/><g style="opacity:0.30000000000000004"><path d="M97.15,381.3s5.39-16.67-3.9-26.54a.57.57,0,0,0-1,.28C91.73,357.79,91,366.19,97.15,381.3Z" transform="translate(-61.64 -7.06)"/></g><path d="M126.52,322.56s14.35-10,12.9-23.52a.58.58,0,0,0-1-.38C136.37,300.54,130.74,306.82,126.52,322.56Z" transform="translate(-61.64 -7.06)" style="fill:#e8505b"/><g style="opacity:0.30000000000000004"><path d="M126.52,322.56s14.35-10,12.9-23.52a.58.58,0,0,0-1-.38C136.37,300.54,130.74,306.82,126.52,322.56Z" transform="translate(-61.64 -7.06)"/></g><path d="M136.82,304.07a13.83,13.83,0,0,1-1.19,2.87c-.82,1.73-2,4.09-3.39,6.67s-2.73,4.86-3.76,6.47a12.75,12.75,0,0,1-1.82,2.52,17.37,17.37,0,0,1,1.42-2.75l3.58-6.56,3.56-6.56A15.22,15.22,0,0,1,136.82,304.07Z" transform="translate(-61.64 -7.06)" style="fill:#263238"/><path d="M102.94,364.78s17.3-2.7,21.94-15.44a.58.58,0,0,0-.7-.76C121.48,349.35,113.66,352.5,102.94,364.78Z" transform="translate(-61.64 -7.06)" style="fill:#e8505b"/><g style="opacity:0.30000000000000004"><path d="M102.94,364.78s17.3-2.7,21.94-15.44a.58.58,0,0,0-.7-.76C121.48,349.35,113.66,352.5,102.94,364.78Z" transform="translate(-61.64 -7.06)"/></g><path d="M120.33,352.72a15,15,0,0,1-2.33,2c-1.5,1.19-3.61,2.79-6,4.49s-4.58,3.16-6.22,4.16a12.84,12.84,0,0,1-2.75,1.46,16,16,0,0,1,2.5-1.85l6.09-4.31,6.09-4.32A15.26,15.26,0,0,1,120.33,352.72Z" transform="translate(-61.64 -7.06)" style="fill:#263238"/><polygon points="20.83 389.56 25.79 422.12 45.61 422.09 52.29 389.56 20.83 389.56" style="fill:#455a64"/><path d="M111,409.18s0,.05-.17.12a3.86,3.86,0,0,1-.52.3,7,7,0,0,1-2.21.66,8.15,8.15,0,0,1-3.65-.34,7.61,7.61,0,0,1-3.92-2.85,5.52,5.52,0,0,1-.92-2.72,3,3,0,0,1,1.35-2.8,3.2,3.2,0,0,1,3.32.28,4.84,4.84,0,0,1,1.9,3,13.18,13.18,0,0,1,.25,3.67,12.48,12.48,0,0,1-.81,3.76,8.21,8.21,0,0,1-2.3,3.28,6.35,6.35,0,0,1-3.81,1.59,6.94,6.94,0,0,1-4-1.15,11.65,11.65,0,0,1-3-2.67,6.54,6.54,0,0,1-1.5-3.58,4.14,4.14,0,0,1,1.41-3.45,3.23,3.23,0,0,1,3.51-.21,3.75,3.75,0,0,1,2,2.65,5.08,5.08,0,0,1-2.51,5.15,7,7,0,0,1-4.78.7,10.82,10.82,0,0,1-3.41-1.34,17.28,17.28,0,0,1-1.91-1.29,4.29,4.29,0,0,1-.62-.52,3.9,3.9,0,0,1,.68.43c.44.29,1.08.72,2,1.2a11.18,11.18,0,0,0,3.36,1.22,6.76,6.76,0,0,0,4.54-.73,4.71,4.71,0,0,0,2.26-4.73,3.31,3.31,0,0,0-1.81-2.32,2.73,2.73,0,0,0-3,.18,3.66,3.66,0,0,0-1.2,3A6,6,0,0,0,93,413a11.48,11.48,0,0,0,2.83,2.54,6.39,6.39,0,0,0,3.65,1.07,5.91,5.91,0,0,0,3.49-1.46,7.75,7.75,0,0,0,2.16-3.07,11.79,11.79,0,0,0,.78-3.59,12.48,12.48,0,0,0-.22-3.53,4.38,4.38,0,0,0-1.68-2.71,2.78,2.78,0,0,0-2.83-.28,2.56,2.56,0,0,0-1.15,2.39,5.16,5.16,0,0,0,.82,2.53,7.4,7.4,0,0,0,3.7,2.77,8,8,0,0,0,3.52.42A9.17,9.17,0,0,0,111,409.18Z" transform="translate(-61.64 -7.06)" style="fill:#263238"/><path d="M622.54,401.82c-7.84-4.55-12-15.13-12.35-23.79s3.29-17.69,10.39-22.65c7.48-5.23,18.13-5.14,25.82-.22s12.19,14.21,11.84,23.33a30.92,30.92,0,0,1-12.67,23.24" transform="translate(-61.64 -7.06)" style="fill:#e8505b"/><path d="M635.06,402.66a10.2,10.2,0,0,1-.14-2c0-1.42-.09-3.23-.16-5.4-.11-4.56-.29-10.86-.6-17.81s-.68-13.24-1-17.8c-.13-2.16-.24-4-.32-5.39a10.15,10.15,0,0,1,0-2,10.4,10.4,0,0,1,.31,2c.16,1.26.35,3.1.56,5.37.41,4.55.87,10.84,1.18,17.81s.4,13.27.38,17.83c0,2.28,0,4.13-.08,5.41A10.2,10.2,0,0,1,635.06,402.66Z" transform="translate(-61.64 -7.06)" style="fill:#fff"/><path d="M612.51,376.07c0,.21-1.27.27-2.8.14s-2.75-.39-2.73-.59,1.27-.27,2.79-.14S612.52,375.87,612.51,376.07Z" transform="translate(-61.64 -7.06)" style="fill:#263238"/><path d="M612.94,368.3c-.09.19-1.16-.11-2.41-.66s-2.2-1.16-2.12-1.34,1.17.11,2.41.66S613,368.12,612.94,368.3Z" transform="translate(-61.64 -7.06)" style="fill:#263238"/><path d="M616.93,362.54c-.1.16-1.31-.41-2.57-1.45s-2.06-2.13-1.91-2.27,1.15.69,2.37,1.7S617.05,362.36,616.93,362.54Z" transform="translate(-61.64 -7.06)" style="fill:#263238"/><path d="M621,357.1c-.19.08-.77-.83-1.3-2s-.81-2.25-.63-2.33.77.83,1.3,2S621.14,357,621,357.1Z" transform="translate(-61.64 -7.06)" style="fill:#263238"/><path d="M627.26,353.23c-.18.09-.8-.88-1.22-2.22s-.45-2.49-.25-2.52.55,1,1,2.3S627.45,353.15,627.26,353.23Z" transform="translate(-61.64 -7.06)" style="fill:#263238"/><path d="M637.79,348.88c.19.07.07.9-.26,1.85s-.77,1.66-1,1.6-.07-.9.26-1.85S637.6,348.81,637.79,348.88Z" transform="translate(-61.64 -7.06)" style="fill:#263238"/><path d="M645.6,352.23c.13.15-.37.84-1.12,1.54s-1.48,1.14-1.62,1,.36-.83,1.12-1.53S645.46,352.08,645.6,352.23Z" transform="translate(-61.64 -7.06)" style="fill:#263238"/><path d="M652.47,356.67c.11.17-.5.78-1.36,1.37s-1.67.93-1.78.76.5-.78,1.36-1.37S652.36,356.5,652.47,356.67Z" transform="translate(-61.64 -7.06)" style="fill:#263238"/><path d="M657.35,363.29c.08.19-.88.78-2.15,1.32s-2.36.82-2.44.64.88-.78,2.15-1.32S657.27,363.1,657.35,363.29Z" transform="translate(-61.64 -7.06)" style="fill:#263238"/><path d="M659.27,370.51c0,.2-.95.49-2.18.64s-2.26.11-2.28-.09,1-.49,2.18-.64S659.25,370.31,659.27,370.51Z" transform="translate(-61.64 -7.06)" style="fill:#263238"/><path d="M660.27,379.39c-.08.19-1.12-.09-2.33-.61s-2.12-1.1-2-1.29,1.13.09,2.34.62S660.35,379.21,660.27,379.39Z" transform="translate(-61.64 -7.06)" style="fill:#263238"/><path d="M659.39,387c-.06.18-1.38-.13-2.76-1s-2.2-2-2.06-2.11,1.15.65,2.46,1.5S659.47,386.82,659.39,387Z" transform="translate(-61.64 -7.06)" style="fill:#263238"/><path d="M655.42,394c-.12.15-1.17-.46-2.18-1.55s-1.55-2.18-1.38-2.29.95.75,1.92,1.79S655.55,393.79,655.42,394Z" transform="translate(-61.64 -7.06)" style="fill:#263238"/><path d="M617.73,394.77c.09.18-1,.94-2.46,1.7s-2.71,1.22-2.81,1,1-.94,2.47-1.69S617.64,394.59,617.73,394.77Z" transform="translate(-61.64 -7.06)" style="fill:#263238"/><path d="M614.29,388.49c.08.19-.8.77-2,1.3s-2.19.82-2.28.63.8-.76,2-1.3S614.2,388.31,614.29,388.49Z" transform="translate(-61.64 -7.06)" style="fill:#263238"/><path d="M611.75,382.93c0,.2-1.06.53-2.43.72s-2.5.19-2.53,0,1.06-.52,2.43-.72S611.73,382.73,611.75,382.93Z" transform="translate(-61.64 -7.06)" style="fill:#263238"/><path d="M620.06,379.87c.06.19-1,.68-2.42.84s-2.56-.08-2.55-.28,1.13-.29,2.47-.45S620,379.67,620.06,379.87Z" transform="translate(-61.64 -7.06)" style="fill:#263238"/><path d="M627,373c.06.19-.78.61-1.92.72s-2-.14-2-.33.9-.29,2-.4S626.89,372.81,627,373Z" transform="translate(-61.64 -7.06)" style="fill:#263238"/><path d="M628.27,367.51c-.07.19-1,.05-2-.32s-1.87-.82-1.8-1,1-.05,2,.32S628.34,367.32,628.27,367.51Z" transform="translate(-61.64 -7.06)" style="fill:#263238"/><path d="M630.8,362c-.14.14-.77-.27-1.22-1.05s-.49-1.53-.3-1.58.54.52.94,1.21S631,361.81,630.8,362Z" transform="translate(-61.64 -7.06)" style="fill:#263238"/><path d="M627.75,384.71c0,.2-.74.56-1.77.81a6.51,6.51,0,0,1-1.48.22l-.15-.43c.27-.05.44,0,.47,0s-.07.21-.29.38l-.14-.43a6.21,6.21,0,0,1,1.42-.49C626.83,384.56,627.7,384.51,627.75,384.71Z" transform="translate(-61.64 -7.06)" style="fill:#263238"/><path d="M629.17,394.46c.08.18-.93.76-2.25,1.28s-2.45.78-2.53.59.94-.76,2.26-1.28S629.1,394.27,629.17,394.46Z" transform="translate(-61.64 -7.06)" style="fill:#263238"/><path d="M621.38,390.13c.07.19-.61.59-1.5.9s-1.68.39-1.74.2.6-.59,1.5-.9S621.32,389.93,621.38,390.13Z" transform="translate(-61.64 -7.06)" style="fill:#263238"/><path d="M622,370.29c-.05.19-1.22.08-2.58-.4s-2.34-1.13-2.25-1.31,1.18.15,2.5.61S622,370.09,622,370.29Z" transform="translate(-61.64 -7.06)" style="fill:#263238"/><path d="M640.83,368.13c.11.17-.55.8-1.48,1.42s-1.76,1-1.87.79.54-.8,1.47-1.41S640.72,368,640.83,368.13Z" transform="translate(-61.64 -7.06)" style="fill:#263238"/><path d="M641.85,377.92c0,.2-.65.51-1.55.7s-1.65.17-1.69,0,.65-.51,1.55-.69S641.81,377.72,641.85,377.92Z" transform="translate(-61.64 -7.06)" style="fill:#263238"/><path d="M643.05,388.92c-.09.19-1.09-.09-2.24-.62s-2-1.12-1.92-1.3,1.09.1,2.23.63S643.13,388.74,643.05,388.92Z" transform="translate(-61.64 -7.06)" style="fill:#263238"/><path d="M640.52,399.64c-.15.13-.8-.4-1.44-1.19s-1-1.52-.89-1.65.81.4,1.45,1.19S640.68,399.51,640.52,399.64Z" transform="translate(-61.64 -7.06)" style="fill:#263238"/><path d="M640,360.93c.12.15-.31.69-1,1.06s-1.42.39-1.47.2.48-.52,1.14-.86S639.88,360.76,640,360.93Z" transform="translate(-61.64 -7.06)" style="fill:#263238"/><path d="M649.25,370.8c.06.18-.79.65-2,.81s-2.12-.05-2.11-.25.92-.32,2-.47S649.18,370.6,649.25,370.8Z" transform="translate(-61.64 -7.06)" style="fill:#263238"/><path d="M647.41,361.94c.09.17-.76.78-2,1.16s-2.25.39-2.28.19.91-.52,2.06-.89S647.31,361.75,647.41,361.94Z" transform="translate(-61.64 -7.06)" style="fill:#263238"/><path d="M651.26,384.52c0,.2-1.45.33-3.2,0s-3.07-.95-3-1.13,1.44.1,3.13.4S651.27,384.31,651.26,384.52Z" transform="translate(-61.64 -7.06)" style="fill:#263238"/><path d="M647.83,397.39c-.12.16-1.19-.47-2.26-1.54s-1.69-2.15-1.53-2.27,1,.71,2.06,1.75S648,397.23,647.83,397.39Z" transform="translate(-61.64 -7.06)" style="fill:#263238"/><path d="M632.74,351.46a33.6,33.6,0,0,0-6.45,5.09,31.55,31.55,0,0,0-8,17.75,39.91,39.91,0,0,0,.49,10.87,79.61,79.61,0,0,0,2,8.72c.7,2.46,1.35,4.43,1.78,5.79a13.4,13.4,0,0,1,.62,2.14,12.73,12.73,0,0,1-.89-2c-.51-1.34-1.24-3.29-2-5.74a73.92,73.92,0,0,1-2.21-8.75,39.27,39.27,0,0,1-.55-11.08,31,31,0,0,1,8.39-18,22.58,22.58,0,0,1,4.81-3.75,13.74,13.74,0,0,1,1.47-.77A1.7,1.7,0,0,1,632.74,351.46Z" transform="translate(-61.64 -7.06)" style="fill:#fff"/><path d="M642.76,402.29a79.94,79.94,0,0,0,3.3-7.89,44.6,44.6,0,0,0,2-20.3,38.27,38.27,0,0,0-3.13-10.83,25.43,25.43,0,0,0-5.34-7.43,19.69,19.69,0,0,0-5.23-3.31c-1.36-.56-2.17-.7-2.16-.76a2,2,0,0,1,.6.05,10.42,10.42,0,0,1,1.66.45,18,18,0,0,1,5.47,3.18,25.11,25.11,0,0,1,5.61,7.53,37.45,37.45,0,0,1,3.25,11,43.28,43.28,0,0,1-2.21,20.57c-.42,1.27-.95,2.36-1.35,3.34s-.87,1.77-1.23,2.42A13.2,13.2,0,0,1,642.76,402.29Z" transform="translate(-61.64 -7.06)" style="fill:#fff"/><polygon points="552.65 393.5 593.17 393.5 593.42 401.61 552.65 401.61 552.65 393.5" style="fill:#263238"/><polygon points="556.09 397.55 558.42 422.31 588.04 422.31 590.42 397.82 556.09 397.55" style="fill:#263238"/><path d="M655.06,408.76c0,.21-9.13.37-20.38.37s-20.38-.16-20.38-.37,9.12-.36,20.38-.36S655.06,408.56,655.06,408.76Z" transform="translate(-61.64 -7.06)" style="fill:#455a64"/><path d="M650.94,416.31a6.39,6.39,0,0,1-.87,1.54,22.85,22.85,0,0,1-3.14,3.71l-.19.18-.18-.19a57.67,57.67,0,0,0-7.94-6.95l.44,0-3.52,3.09-4.16,3.62-.23.2-.23-.19-6.77-5.69.4,0-3.5,4.27a8.74,8.74,0,0,1-1.38,1.5,11.49,11.49,0,0,1,1.13-1.69l3.31-4.42.17-.23.23.18c2,1.61,4.3,3.49,6.86,5.57h-.46l4.15-3.65,3.53-3.07.22-.19.23.17a51.63,51.63,0,0,1,7.9,7.17h-.37A42,42,0,0,0,650.94,416.31Z" transform="translate(-61.64 -7.06)" style="fill:#455a64"/></g><g id="Pantone"><path d="M515.23,70.88l11.49,12a2,2,0,0,0,2.82.09L575.25,39a2,2,0,0,0,0-2.82l-11.49-12a2,2,0,0,0-2.82-.09l-45.7,43.9A2,2,0,0,0,515.23,70.88Z" transform="translate(-61.64 -7.06)" style="fill:#f5f5f5"/><path d="M515.23,70.88a1.7,1.7,0,0,1-.28-.34,2,2,0,0,1-.31-1.27,2.05,2.05,0,0,1,.31-.92,7.05,7.05,0,0,1,.81-.85l2.08-2,13.28-12.84c5.63-5.41,12.32-11.86,19.74-19l5.71-5.49,2.95-2.84c.51-.48,1-1,1.52-1.44a2.18,2.18,0,0,1,2.16-.23,2.48,2.48,0,0,1,.88.67l.74.77,1.48,1.54,3,3.11,6.1,6.35a2.21,2.21,0,0,1,.51,2.24,2.26,2.26,0,0,1-.67,1l-.8.77-3.16,3L565.1,49,553.42,60.22l-19.8,19-4,3.84a2.09,2.09,0,0,1-2.5.24,4.39,4.39,0,0,1-.92-.84l-.81-.85-5.49-5.76-3.46-3.64c-.38-.42-.68-.73-.89-1l-.3-.33s.12.1.33.31.52.52.91.93l3.51,3.6c1.52,1.57,3.37,3.49,5.53,5.71l.82.85a5,5,0,0,0,.87.8,1.89,1.89,0,0,0,2.25-.22l4-3.86,19.74-19,11.67-11.22L571,42.83l3.16-3L575,39a2,2,0,0,0,.58-.83,1.88,1.88,0,0,0-.43-1.89L569,30l-3-3.12-1.48-1.53-.73-.77a2.34,2.34,0,0,0-.78-.6,1.83,1.83,0,0,0-1.81.19c-.49.43-1,.95-1.5,1.41l-3,2.84-5.71,5.48-19.8,19L517.93,65.58l-2.1,2a6.09,6.09,0,0,0-.8.82,1.79,1.79,0,0,0-.32.88,2,2,0,0,0,.27,1.24C515.13,70.77,515.24,70.87,515.23,70.88Z" transform="translate(-61.64 -7.06)" style="fill:#263238"/><rect x="557.73" y="27.41" width="11.58" height="16.89" transform="translate(73 396.08) rotate(-44.22)" style="fill:#e8505b"/><rect x="530.7" y="53.71" width="11.58" height="16.89" transform="translate(47 384.68) rotate(-44.22)" style="fill:#e8505b"/><rect x="539.72" y="44.94" width="11.58" height="16.89" transform="translate(55.67 388.48) rotate(-44.22)" style="fill:#e8505b"/><rect x="548.75" y="36.15" width="11.58" height="16.89" transform="translate(64.36 392.29) rotate(-44.22)" style="fill:#e8505b"/><g style="opacity:0.8"><rect x="557.73" y="27.41" width="11.58" height="16.89" transform="translate(73 396.08) rotate(-44.22)"/></g><g style="opacity:0.5"><rect x="530.7" y="53.71" width="11.58" height="16.89" transform="translate(47 384.68) rotate(-44.22)"/></g><g style="opacity:0.6000000000000001"><rect x="539.72" y="44.94" width="11.58" height="16.89" transform="translate(55.67 388.48) rotate(-44.22)"/></g><g style="opacity:0.7000000000000001"><rect x="548.75" y="36.15" width="11.58" height="16.89" transform="translate(64.36 392.29) rotate(-44.22)"/></g><path d="M516,68.83l8,14.51a2,2,0,0,0,2.68.83l54.67-30.23a2,2,0,0,0,.72-2.71l-8-14.51a2,2,0,0,0-2.68-.82L516.73,66.12A2,2,0,0,0,516,68.83Z" transform="translate(-61.64 -7.06)" style="fill:#f5f5f5"/><path d="M516,68.83a1.28,1.28,0,0,1-.19-.4,2,2,0,0,1,.53-2.09,5.55,5.55,0,0,1,1-.61l2.5-1.4,16-8.89,23.71-13.15,6.85-3.8,3.54-2,.9-.5a4.93,4.93,0,0,1,1-.46,2.16,2.16,0,0,1,2.08.55,3.26,3.26,0,0,1,.61.9l.51.91,1,1.85L578,43.51l4.22,7.63a2.22,2.22,0,0,1-.06,2.28,2.28,2.28,0,0,1-.88.76l-1,.53-3.79,2.09-7.41,4.1-14,7.74L531.39,81.72c-1.7.93-3.28,1.82-4.84,2.65a2.11,2.11,0,0,1-2.4-.66c-.47-.72-.8-1.41-1.18-2.08l-3.78-6.9-2.38-4.36c-.26-.5-.46-.88-.61-1.14s-.19-.4-.19-.4l.23.38.64,1.12,2.43,4.33,3.83,6.87c.38.66.74,1.4,1.17,2a1.9,1.9,0,0,0,2.16.58c1.51-.81,3.12-1.73,4.8-2.66L555,68.36l14-7.76,7.41-4.1,3.79-2.1,1-.53a1.91,1.91,0,0,0,.76-.64,1.89,1.89,0,0,0,.05-1.92c-1.43-2.57-2.83-5.12-4.22-7.63L575.67,40l-1-1.85-.51-.92a3.27,3.27,0,0,0-.55-.82,1.81,1.81,0,0,0-1.74-.46,4.26,4.26,0,0,0-.89.43l-.9.5-3.54,2-6.86,3.79L535.92,55.65l-16,8.8-2.51,1.37a6.35,6.35,0,0,0-1,.59,2,2,0,0,0-.52.76,2.07,2.07,0,0,0,0,1.25C515.94,68.7,516,68.83,516,68.83Z" transform="translate(-61.64 -7.06)" style="fill:#263238"/><rect x="564.34" y="40.29" width="11.58" height="16.89" transform="translate(-12.63 278) rotate(-29.28)" style="fill:#e8505b"/><rect x="531.44" y="58.74" width="11.58" height="16.89" transform="translate(-25.86 264.27) rotate(-29.28)" style="fill:#e8505b"/><rect x="542.42" y="52.58" width="11.58" height="16.89" transform="translate(-21.44 268.86) rotate(-29.28)" style="fill:#e8505b"/><rect x="553.41" y="46.42" width="11.58" height="16.89" transform="translate(-17.03 273.44) rotate(-29.28)" style="fill:#e8505b"/><g style="opacity:0.5"><rect x="564.34" y="40.29" width="11.58" height="16.89" transform="translate(-12.63 278) rotate(-29.28)"/></g><g style="opacity:0.2"><rect x="531.44" y="58.74" width="11.58" height="16.89" transform="translate(-25.86 264.27) rotate(-29.28)"/></g><g style="opacity:0.30000000000000004"><rect x="542.42" y="52.58" width="11.58" height="16.89" transform="translate(-21.44 268.86) rotate(-29.28)"/></g><g style="opacity:0.4"><rect x="553.41" y="46.42" width="11.58" height="16.89" transform="translate(-17.03 273.44) rotate(-29.28)"/></g><path d="M514,68.7l3.54,16.2A2,2,0,0,0,520,86.44l64.11-14A2,2,0,0,0,585.64,70l-3.54-16.2a2,2,0,0,0-2.43-1.54l-64.11,14A2,2,0,0,0,514,68.7Z" transform="translate(-61.64 -7.06)" style="fill:#f5f5f5"/><path d="M514,68.7a1.76,1.76,0,0,1-.06-.45,2,2,0,0,1,.44-1.26,2.06,2.06,0,0,1,.79-.61,8.47,8.47,0,0,1,1.16-.31l2.91-.65,18.53-4.11,27.5-6.05,8-1.74,4.11-.9,2.08-.45a2.52,2.52,0,0,1,1.13-.07,2.21,2.21,0,0,1,1,.51,2.12,2.12,0,0,1,.64,1c.11.38.17.71.25,1.08.15.71.31,1.42.47,2.14.31,1.43.63,2.87,1,4.33.63,2.91,1.28,5.86,1.93,8.84a2.2,2.2,0,0,1-.81,2.21,2.58,2.58,0,0,1-1.11.47l-1.11.24-4.4,1-8.59,1.87-16.25,3.54-27.52,6-5.59,1.21c-.22,0-.43.1-.67.13a2,2,0,0,1-.69,0,2.13,2.13,0,0,1-1.16-.67,2.38,2.38,0,0,1-.53-1.18c-.08-.4-.17-.8-.25-1.19l-1.72-8c-.46-2.19-.82-3.89-1.07-5q-.17-.85-.27-1.32c-.06-.29-.08-.45-.08-.45s0,.15.12.45l.3,1.3c.26,1.17.64,2.86,1.14,5s1.08,4.87,1.77,8c.08.39.17.79.26,1.19a2.06,2.06,0,0,0,.49,1.08,1.89,1.89,0,0,0,1,.6,2.64,2.64,0,0,0,1.27-.1L526,85l27.5-6,16.25-3.56,8.59-1.88,4.4-1,1.1-.25a2.1,2.1,0,0,0,1-.39,1.86,1.86,0,0,0,.69-1.86c-.65-3-1.3-5.94-1.93-8.85-.32-1.45-.64-2.9-.95-4.33-.16-.72-.31-1.43-.47-2.14-.08-.35-.15-.73-.23-1a1.87,1.87,0,0,0-.54-.81,1.94,1.94,0,0,0-1.87-.37l-2.09.45-4.11.9-7.95,1.73-27.51,6-18.56,4-2.92.62a7.71,7.71,0,0,0-1.15.29,2.18,2.18,0,0,0-.77.57,2,2,0,0,0-.45,1.22C514,68.55,514,68.7,514,68.7Z" transform="translate(-61.64 -7.06)" style="fill:#263238"/><path d="M513.86,68.77c0,.06-.81,0-2.22.27a11.82,11.82,0,0,0-5.37,2.56,11.41,11.41,0,0,0-4,7.65,11.26,11.26,0,0,0,9,12,11.46,11.46,0,0,0,5.16-.18,11.32,11.32,0,0,0,6.83-5.26,11.58,11.58,0,0,0,1.56-5.74c0-.36,0-.67,0-1s0-.51-.07-.7a2.12,2.12,0,0,1,0-.58s.08.18.17.56c0,.19.1.42.14.69s.06.61.09,1a11.31,11.31,0,0,1-1.4,6A11.74,11.74,0,0,1,521,89.36a11.75,11.75,0,0,1-15.12,0,12.17,12.17,0,0,1-2-2.2,11.79,11.79,0,0,1,2.16-16,11.73,11.73,0,0,1,5.65-2.44,11,11,0,0,1,1.68-.08A1.7,1.7,0,0,1,513.86,68.77Z" transform="translate(-61.64 -7.06)" style="fill:#263238"/><path d="M526.55,75.27a2.52,2.52,0,1,1-3-1.93A2.53,2.53,0,0,1,526.55,75.27Z" transform="translate(-61.64 -7.06)" style="fill:#263238"/><rect x="570.49" y="55.49" width="11.58" height="16.89" transform="translate(-62 117.45) rotate(-12.33)" style="fill:#e8505b"/><rect x="558.25" y="58.16" width="11.58" height="16.89" transform="translate(-62.85 114.89) rotate(-12.33)" style="fill:#e8505b"/><rect x="545.94" y="60.85" width="11.58" height="16.89" transform="translate(-63.71 112.33) rotate(-12.33)" style="fill:#e8505b"/><rect x="533.64" y="63.54" width="11.58" height="16.89" transform="translate(-64.57 109.77) rotate(-12.33)" style="fill:#e8505b"/><g style="opacity:0.8"><rect x="533.64" y="63.54" width="11.58" height="16.89" transform="translate(-64.57 109.77) rotate(-12.33)" style="fill:#fff"/></g><g style="opacity:0.6000000000000001"><rect x="545.94" y="60.85" width="11.58" height="16.89" transform="translate(-63.71 112.33) rotate(-12.33)" style="fill:#fff"/></g><g style="opacity:0.4"><rect x="558.25" y="58.16" width="11.58" height="16.89" transform="translate(-62.85 114.89) rotate(-12.33)" style="fill:#fff"/></g></g><g id="Arrow"><polygon points="168.59 29.29 171.72 45.92 174.3 41.28 179.83 49.56 182.6 47.7 177.06 39.41 182.14 38.63 168.59 29.29" style="fill:#263238"/></g></svg>