<svg id="Graphics" xmlns="http://www.w3.org/2000/svg" xmlns:xlink="http://www.w3.org/1999/xlink" viewBox="0 0 753.77 616.63"><defs><clipPath id="clip-path" transform="translate(-10.03 -10.03)"><path d="M135.48,133.33,57.83,178.46A48.92,48.92,0,0,1,81.15,172l77.65-45.14A49.15,49.15,0,0,0,135.48,133.33Z" style="fill:none"/></clipPath><clipPath id="clip-path-2" transform="translate(-10.03 -10.03)"><path d="M198.61,414.14,276.27,369c7.71-5.3,14-13,18.33-23l-77.66,45.13C212.57,401.12,206.32,408.85,198.61,414.14Z" style="fill:#828282"/></clipPath><clipPath id="clip-path-3" transform="translate(-10.03 -10.03)"><path d="M147.56,199.8l77.65-45.13a153.2,153.2,0,0,0-17.44-12.53c-1-.63-2.05-1.25-3.07-1.84a118.5,118.5,0,0,0-14.52-7.15l-77.65,45.13a117.08,117.08,0,0,1,14.52,7.15c1,.59,2,1.2,3.07,1.84A153.74,153.74,0,0,1,147.56,199.8Z" style="fill:none"/></clipPath><clipPath id="clip-path-4" transform="translate(-10.03 -10.03)"><path d="M204,273.45l77.65-45.13c-1.93-4-4-7.93-6.13-11.84a234.8,234.8,0,0,0-19.73-30L178.13,231.6a235.74,235.74,0,0,1,19.73,30C200,265.52,202.07,269.48,204,273.45Z" style="fill:none"/></clipPath><clipPath id="clip-path-5" transform="translate(-10.03 -10.03)"><path d="M360,312.54l-77.65,45.13a49,49,0,0,1,23.31-6.48l77.66-45.13A49.07,49.07,0,0,0,360,312.54Z" style="fill:none"/></clipPath><clipPath id="clip-path-6" transform="translate(-10.03 -10.03)"><path d="M423.1,593.35l77.66-45.13c7.71-5.3,14-13,18.32-23l-77.65,45.13C437.06,580.32,430.81,588.05,423.1,593.35Z" style="fill:#828282"/></clipPath><clipPath id="clip-path-7" transform="translate(-10.03 -10.03)"><path d="M372,379l77.66-45.13a153.3,153.3,0,0,0-17.44-12.54c-1-.63-2.05-1.25-3.07-1.83a115.69,115.69,0,0,0-14.52-7.15L337,357.49a116.39,116.39,0,0,1,14.52,7.15c1,.59,2,1.2,3.08,1.83A152.86,152.86,0,0,1,372,379Z" style="fill:none"/></clipPath><clipPath id="clip-path-8" transform="translate(-10.03 -10.03)"><path d="M428.49,452.66l77.65-45.13c-1.93-4-4-7.93-6.14-11.84a233.86,233.86,0,0,0-19.73-30L402.62,410.8a235.74,235.74,0,0,1,19.73,30C424.5,444.72,426.55,448.69,428.49,452.66Z" style="fill:none"/></clipPath><clipPath id="clip-path-9" transform="translate(-10.03 -10.03)"><path d="M308.74,118.49l-46.17,26.84a29.18,29.18,0,0,1,13.86-3.85l46.18-26.84A29.26,29.26,0,0,0,308.74,118.49Z" style="fill:none"/></clipPath><clipPath id="clip-path-10" transform="translate(-10.03 -10.03)"><path d="M346.28,285.47l46.18-26.83A31.58,31.58,0,0,0,403.36,245L357.18,271.8A31.55,31.55,0,0,1,346.28,285.47Z" style="fill:#828282"/></clipPath><clipPath id="clip-path-11" transform="translate(-10.03 -10.03)"><path d="M315.93,158l46.17-26.84a92,92,0,0,0-10.37-7.45l-1.82-1.09a70.15,70.15,0,0,0-8.64-4.25l-46.18,26.83a68.89,68.89,0,0,1,8.64,4.26c.6.34,1.21.71,1.82,1.09A90.9,90.9,0,0,1,315.93,158Z" style="fill:none"/></clipPath><clipPath id="clip-path-12" transform="translate(-10.03 -10.03)"><path d="M349.49,201.82,395.67,175c-1.16-2.36-2.38-4.72-3.66-7a137.75,137.75,0,0,0-11.73-17.84l-46.17,26.83a140,140,0,0,1,11.73,17.85C347.12,197.09,348.34,199.45,349.49,201.82Z" style="fill:none"/></clipPath><clipPath id="clip-path-13" transform="translate(-10.03 -10.03)"><path d="M611.22,567.61l47.43-27.39c6.76-4.65,12.25-11.44,16.08-20.19L627.3,547.42C623.46,556.18,618,563,611.22,567.61Z" style="fill:#828282"/></clipPath><clipPath id="clip-path-14" transform="translate(-10.03 -10.03)"><path d="M566.4,379.49l47.43-27.4a134.45,134.45,0,0,0-15.3-11c-.92-.55-1.8-1.09-2.7-1.61a104.7,104.7,0,0,0-12.74-6.28l-47.44,27.4a101.29,101.29,0,0,1,12.75,6.28c.89.51,1.79,1.05,2.69,1.61A132.46,132.46,0,0,1,566.4,379.49Z" style="fill:none"/></clipPath><clipPath id="clip-path-15" transform="translate(-10.03 -10.03)"><path d="M616,444.13l47.42-27.4c-1.7-3.47-3.49-7-5.38-10.39A206.1,206.1,0,0,0,640.67,380L593.24,407.4a207.29,207.29,0,0,1,17.32,26.34C612.45,437.16,614.24,440.65,616,444.13Z" style="fill:none"/></clipPath><clipPath id="clip-path-16" transform="translate(-10.03 -10.03)"><path d="M458.91,234.41c2-.23,60.34,1.33,60.34,1.33l-12.91,68.57,3.78,26.55s-4.57,3.3-5.37,4-1.44,2.79,4.71,24.32-33.85,16.56-33.85,16.56S366.3,347.51,366.74,346.39s39.41-78.15,40.74-78.59S458.91,234.41,458.91,234.41Z" style="fill:none"/></clipPath></defs><title>hero</title><g style="isolation:isolate"><path d="M137.85,436.62l77.66-45.12a3.7,3.7,0,0,0,1.57-3.29l-77.65,45.13a3.7,3.7,0,0,1-1.58,3.28Z" transform="translate(-10.03 -10.03)" style="fill:#727272"/></g><path d="M89.3,187.65a3.49,3.49,0,0,1,3.12,0l14.81,6.09L29.58,238.85l-14.81-6.09a3.53,3.53,0,0,0-3.12,0Z" transform="translate(-10.03 -10.03)" style="fill:#999"/><path d="M140,415.67l-.53,17.67a3.7,3.7,0,0,1-1.58,3.28l77.66-45.12a3.7,3.7,0,0,0,1.57-3.29l.53-17.67Z" transform="translate(-10.03 -10.03)" style="fill:#898988"/><path d="M112.35,117.36c4.41-2.56,10.22,7.4,19,18.69L53.67,181.18c-8.3-10-14.48-21.26-19.13-18.56C60.42,147.58,86.46,132.4,112.35,117.36Z" transform="translate(-10.03 -10.03)" style="fill:#898988"/><path d="M69.49,198.59l77.65-45.13c-13.9,8.07-22.69,25-23.41,49.13-2.54,83,86.76,177.88,138,148.11l-77.65,45.13c-50.85,29.55-140.55-64.57-138-148.11C46.8,223.57,55.59,206.66,69.49,198.59Z" transform="translate(-10.03 -10.03)" style="fill:#898988"/><path d="M208,433.3l-9.36-19.16L276.27,369l9.36,19.17c1.73,3.55,1.52,7-.41,8.1l-77.66,45.14C209.49,440.29,209.7,436.85,208,433.3Z" transform="translate(-10.03 -10.03)" style="fill:#898988"/><g style="isolation:isolate"><g style="clip-path:url(#clip-path)"><g style="isolation:isolate"><path d="M81.15,172l77.65-45.14a49.15,49.15,0,0,0-23.32,6.48L57.83,178.46A48.92,48.92,0,0,1,81.15,172Z" transform="translate(-10.03 -10.03)" style="fill:#999"/></g></g></g><g style="isolation:isolate"><path d="M198.61,414.14,276.27,369c7.71-5.3,14-13,18.33-23l-77.66,45.13C212.57,401.12,206.32,408.85,198.61,414.14Z" transform="translate(-10.03 -10.03)" style="fill:#828282"/><g style="clip-path:url(#clip-path-2)"><path d="M198.61,414.14,276.27,369c7.71-5.3,14-13,18.33-23l-77.66,45.13c-4.37,10-10.62,17.71-18.33,23Z" transform="translate(-10.03 -10.03)" style="fill:#999"/></g></g><path d="M155.76,103.2a3,3,0,0,1,2.21-.27l20.9,4.13-77.65,45.12-20.91-4.13a3,3,0,0,0-2.21.29Z" transform="translate(-10.03 -10.03)" style="fill:#bcbcbc"/><path d="M185.81,115.11c-.77-3.18-3.71-7.42-6.94-8l-77.65,45.12c3.1.61,6.11,4.75,6.93,8.06l4.38,18,77.65-45.13Z" transform="translate(-10.03 -10.03)" style="fill:#898988"/><path d="M238.22,402.06l4.54-22.15,77.66-45.14-4.55,22.16a3.3,3.3,0,0,1-1.49,2.29l-77.65,45.13A3.34,3.34,0,0,0,238.22,402.06Z" transform="translate(-10.03 -10.03)" style="fill:#999"/><path d="M223.91,358l77.66-45.13C313.93,323,319.26,325.81,320.36,332c0,.17.05.33.07.5a7,7,0,0,1,0,2.24l-77.66,45.14a7,7,0,0,0,0-2.24c0-.17,0-.34-.07-.52C241.67,371.35,236.83,368.58,223.91,358Z" transform="translate(-10.03 -10.03)" style="fill:#898988"/><g style="isolation:isolate"><g style="clip-path:url(#clip-path-3)"><path d="M190.18,133.15c12.56,5.1,24.39,12.76,35,21.52L147.56,199.8c-10.53-8.67-22.3-16.35-35-21.52Z" transform="translate(-10.03 -10.03)" style="fill:#999"/></g></g><path d="M297,270.74l-77.66,45.13A155.49,155.49,0,0,1,224,356.82c0,.4-.06.77-.06,1.19l77.66-45.13c0-.42,0-.79.06-1.19A156.38,156.38,0,0,0,297,270.74Z" transform="translate(-10.03 -10.03)" style="fill:#999"/><g style="isolation:isolate"><g style="clip-path:url(#clip-path-4)"><path d="M275.52,216.48c-.57-1-1.14-2-1.72-3a234.45,234.45,0,0,0-18-27L178.13,231.6a234.15,234.15,0,0,1,18,27c.58,1,1.16,2,1.72,3.06,2.16,3.9,4.21,7.86,6.14,11.83l77.65-45.13C279.72,224.36,277.67,220.39,275.52,216.48Z" transform="translate(-10.03 -10.03)" style="fill:#999"/></g></g><path d="M231.75,141.12a3.94,3.94,0,0,1,3.92.38c1.82,1.05,21,21.29,22.43,22.8l-77.65,45.12c-17.24-17.88-22.4-25.47-26.36-23.17Z" transform="translate(-10.03 -10.03)" style="fill:#bcbcbc"/><path d="M183.46,219.39a5.11,5.11,0,0,0,.38-2c0-.21,0-.43,0-.65a10.14,10.14,0,0,0-.29-1.75c-.06-.23-.11-.46-.18-.69a12.79,12.79,0,0,0-1.05-2.38,13.14,13.14,0,0,0-1.84-2.49L258.1,164.3a12.3,12.3,0,0,1,1.84,2.47l0,0a13.29,13.29,0,0,1,1,2.37c.07.23.12.44.17.67a8.73,8.73,0,0,1,.29,1.76,4.86,4.86,0,0,1,0,.65,5.07,5.07,0,0,1-.37,2l-5.33,12.22L178.13,231.6Z" transform="translate(-10.03 -10.03)" style="fill:#898988"/><path d="M234.54,308.08l-10.35-28.25,77.65-45.13L312.2,263c1.16,3.17.69,5.93-1,6.9L233.57,315C235.24,314,235.7,311.27,234.54,308.08Z" transform="translate(-10.03 -10.03)" style="fill:#bcbcbc"/><path d="M223.27,277.85a12.73,12.73,0,0,1,.92,2l77.65-45.13a12,12,0,0,0-.9-2l0-.05c-.07-.1-.14-.18-.2-.28-1.32-2.15-3.79-4.67-6.3-4.59l-12.77.5L204,273.45c12.59-.49,13.41-1.41,16.45,1.05a10.94,10.94,0,0,1,1,.94A11.13,11.13,0,0,1,223.27,277.85Z" transform="translate(-10.03 -10.03)" style="fill:#898988"/><g style="isolation:isolate"><path d="M362.34,615.83,440,570.7a3.69,3.69,0,0,0,1.58-3.28l-77.66,45.13a3.68,3.68,0,0,1-1.57,3.28Z" transform="translate(-10.03 -10.03)" style="fill:#727272"/></g><path d="M313.79,366.85a3.49,3.49,0,0,1,3.12,0l14.81,6.08-77.65,45.13L239.26,412a3.48,3.48,0,0,0-3.13,0Z" transform="translate(-10.03 -10.03)" style="fill:#999"/><path d="M364.44,594.88l-.53,17.67a3.68,3.68,0,0,1-1.57,3.28L440,570.7a3.69,3.69,0,0,0,1.58-3.28l.53-17.68Z" transform="translate(-10.03 -10.03)" style="fill:#898988"/><path d="M336.84,296.57c4.41-2.57,10.22,7.39,19,18.69l-77.65,45.13c-8.3-10-14.48-21.26-19.14-18.56C284.91,326.78,311,311.6,336.84,296.57Z" transform="translate(-10.03 -10.03)" style="fill:#898988"/><path d="M294,377.79l77.66-45.13c-13.89,8.08-22.7,25-23.42,49.13-2.53,83,86.77,177.88,138,148.11L408.55,575c-50.85,29.55-140.55-64.58-138-148.11C271.28,402.77,280.08,385.87,294,377.79Z" transform="translate(-10.03 -10.03)" style="fill:#898988"/><path d="M432.46,612.5l-9.36-19.15,77.66-45.13,9.35,19.16c1.74,3.55,1.52,7-.41,8.11l-77.65,45.13C434,619.49,434.19,616.05,432.46,612.5Z" transform="translate(-10.03 -10.03)" style="fill:#898988"/><g style="isolation:isolate"><g style="clip-path:url(#clip-path-5)"><g style="isolation:isolate"><path d="M305.63,351.19l77.66-45.13A49.07,49.07,0,0,0,360,312.54l-77.65,45.13a49,49,0,0,1,23.31-6.48Z" transform="translate(-10.03 -10.03)" style="fill:#999"/></g></g></g><g style="isolation:isolate"><path d="M423.1,593.35l77.66-45.13c7.71-5.3,14-13,18.32-23l-77.65,45.13C437.06,580.32,430.81,588.05,423.1,593.35Z" transform="translate(-10.03 -10.03)" style="fill:#828282"/><g style="clip-path:url(#clip-path-6)"><path d="M423.1,593.35l77.66-45.13c7.71-5.3,14-13,18.32-23l-77.65,45.13c-4.37,10-10.62,17.71-18.33,23Z" transform="translate(-10.03 -10.03)" style="fill:#999"/></g></g><path d="M380.24,282.41a3.07,3.07,0,0,1,2.22-.28l20.9,4.14L325.7,331.39l-20.9-4.13a3,3,0,0,0-2.21.28Z" transform="translate(-10.03 -10.03)" style="fill:#bcbcbc"/><path d="M410.3,294.31c-.77-3.17-3.72-7.42-6.94-8L325.7,331.39c3.11.6,6.12,4.74,6.94,8.05L337,357.49l77.66-45.13Z" transform="translate(-10.03 -10.03)" style="fill:#898988"/><path d="M462.7,581.27l4.55-22.16L544.9,514l-4.54,22.16a3.3,3.3,0,0,1-1.49,2.28l-77.65,45.14A3.33,3.33,0,0,0,462.7,581.27Z" transform="translate(-10.03 -10.03)" style="fill:#999"/><path d="M448.4,537.21l77.65-45.12c12.37,10.12,17.7,12.92,18.8,19.14,0,.18,0,.34.07.5a7,7,0,0,1,0,2.25l-77.65,45.13a7.28,7.28,0,0,0,0-2.24c0-.17,0-.34-.07-.51C466.16,550.56,461.32,547.79,448.4,537.21Z" transform="translate(-10.03 -10.03)" style="fill:#898988"/><g style="isolation:isolate"><g style="clip-path:url(#clip-path-7)"><path d="M414.67,312.36c12.55,5.09,24.39,12.75,35,21.52L372,379c-10.52-8.67-22.3-16.36-35-21.52Z" transform="translate(-10.03 -10.03)" style="fill:#999"/></g></g><path d="M456.23,320.32a4,4,0,0,1,3.93.39c1.82,1,21,21.28,22.43,22.8l-77.85,45.26c-5.28-5.48-9.72-9.85-13-13.42-7.1-7.66-10.37-11.49-13.12-9.89Z" transform="translate(-10.03 -10.03)" style="fill:#bcbcbc"/><path d="M521.5,450l-77.66,45.12A155.58,155.58,0,0,1,448.46,536c0,.4-.06.78-.06,1.19l77.65-45.12c0-.42,0-.79.06-1.19A155.89,155.89,0,0,0,521.5,450Z" transform="translate(-10.03 -10.03)" style="fill:#999"/><g style="isolation:isolate"><g style="clip-path:url(#clip-path-8)"><path d="M500,395.69c-.56-1-1.13-2-1.71-3.05a234.21,234.21,0,0,0-18-27L402.62,410.8a235.59,235.59,0,0,1,18,27c.57,1,1.16,2,1.72,3.05,2.15,3.9,4.2,7.87,6.14,11.84l77.65-45.13C504.21,403.57,502.16,399.6,500,395.69Z" transform="translate(-10.03 -10.03)" style="fill:#999"/></g></g><path d="M408,398.6a5.14,5.14,0,0,0,.37-2c0-.21,0-.44,0-.66a10.3,10.3,0,0,0-.29-1.75c-.06-.23-.11-.45-.18-.69a13.09,13.09,0,0,0-1.05-2.38,12.76,12.76,0,0,0-1.84-2.48l77.65-45.12a12,12,0,0,1,1.84,2.47s0,0,0,0a12.25,12.25,0,0,1,1,2.36,6.08,6.08,0,0,1,.18.67,9.46,9.46,0,0,1,.29,1.77c0,.22,0,.43,0,.64a5.35,5.35,0,0,1-.37,2l-5.34,12.21L402.62,410.8Z" transform="translate(-10.03 -10.03)" style="fill:#898988"/><path d="M459,487.29,448.68,459l77.65-45.13,10.35,28.27c1.17,3.17.7,5.92-1,6.9l-77.65,45.12C459.73,493.23,460.19,490.47,459,487.29Z" transform="translate(-10.03 -10.03)" style="fill:#bcbcbc"/><path d="M447.76,457.06a12.62,12.62,0,0,1,.92,2l77.65-45.13a11.63,11.63,0,0,0-.91-2,.05.05,0,0,0,0,0c-.06-.11-.14-.18-.2-.29-1.32-2.15-3.78-4.67-6.29-4.59l-12.77.51-77.65,45.13c12.59-.49,13.4-1.41,16.45,1a9.64,9.64,0,0,1,1,.94A11.13,11.13,0,0,1,447.76,457.06Z" transform="translate(-10.03 -10.03)" style="fill:#898988"/><path d="M254.07,418.05v-1.23c.4-13.17,2.8-24.51,6.83-33.94l-12.36-16c-2.58-3.33-3.35-7.67-1.75-9.72l11.63-14.83c1.05-1.31,2.85-1.32,4.69-.25a11.13,11.13,0,0,1,3,2.59l12.15,15.7a48,48,0,0,1,27.41-9.2l-4.37-18c-.95-3.85.64-6.53,3.54-5.92l20.9,4.13a5.56,5.56,0,0,1,1.73.68,12.25,12.25,0,0,1,5.21,7.37L337,357.49a116.39,116.39,0,0,1,14.52,7.15c1,.59,2,1.2,3.08,1.83A152.86,152.86,0,0,1,372,379l5.33-12.15c.87-2,2.95-2.28,5.14-1a9.09,9.09,0,0,1,2,1.63l20.41,21.16c2.81,2.92,4.17,7.4,3,10l-5.33,12.2a235.74,235.74,0,0,1,19.73,30c2.15,3.9,4.2,7.87,6.14,11.84l12.76-.5a4.83,4.83,0,0,1,2.6.75,11.91,11.91,0,0,1,4.83,6.12L459,487.29c1.42,3.9.4,7.16-2.28,7.27l-12.91.51A155.58,155.58,0,0,1,448.46,536c0,.4-.06.78-.06,1.19l14.62,12c3,2.43,4.86,6.86,4.23,9.93l-4.55,22.16c-.57,2.66-2.85,3.37-5.38,1.91a9.32,9.32,0,0,1-1.13-.79l-14.76-12c-4.37,10-10.62,17.71-18.33,23l9.36,19.15c1.88,3.84,1.47,7.56-.93,8.35l-17.32,5.67a4.33,4.33,0,0,1-3.41-.62,11.7,11.7,0,0,1-4.32-4.91L397,601.62c-9.93.37-20.91-1.83-32.57-6.74l-.53,17.67c-.09,3.35-2.54,4.65-5.67,2.84l-22-13.5a12.12,12.12,0,0,1-5.33-9.59l.57-17.64a198,198,0,0,1-31.7-32.75l-10.37,7.33c-1.09.76-2.59.6-4.1-.28a11.05,11.05,0,0,1-3.67-3.72l-16.35-26.32c-2.25-3.6-2.44-7.72-.4-9.14l10.31-7.26a214.41,214.41,0,0,1-16.37-44.13l-15-6.17a6.11,6.11,0,0,1-.77-.38,12.37,12.37,0,0,1-5.44-8.57l-3.07-26.83c-.41-3.7,1.67-5.7,4.69-4.47ZM292.23,506c14.72,26.58,34.7,48.5,56.25,61.72.83.51,1.66,1,2.48,1.47,44,25.39,79.49,6.36,81-43.31.75-24.37-7-52.42-21.67-79S375.6,398.35,354,385.13c-.87-.54-1.71-1.06-2.56-1.55-43.86-25.33-79.43-6.29-80.92,43.35-.75,24.37,6.95,52.46,21.67,79.07Z" transform="translate(-10.03 -10.03)" style="fill:#d6d6d6"/><path d="M29.58,238.85v-1.23c.4-13.18,2.81-24.52,6.84-34l-12.36-16c-2.59-3.34-3.37-7.68-1.75-9.73l11.62-14.82c1-1.32,2.85-1.33,4.7-.26a11.63,11.63,0,0,1,2.95,2.59l12.16,15.7A48,48,0,0,1,81.15,172l-4.38-18c-.94-3.84.64-6.52,3.54-5.92l20.91,4.13a6,6,0,0,1,1.73.68,12.3,12.3,0,0,1,5.2,7.38l4.38,18a117.08,117.08,0,0,1,14.52,7.15c1,.59,2,1.2,3.07,1.84a153.74,153.74,0,0,1,17.44,12.53l5.33-12.14c.87-2,2.94-2.29,5.13-1a9.67,9.67,0,0,1,2,1.63l20.4,21.16c2.81,2.92,4.18,7.41,3,10l-5.33,12.21a235.74,235.74,0,0,1,19.73,30c2.16,3.9,4.21,7.86,6.14,11.83l12.77-.5a4.88,4.88,0,0,1,2.59.75,11.94,11.94,0,0,1,4.83,6.13l10.35,28.25c1.42,3.9.4,7.16-2.28,7.27l-12.91.52A155.49,155.49,0,0,1,224,356.82c0,.4-.06.77-.06,1.19l14.62,12c3,2.42,4.86,6.85,4.23,9.93l-4.54,22.15c-.57,2.66-2.86,3.38-5.39,1.92a9.32,9.32,0,0,1-1.13-.79l-14.76-12.05c-4.37,10-10.62,17.71-18.33,23L208,433.3c1.88,3.84,1.47,7.56-.92,8.34l-17.33,5.68a4.38,4.38,0,0,1-3.41-.63,11.67,11.67,0,0,1-4.32-4.9l-9.47-19.37c-9.93.36-20.91-1.83-32.56-6.75l-.53,17.67c-.1,3.35-2.55,4.65-5.68,2.84l-22-13.49a12.09,12.09,0,0,1-5.33-9.59l.56-17.65a197.68,197.68,0,0,1-31.7-32.76L64.94,370c-1.08.76-2.59.61-4.1-.28A10.85,10.85,0,0,1,57.18,366L40.82,339.71c-2.24-3.59-2.43-7.72-.4-9.14l10.31-7.25a214.84,214.84,0,0,1-16.37-44.13l-15-6.18a7.82,7.82,0,0,1-.77-.38,12.36,12.36,0,0,1-5.43-8.57l-3.08-26.82c-.41-3.7,1.68-5.7,4.69-4.48Zm38.16,87.94c14.72,26.57,34.7,48.5,56.25,61.73l2.49,1.47c44,25.38,79.48,6.36,81-43.31.76-24.38-6.95-52.43-21.67-79s-34.7-48.51-56.25-61.73c-.88-.53-1.72-1.06-2.57-1.55-43.86-25.32-79.43-6.28-80.92,43.35-.74,24.38,7,52.47,21.67,79.07Z" transform="translate(-10.03 -10.03)" style="fill:#d6d6d6"/><g style="isolation:isolate"><path d="M310.15,298.84,356.33,272a2.21,2.21,0,0,0,.94-1.95l-46.18,26.83a2.2,2.2,0,0,1-.94,1.95Z" transform="translate(-10.03 -10.03)" style="fill:#727272"/></g><path d="M281.28,150.79a2.08,2.08,0,0,1,1.86,0L292,154.4l-46.18,26.84L237,177.62a2.06,2.06,0,0,0-1.85,0Z" transform="translate(-10.03 -10.03)" style="fill:#999"/><path d="M311.41,286.38l-.32,10.51a2.2,2.2,0,0,1-.94,1.95L356.33,272a2.21,2.21,0,0,0,.94-1.95l.31-10.51Z" transform="translate(-10.03 -10.03)" style="fill:#898988"/><path d="M295,109c2.62-1.52,6.08,4.4,11.28,11.11L260.09,147c-4.93-5.93-8.61-12.65-11.37-11C264.11,127,279.59,117.94,295,109Z" transform="translate(-10.03 -10.03)" style="fill:#898988"/><path d="M269.5,157.3l46.18-26.84c-8.27,4.8-13.49,14.86-13.92,29.22-1.51,49.33,51.59,105.77,82.05,88.07l-46.17,26.84c-30.24,17.57-83.58-38.4-82.06-88.07C256,172.15,261.24,162.1,269.5,157.3Z" transform="translate(-10.03 -10.03)" style="fill:#898988"/><path d="M351.85,296.87l-5.57-11.4,46.18-26.83L398,270c1,2.11.9,4.15-.25,4.82L351.6,301.69C352.75,301,352.88,299,351.85,296.87Z" transform="translate(-10.03 -10.03)" style="fill:#898988"/><g style="isolation:isolate"><g style="clip-path:url(#clip-path-9)"><g style="isolation:isolate"><path d="M276.43,141.48l46.18-26.84a29.26,29.26,0,0,0-13.87,3.85l-46.17,26.84a29.18,29.18,0,0,1,13.86-3.85Z" transform="translate(-10.03 -10.03)" style="fill:#999"/></g></g></g><g style="isolation:isolate"><path d="M346.28,285.47l46.18-26.83A31.58,31.58,0,0,0,403.36,245L357.18,271.8A31.55,31.55,0,0,1,346.28,285.47Z" transform="translate(-10.03 -10.03)" style="fill:#828282"/><g style="clip-path:url(#clip-path-10)"><path d="M346.28,285.47l46.18-26.83A31.58,31.58,0,0,0,403.36,245L357.18,271.8a31.55,31.55,0,0,1-10.9,13.67Z" transform="translate(-10.03 -10.03)" style="fill:#999"/></g></g><path d="M320.8,100.58a1.85,1.85,0,0,1,1.32-.17l12.43,2.46-46.18,26.84-12.43-2.46a1.8,1.8,0,0,0-1.32.17Z" transform="translate(-10.03 -10.03)" style="fill:#bcbcbc"/><path d="M338.67,107.66c-.46-1.89-2.21-4.42-4.12-4.79l-46.18,26.84c1.85.35,3.64,2.81,4.12,4.78l2.6,10.73,46.18-26.83Z" transform="translate(-10.03 -10.03)" style="fill:#898988"/><path d="M369.84,278.29l2.7-13.17,46.17-26.84L416,251.45a2,2,0,0,1-.88,1.37L369,279.65A2,2,0,0,0,369.84,278.29Z" transform="translate(-10.03 -10.03)" style="fill:#999"/><path d="M361.33,252.1l46.17-26.84c7.36,6,10.52,7.69,11.18,11.38,0,.11,0,.21,0,.3a4,4,0,0,1,0,1.34l-46.17,26.84a4.22,4.22,0,0,0,0-1.33c0-.11,0-.21,0-.31C371.89,260,369,258.39,361.33,252.1Z" transform="translate(-10.03 -10.03)" style="fill:#898988"/><g style="isolation:isolate"><g style="clip-path:url(#clip-path-11)"><path d="M341.27,118.39a81.61,81.61,0,0,1,20.83,12.79L315.93,158a81.75,81.75,0,0,0-20.84-12.8Z" transform="translate(-10.03 -10.03)" style="fill:#999"/></g></g><path d="M404.8,200.2,358.62,227a92.71,92.71,0,0,1,2.74,24.35c0,.23,0,.46,0,.71l46.17-26.84c0-.25,0-.47,0-.71A92.71,92.71,0,0,0,404.8,200.2Z" transform="translate(-10.03 -10.03)" style="fill:#999"/><path d="M366,123.13a2.33,2.33,0,0,1,2.33.22c1.08.63,12.47,12.66,13.34,13.56l-46.18,26.83c-10.25-10.63-13.31-15.15-15.67-13.78Z" transform="translate(-10.03 -10.03)" style="fill:#bcbcbc"/><path d="M367.65,222.41l-6.15-16.8,46.17-26.84,6.15,16.8c.7,1.89.42,3.53-.57,4.11l-46.18,26.83C368.06,225.94,368.34,224.3,367.65,222.41Z" transform="translate(-10.03 -10.03)" style="fill:#bcbcbc"/><path d="M245.91,181.17v-.73A55.48,55.48,0,0,1,250,160.26l-7.35-9.51c-1.54-2-2-4.56-1-5.78l6.92-8.81c.62-.79,1.69-.79,2.78-.15a6.71,6.71,0,0,1,1.76,1.53l7.23,9.34a28.61,28.61,0,0,1,16.3-5.47L274,130.7c-.56-2.29.38-3.88,2.1-3.52l12.44,2.46a3.33,3.33,0,0,1,1,.4,7.26,7.26,0,0,1,3.1,4.39l2.6,10.72a70.9,70.9,0,0,1,8.63,4.26c.61.35,1.22.71,1.83,1.09A92,92,0,0,1,316.06,158l3.17-7.22c.52-1.17,1.75-1.36,3-.61a5.17,5.17,0,0,1,1.2,1l12.14,12.59c1.67,1.73,2.48,4.4,1.79,5.92l-3.17,7.26A138.91,138.91,0,0,1,346,194.71c1.28,2.32,2.5,4.68,3.65,7l7.6-.3a2.83,2.83,0,0,1,1.54.45,7.06,7.06,0,0,1,2.87,3.64l6.15,16.8c.85,2.32.18,3.59-1.35,4.33l-7.68.3a92.74,92.74,0,0,1,2.75,24.35c0,.24,0,.46,0,.71l8.7,7.12c1.75,1.43,2.89,4.07,2.51,5.9L370,278.23c-.34,1.58-1.7,2-3.2,1.13a4.08,4.08,0,0,1-.67-.47l-8.78-7.16a31.65,31.65,0,0,1-10.9,13.68L352,296.8c1.12,2.28.88,4.49-.54,5l-10.31,3.37a2.59,2.59,0,0,1-2-.37,7,7,0,0,1-2.57-2.91l-5.63-11.52a45.83,45.83,0,0,1-19.36-4l-.31,10.5c-.06,2-1.52,2.77-3.38,1.7l-13.07-8a7.19,7.19,0,0,1-3.16-5.71L292,274.3a118.07,118.07,0,0,1-18.85-19.48l-6.17,4.36a2.22,2.22,0,0,1-2.43-.17,6.4,6.4,0,0,1-2.18-2.21l-9.73-15.65c-1.33-2.14-1.45-4.59-.23-5.43l6.12-4.32a127.81,127.81,0,0,1-9.73-26.24l-8.92-3.67a4.93,4.93,0,0,1-.46-.23,7.35,7.35,0,0,1-3.23-5.1l-1.83-15.95c-.25-2.2,1-3.39,2.79-2.66Zm22.69,52.3c8.75,15.8,20.63,28.84,33.45,36.7.49.3,1,.59,1.48.87,26.14,15.1,47.26,3.79,48.17-25.75.44-14.5-4.14-31.17-12.89-47s-20.64-28.85-33.45-36.71l-1.52-.92c-26.09-15.06-47.24-3.74-48.13,25.78-.44,14.49,4.14,31.19,12.89,47Z" transform="translate(-10.03 -10.03)" style="fill:#d6d6d6"/><path d="M337.28,169.67a3.21,3.21,0,0,0,.22-1.2c0-.12,0-.25,0-.39a5.53,5.53,0,0,0-.17-1,2.75,2.75,0,0,0-.11-.41,8,8,0,0,0-.62-1.42,7.2,7.2,0,0,0-1.1-1.48l46.18-26.83a7.47,7.47,0,0,1,1.09,1.47l0,0a7.16,7.16,0,0,1,.61,1.4c.05.14.07.27.11.4a5.87,5.87,0,0,1,.17,1.05c0,.13,0,.26,0,.38a3,3,0,0,1-.23,1.2l-3.17,7.27-46.17,26.83Z" transform="translate(-10.03 -10.03)" style="fill:#898988"/><path d="M361,204.43a8.44,8.44,0,0,1,.55,1.18l46.17-26.84a6.91,6.91,0,0,0-.54-1.17v0a1.77,1.77,0,0,1-.12-.17c-.79-1.28-2.25-2.78-3.74-2.73l-7.59.3-46.18,26.84c7.49-.3,8-.85,9.78.62a7.68,7.68,0,0,1,.6.56A6.66,6.66,0,0,1,361,204.43Z" transform="translate(-10.03 -10.03)" style="fill:#898988"/><g style="isolation:isolate"><g style="clip-path:url(#clip-path-12)"><path d="M392,167.94c-.33-.61-.68-1.21-1-1.82a140,140,0,0,0-10.71-16l-46.17,26.83a139.26,139.26,0,0,1,10.71,16l1,1.82c1.28,2.31,2.5,4.67,3.65,7L395.67,175C394.51,172.62,393.29,170.26,392,167.94Z" transform="translate(-10.03 -10.03)" style="fill:#999"/></g></g><g style="isolation:isolate"><path d="M557.88,587.34,626,547.74a3.24,3.24,0,0,0,1.38-2.89l-68.15,39.62a3.2,3.2,0,0,1-1.39,2.87Z" transform="translate(-10.03 -10.03)" style="fill:#727272"/></g><path d="M510.74,372.84a2.74,2.74,0,0,1,2.46,0l11.66,4.79-61.19,35.56L452,408.39a2.74,2.74,0,0,0-2.46,0Z" transform="translate(-10.03 -10.03)" style="fill:#999"/><path d="M559.73,569l-.46,15.51a3.2,3.2,0,0,1-1.39,2.87q34.1-19.8,68.16-39.6a3.24,3.24,0,0,0,1.38-2.89l.47-15.51Z" transform="translate(-10.03 -10.03)" style="fill:#898988"/><path d="M514.77,319.35c3.88-2.25,29.71-5.73,37.39,4.18L484,363.15c-7.28-8.75-12.71-18.67-16.79-16.29C489.93,333.66,492.05,332.54,514.77,319.35Z" transform="translate(-10.03 -10.03)" style="fill:#898988"/><path d="M487.74,384.34l68.15-39.61c-12.19,7.09-19.92,21.93-20.56,43.13-2.22,72.81,76.17,156.12,121.12,130q-34.07,19.81-68.15,39.61c-44.63,25.94-123.36-56.67-121.12-130C467.82,406.27,475.54,391.43,487.74,384.34Z" transform="translate(-10.03 -10.03)" style="fill:#898988"/><path d="M619.43,584.43l-8.21-16.82,47.43-27.39L666.86,557c1.52,3.12,1.33,6.13-.36,7.12-22.73,13.2-24.72,14.19-47.44,27.4C620.76,590.56,621,587.54,619.43,584.43Z" transform="translate(-10.03 -10.03)" style="fill:#898988"/><g style="isolation:isolate"><g style="isolation:isolate"><path d="M504.31,360.5l42.58-24.6c-6.82.22,1.79-10-3.59-6.92l-36,20.53L480.8,364.86c5.85-1.07,16.69-4.14,23.51-4.36Z" transform="translate(-10.03 -10.03)" style="fill:#999"/></g></g><g style="isolation:isolate"><path d="M611.22,567.61l47.43-27.39c6.76-4.65,12.25-11.44,16.08-20.19L627.3,547.42C623.46,556.18,618,563,611.22,567.61Z" transform="translate(-10.03 -10.03)" style="fill:#828282"/><g style="clip-path:url(#clip-path-13)"><path d="M611.22,567.61l47.43-27.39c6.76-4.65,12.25-11.44,16.08-20.19L627.3,547.42c-3.84,8.76-9.32,15.54-16.08,20.19Z" transform="translate(-10.03 -10.03)" style="fill:#999"/></g></g><path d="M552.87,306.92a2.65,2.65,0,0,1,1.94-.24l18.35,3.62-47.43,27.39-18.35-3.62a2.65,2.65,0,0,0-1.94.25Z" transform="translate(-10.03 -10.03)" style="fill:#bcbcbc"/><path d="M579.25,317.37c-.68-2.79-3.26-6.52-6.09-7.07l-47.43,27.39c2.73.53,5.37,4.16,6.09,7.07l3.83,15.84,47.44-27.4Z" transform="translate(-10.03 -10.03)" style="fill:#898988"/><path d="M646,557l4-19.45,47.43-27.39-4,19.45a2.91,2.91,0,0,1-1.31,2c-22.72,13.21-24.71,14.2-47.43,27.4A2.93,2.93,0,0,0,646,557Z" transform="translate(-10.03 -10.03)" style="fill:#999"/><path d="M633.42,518.34,680.84,491c10.86,8.89,15.54,11.34,16.51,16.81,0,.15,0,.29.06.44a6.17,6.17,0,0,1,0,2L650,537.56a5.83,5.83,0,0,0,0-2c0-.15,0-.3-.07-.45C649,530.07,644.76,527.63,633.42,518.34Z" transform="translate(-10.03 -10.03)" style="fill:#898988"/><g style="isolation:isolate"><g style="clip-path:url(#clip-path-14)"><path d="M583.09,333.2a120.73,120.73,0,0,1,30.74,18.89l-47.43,27.4c-9.24-7.61-19.57-14.36-30.75-18.89Z" transform="translate(-10.03 -10.03)" style="fill:#999"/></g></g><path d="M676.85,454l-47.43,27.39a136.64,136.64,0,0,1,4.05,35.94c0,.35-.05.68-.05,1L680.84,491c0-.37,0-.69.06-1A137.06,137.06,0,0,0,676.85,454Z" transform="translate(-10.03 -10.03)" style="fill:#999"/><path d="M619.57,340.2a3.46,3.46,0,0,1,3.44.33c1.6.92,18.41,18.69,19.69,20l-47.43,27.4c-4.47-4.64-8.31-8.3-11.18-11.37-6.83-7.32-9.5-10.4-12-9Z" transform="translate(-10.03 -10.03)" style="fill:#bcbcbc"/><path d="M642.74,474.52l-9.07-24.79,47.42-27.4,9.08,24.81c1,2.78.62,5.2-.84,6.06L641.9,480.58C643.36,479.74,643.77,477.32,642.74,474.52Z" transform="translate(-10.03 -10.03)" style="fill:#bcbcbc"/><g style="isolation:isolate"><g style="clip-path:url(#clip-path-15)"><path d="M658,406.34l-1.51-2.68A206.65,206.65,0,0,0,640.67,380L593.24,407.4a205.48,205.48,0,0,1,15.81,23.66l1.51,2.68c1.89,3.42,3.68,6.91,5.39,10.39l47.42-27.4C661.67,413.26,659.88,409.78,658,406.34Z" transform="translate(-10.03 -10.03)" style="fill:#999"/></g></g><path d="M597.92,396.69a4.54,4.54,0,0,0,.33-1.77,5.78,5.78,0,0,0,0-.58,8.55,8.55,0,0,0-.25-1.53c-.06-.21-.1-.4-.16-.61a11.28,11.28,0,0,0-.92-2.09,11.05,11.05,0,0,0-1.62-2.17l47.43-27.4a11.05,11.05,0,0,1,1.62,2.17l0,0a11.18,11.18,0,0,1,.9,2.08c.07.2.11.38.16.58a8.91,8.91,0,0,1,.25,1.55q0,.3,0,.57a4.5,4.5,0,0,1-.33,1.77L640.67,380,593.24,407.4Z" transform="translate(-10.03 -10.03)" style="fill:#898988"/><path d="M632.86,448a11,11,0,0,1,.81,1.74l47.42-27.4a11.2,11.2,0,0,0-.79-1.72l0,0c0-.09-.13-.16-.18-.25-1.16-1.89-3.32-4.1-5.52-4l-11.21.44L616,444.13c11-.43,11.76-1.24,14.43.92a9.66,9.66,0,0,1,.88.83A9.92,9.92,0,0,1,632.86,448Z" transform="translate(-10.03 -10.03)" style="fill:#898988"/><path d="M462.85,413.76v-1.09c.36-11.55,2.47-21.51,6-29.78l-10.84-14c-2.27-2.93-2.95-6.75-1.54-8.54l10.2-13c.92-1.16,2.51-1.16,4.12-.23a9.89,9.89,0,0,1,2.6,2.28l10.67,13.78A42.69,42.69,0,0,1,508.28,355l-2.65-10.2-1-4.95-.21-1.41a5.67,5.67,0,0,1-.13-1.45,4.11,4.11,0,0,1,.07-1.33c.44-1.36,1.42-1.95,3.05-1.61l18.35,3.62a5.23,5.23,0,0,1,1.52.6,10.76,10.76,0,0,1,4.57,6.47l3.83,15.84a101.29,101.29,0,0,1,12.75,6.28c.89.51,1.79,1.05,2.69,1.61a132.46,132.46,0,0,1,15.31,11l4.68-10.66c.76-1.73,2.59-2,4.51-.9a8.27,8.27,0,0,1,1.78,1.43l17.9,18.58c2.47,2.56,3.67,6.49,2.65,8.75l-4.68,10.71a207.29,207.29,0,0,1,17.32,26.34c1.89,3.42,3.68,6.91,5.39,10.39l11.2-.44a4.36,4.36,0,0,1,2.28.66,10.47,10.47,0,0,1,4.24,5.38l9.07,24.79c1.26,3.43.36,6.29-2,6.39l-11.33.45a136.64,136.64,0,0,1,4.05,35.94c0,.35-.05.68-.05,1l12.83,10.52c2.59,2.12,4.27,6,3.71,8.7L646,557c-.5,2.34-2.51,3-4.73,1.68a7.4,7.4,0,0,1-1-.69l-13-10.58c-3.84,8.76-9.32,15.54-16.08,20.19l8.21,16.82c1.65,3.38,1.29,6.63-.82,7.32l-15.2,5a3.81,3.81,0,0,1-3-.54,10.29,10.29,0,0,1-3.8-4.31l-8.31-17c-8.71.32-18.35-1.61-28.58-5.92l-.46,15.51c-.09,2.94-2.24,4.08-5,2.49L535,575.12a10.63,10.63,0,0,1-4.68-8.43l.49-15.48A173.8,173.8,0,0,1,503,522.46l-9.1,6.44c-.95.67-2.27.53-3.6-.24a9.75,9.75,0,0,1-3.21-3.27l-14.36-23.1c-2-3.16-2.14-6.78-.35-8l9.05-6.36a188,188,0,0,1-14.36-38.74l-13.17-5.41a7.18,7.18,0,0,1-.68-.34,10.83,10.83,0,0,1-4.77-7.52l-2.7-23.54c-.36-3.25,1.47-5,4.12-3.93ZM496.35,491c12.92,23.33,30.46,42.56,49.37,54.17.73.44,1.46.88,2.18,1.29,38.59,22.28,69.77,5.59,71.1-38,.66-21.41-6.1-46-19-69.37s-30.46-42.58-49.38-54.18c-.76-.47-1.5-.93-2.24-1.36-38.5-22.23-69.72-5.51-71,38.05-.66,21.4,6.11,46.05,19,69.4Z" transform="translate(-10.03 -10.03)" style="fill:#d6d6d6"/><g style="isolation:isolate"><polygon points="590.8 178.69 602.5 171.89 602.14 296.69 590.45 303.48 590.8 178.69" style="fill:#aeafb1"/><polygon points="640.93 311.46 640.92 317.21 630.02 310.92 630.03 305.17 640.93 311.46" style="fill:#b9b9ba"/><polygon points="663.07 324.24 663.05 330 647.92 321.25 647.93 315.5 663.07 324.24" style="fill:#edcb3a"/><polygon points="618.96 286.17 618.94 291.92 599.79 280.87 599.81 275.12 618.96 286.17" style="fill:#1e8778"/><polygon points="636.91 270.08 636.89 275.83 617.75 264.77 617.76 259.02 636.91 270.08" style="fill:#1e8778"/><polygon points="619.17 211.77 619.16 217.52 600.01 206.47 600.02 200.71 619.17 211.77" style="fill:#1e8778"/><path d="M604.31,176.89a7.16,7.16,0,0,1,3.25,5.62c0,2.07-1.47,2.9-3.27,1.86a7.16,7.16,0,0,1-3.25-5.62C601.05,176.68,602.51,175.84,604.31,176.89Z" transform="translate(-10.03 -10.03)" style="fill:#e52c13"/><path d="M613.31,182.08a7.15,7.15,0,0,1,3.25,5.63c0,2.07-1.47,2.9-3.27,1.86a7.15,7.15,0,0,1-3.23-5.62C610.07,181.88,611.53,181.05,613.31,182.08Z" transform="translate(-10.03 -10.03)" style="fill:#1e8778"/><polygon points="664.13 260.66 664.11 266.41 644.98 255.36 644.99 249.61 664.13 260.66" style="fill:#b9b9ba"/><polygon points="638.01 213.44 638 219.18 599.7 197.07 599.72 191.33 638.01 213.44" style="fill:#e52c13"/><polygon points="627.81 227.38 627.8 233.13 608.65 222.08 608.67 216.33 627.81 227.38" style="fill:#1e8778"/><polygon points="697.69 291.98 697.67 297.73 627.86 257.43 627.88 251.68 697.69 291.98" style="fill:#e52c13"/><polygon points="697.1 279.69 697.08 285.45 670.42 270.06 670.44 264.31 697.1 279.69" style="fill:#edcb3a"/><polygon points="733.41 338.39 733.39 344.14 626.97 282.7 626.99 276.95 733.41 338.39" style="fill:#edcb3a"/><polygon points="720.71 305.28 720.7 311.03 702.67 300.63 702.69 294.87 720.71 305.28" style="fill:#e52c13"/><path d="M600.83,188.71l152.55,88.08L753,401.59,600.47,313.51ZM743.42,354.17v-5.75L637,287v5.75l106.42,61.44ZM637.89,267.45l69.81,40.31V302l-69.81-40.3v5.74Zm-28.14-66.09,0,5.74L648,229.2l0-5.73-38.29-22.11Zm63.14,51.42,0-5.75-38.17-22v5.75l38.16,22Zm7.58,21.55,0,5.75,26.66,15.39v-5.75l-26.65-15.39ZM610,216.49l19.15,11.06,0-5.75-19.15-11.06,0,5.75Zm-.19,68.65,0,5.76L629,302l0-5.75-19.15-11.06Zm17.95-16.09,0,5.75,19.15,11.06,0-5.75-19.15-11.06Zm85.33,24.14v5.75L732.25,310l0-5.75-19.15-11.05Zm-94.43-66.84v5.75l19.14,11.06,0-5.75-19.15-11.06ZM647,255,627.86,244l0,5.75L647,260.77l0-5.75Zm27.13,21.42v-5.75L655,259.64l0,5.75,19.14,11.05Zm38.58,28.46,0,5.75,18,10.41,0-5.75-18-10.41ZM673.08,340l0-5.75L658,325.53v5.75L673.08,340ZM633,316.9v-5.75l-13.63-7.87,0,5.75L633,316.9Zm17.9,10.34,0-5.75-10.9-6.29,0,5.75,10.9,6.29Z" transform="translate(-10.03 -10.03)" style="fill:#33424c"/><polygon points="636.98 244.99 636.97 250.74 617.82 239.68 617.83 233.93 636.98 244.99" style="fill:#1e8778"/><polygon points="624.7 220.72 662.86 242.75 662.88 237 624.72 214.97 624.7 220.72" style="fill:#bca235"/><path d="M754.56,257.13l-154.8-89.38c-2.21-1.28-4-.26-4,2.28l-.4,141.09a8.81,8.81,0,0,0,4,6.91l154.81,89.38c2.21,1.28,4,.26,4-2.28l.4-141.09A8.76,8.76,0,0,0,754.56,257.13ZM622.33,187.29a7.16,7.16,0,0,1,3.24,5.62c0,2.07-1.47,2.9-3.26,1.87a7.14,7.14,0,0,1-3.24-5.63c0-2.07,1.46-2.9,3.26-1.86Zm-9-5.21a7.15,7.15,0,0,1,3.25,5.63c0,2.07-1.47,2.9-3.27,1.86a7.15,7.15,0,0,1-3.23-5.62c0-2.07,1.47-2.9,3.25-1.87Zm-9-5.19a7.16,7.16,0,0,1,3.25,5.62c0,2.07-1.47,2.9-3.27,1.86a7.16,7.16,0,0,1-3.25-5.62c0-2.07,1.47-2.91,3.27-1.86ZM753,401.59,600.47,313.51l.36-124.8,152.55,88.08L753,401.59Z" transform="translate(-10.03 -10.03)" style="fill:#f2f2f2"/><polygon points="623.03 301.12 609.39 293.25 609.37 299 623.01 306.87 623.03 301.12" style="fill:#1e8778"/><path d="M622.33,187.29a7.16,7.16,0,0,1,3.24,5.62c0,2.07-1.47,2.9-3.26,1.87a7.14,7.14,0,0,1-3.24-5.63C619.07,187.08,620.53,186.25,622.33,187.29Z" transform="translate(-10.03 -10.03)" style="fill:#bca235"/><polygon points="722.24 294.21 722.23 299.96 703.08 288.91 703.1 283.16 722.24 294.21" style="fill:#b9b9ba"/><path d="M761.7,255.74c-.05-.05,8.77,4.5-156.7-91a2.81,2.81,0,0,0-2.86-.28l-5.24,3a2.86,2.86,0,0,1,2.86.28c164,94.66,155,89.41,155.67,90l.27.25a9.23,9.23,0,0,1,2.74,4.9,5.47,5.47,0,0,1,.12,1.15l-.4,141.09a2.8,2.8,0,0,1-1.16,2.56c3.9-2.27,1.4-.69,5.3-2.95a2.78,2.78,0,0,0,1.16-2.56L763.8,261A8.74,8.74,0,0,0,761.7,255.74Z" transform="translate(-10.03 -10.03)" style="fill:#aeafb1"/></g><g style="isolation:isolate"><polygon points="468.83 29.34 482.8 21.22 482.38 170.33 468.41 178.45 468.83 29.34" style="fill:#aeafb1"/><polygon points="528.73 187.98 528.71 194.85 515.69 187.34 515.71 180.47 528.73 187.98" style="fill:#b9b9ba"/><polygon points="555.18 203.25 555.16 210.13 537.08 199.69 537.09 192.81 555.18 203.25" style="fill:#edcb3a"/><polygon points="502.47 157.76 502.45 164.64 479.58 151.43 479.6 144.56 502.47 157.76" style="fill:#1e8778"/><polygon points="523.92 138.54 523.9 145.41 501.03 132.2 501.04 125.33 523.92 138.54" style="fill:#1e8778"/><polygon points="502.73 68.87 502.71 75.74 479.83 62.53 479.85 55.66 502.73 68.87" style="fill:#1e8778"/><path d="M483,25.24A8.55,8.55,0,0,1,486.9,32c0,2.47-1.76,3.46-3.91,2.22a8.57,8.57,0,0,1-3.88-6.72C479.12,25,480.87,24,483,25.24Z" transform="translate(-10.03 -10.03)" style="fill:#e52c13"/><path d="M493.78,31.45a8.52,8.52,0,0,1,3.87,6.72c0,2.47-1.75,3.46-3.9,2.22a8.54,8.54,0,0,1-3.86-6.71C489.89,31.21,491.64,30.22,493.78,31.45Z" transform="translate(-10.03 -10.03)" style="fill:#30b59e"/><polygon points="556.44 127.28 556.42 134.16 533.56 120.96 533.58 114.09 556.44 127.28" style="fill:#b9b9ba"/><polygon points="525.24 70.87 525.22 77.72 479.47 51.3 479.49 44.45 525.24 70.87" style="fill:#e52c13"/><polygon points="513.05 87.52 513.03 94.39 490.16 81.19 490.18 74.31 513.05 87.52" style="fill:#1e8778"/><polygon points="596.54 164.71 596.52 171.58 513.11 123.43 513.13 116.55 596.54 164.71" style="fill:#e52c13"/><polygon points="595.83 150.03 595.81 156.9 563.97 138.51 563.99 131.64 595.83 150.03" style="fill:#edcb3a"/><polygon points="639.22 220.16 639.2 227.03 512.04 153.62 512.06 146.75 639.22 220.16" style="fill:#edcb3a"/><polygon points="624.05 180.59 624.03 187.47 602.5 175.04 602.52 168.16 624.05 180.59" style="fill:#e52c13"/><path d="M478.86,39.37,661.13,144.6l-.42,149.11L478.43,188.48ZM649.22,237.06l0-6.87L522.09,156.78l0,6.87,127.15,73.41ZM523.14,133.45l83.4,48.16,0-6.87-83.42-48.16v6.87Zm-33.63-79,0,6.85,45.76,26.42V80.89L489.51,54.48ZM565,115.92l0-6.87-45.6-26.33,0,6.87L565,115.92Zm9,25.75,0,6.87,31.85,18.39,0-6.87L574,141.67ZM489.86,72.56l22.87,13.21,0-6.87L489.87,65.69v6.87Zm-.24,82v6.88l22.87,13.21,0-6.88-22.88-13.21Zm21.45-19.22,0,6.87,22.88,13.21,0-6.88-22.88-13.2Zm102,28.83,0,6.88,22.87,13.2,0-6.87L613,164.19ZM500.2,84.34l0,6.87,22.88,13.21,0-6.87L500.2,84.34ZM534,118.59l-22.87-13.21,0,6.87L534,125.46l0-6.87Zm32.42,25.59,0-6.87-22.86-13.2,0,6.88,22.86,13.19Zm46.09,34v6.87l21.53,12.43,0-6.87-21.54-12.43Zm-47.35,42,0-6.88-18.09-10.44,0,6.87,18.09,10.45Zm-47.85-27.63,0-6.87-16.29-9.41,0,6.87,16.29,9.41Zm21.4,12.35V198l-13-7.52,0,6.87,13,7.52Z" transform="translate(-10.03 -10.03)" style="fill:#33424c"/><polygon points="524 108.56 523.99 115.43 501.11 102.22 501.13 95.35 524 108.56" style="fill:#1e8778"/><polygon points="509.33 79.57 554.93 105.89 554.95 99.02 509.35 72.69 509.33 79.57" style="fill:#edcb3a"/><path d="M662.54,121.11l-185-106.79c-2.64-1.52-4.8-.31-4.81,2.73l-.48,168.57a10.57,10.57,0,0,0,4.78,8.27L662,300.67c2.64,1.53,4.79.31,4.81-2.72l.47-168.58A10.5,10.5,0,0,0,662.54,121.11Zm-158-83.44a8.5,8.5,0,0,1,3.86,6.71c0,2.47-1.75,3.46-3.88,2.23a8.5,8.5,0,0,1-3.88-6.72c0-2.47,1.75-3.46,3.9-2.22Zm-10.77-6.22a8.52,8.52,0,0,1,3.87,6.72c0,2.47-1.75,3.46-3.9,2.22a8.54,8.54,0,0,1-3.86-6.71c0-2.47,1.75-3.46,3.89-2.23ZM483,25.24A8.55,8.55,0,0,1,486.9,32c0,2.47-1.76,3.46-3.91,2.22a8.57,8.57,0,0,1-3.88-6.72c0-2.47,1.76-3.47,3.91-2.22ZM660.71,293.71,478.43,188.48l.43-149.11L661.13,144.6l-.42,149.11Z" transform="translate(-10.03 -10.03)" style="fill:#f2f2f2"/><polygon points="507.33 175.63 491.04 166.22 491.02 173.09 507.32 182.5 507.33 175.63" style="fill:#1e8778"/><path d="M504.55,37.67a8.5,8.5,0,0,1,3.86,6.71c0,2.47-1.75,3.46-3.88,2.23a8.5,8.5,0,0,1-3.88-6.72C500.65,37.42,502.4,36.43,504.55,37.67Z" transform="translate(-10.03 -10.03)" style="fill:#e0c348"/><polygon points="625.88 167.38 625.86 174.25 602.98 161.04 603 154.17 625.88 167.38" style="fill:#b9b9ba"/><path d="M671.06,119.46c0-.07,10.49,5.37-187.22-108.77a3.39,3.39,0,0,0-3.42-.34L474.17,14a3.37,3.37,0,0,1,3.41.33c195.91,113.11,185.16,106.83,186,107.52.11.09.21.2.32.3a11.1,11.1,0,0,1,3.28,5.85,7.87,7.87,0,0,1,.14,1.38L666.85,298a3.36,3.36,0,0,1-1.4,3.06c4.66-2.71,1.68-.83,6.33-3.53a3.36,3.36,0,0,0,1.4-3.06l.4-168.69A10.39,10.39,0,0,0,671.06,119.46Z" transform="translate(-10.03 -10.03)" style="fill:#aeafb1"/></g><path d="M290.59,466.74s-4.13,1.86-.41,11.16,17.36,10.33,31.62,23.35,35.75,32.24,42.15,37,30.38,9.72,14.68-4.75-33.48-20.67-43-30.17S297.41,450.83,290.59,466.74Z" transform="translate(-10.03 -10.03)" style="opacity:0.30000000000000004"/><path d="M361.54,529.91c.52,2,4.21,4.92,4.21,4.92s2.45,1.61,11.86-4.49c7.57-4.92,8.8-8.56,6.84-9.84,0,0-2.08-1.38-3.78-.37-5.35,3.17-8.83,3.39-9.4,3.39a10.89,10.89,0,0,1-4.9-1l-5.6,3.58S361.22,528.7,361.54,529.91Z" transform="translate(-10.03 -10.03)" style="fill:#e52c13"/><path d="M382.69,524.07l-2.93-3.42c-4.84,2.67-7.95,2.87-8.49,2.87a12,12,0,0,1-4.36-.73l-.29.09-5.75,3.79c.15.81.44,2.37.67,3.24a4.21,4.21,0,0,0,.61,1.22c1.91.25,6.89.31,11-4.91C378.38,519.62,382.69,524.07,382.69,524.07Z" transform="translate(-10.03 -10.03)" style="fill:#ef6c5e"/><path d="M377.61,530.34c7.57-4.92,8.8-8.56,6.84-9.84,0,0-2.08-1.38-3.78-.37-.57.34-1.11.63-1.64.9.69.43,4.33,2.71,2.46,4.79-2.29,2.55-11.55,8.57-16.71,8.17.56.51,1,.84,1,.84S368.2,536.44,377.61,530.34Z" transform="translate(-10.03 -10.03)" style="fill:#f2f2f2"/><path d="M374.59,526.13a.47.47,0,1,1-.47-.47A.47.47,0,0,1,374.59,526.13Z" transform="translate(-10.03 -10.03)" style="fill:#14546d"/><path d="M376.43,524.76a.47.47,0,1,1-.47-.47A.47.47,0,0,1,376.43,524.76Z" transform="translate(-10.03 -10.03)" style="fill:#14546d"/><path d="M378.9,523.66a.47.47,0,0,1-.47.47.47.47,0,1,1,0-.94A.47.47,0,0,1,378.9,523.66Z" transform="translate(-10.03 -10.03)" style="fill:#14546d"/><path d="M374.11,526.18c-.1.06-.24.09-.29,0-.28-.48-1-1.91-.72-2.81a1.06,1.06,0,0,1,.41-.52.21.21,0,0,1,.29.13.34.34,0,0,1-.11.35.67.67,0,0,0-.12.2,3.9,3.9,0,0,0,.62,2.32A.25.25,0,0,1,374.11,526.18Z" transform="translate(-10.03 -10.03)" style="fill:#f2f2f2"/><path d="M376,524.86a.26.26,0,0,1-.35-.13,3,3,0,0,1-.42-2.06,1.08,1.08,0,0,1,.44-.57.22.22,0,0,1,.32.12c.06.14,0,.27-.15.38a.51.51,0,0,0-.15.23,2.77,2.77,0,0,0,.43,1.74C376.15,524.67,376.07,524.79,376,524.86Z" transform="translate(-10.03 -10.03)" style="fill:#f2f2f2"/><path d="M378.48,523.8a.26.26,0,0,1-.35-.12,2.91,2.91,0,0,1-.39-2,1.11,1.11,0,0,1,.46-.58.23.23,0,0,1,.33.11c.05.15-.06.28-.17.39a.49.49,0,0,0-.15.24,2.57,2.57,0,0,0,.39,1.66C378.66,523.62,378.57,523.74,378.48,523.8Z" transform="translate(-10.03 -10.03)" style="fill:#f2f2f2"/><path d="M315.28,464.33c-.6-1.91-4.42-4.72-4.42-4.72s-2.51-1.51-11.65,5c-7.35,5.24-8.42,8.94-6.4,10.13,0,0,2.13,1.28,3.79.2,5.21-3.4,8.67-3.77,9.24-3.79a10.91,10.91,0,0,1,4.94.74l5.43-3.83S315.65,465.53,315.28,464.33Z" transform="translate(-10.03 -10.03)" style="fill:#e52c13"/><path d="M294.41,471.1l3.07,3.28c4.72-2.88,7.82-3.21,8.36-3.23a12.26,12.26,0,0,1,4.38.53l.29-.09,5.58-4c-.18-.8-.55-2.35-.81-3.21a4.41,4.41,0,0,0-.67-1.19c-1.92-.16-6.89,0-10.78,5.39C298.9,475.35,294.41,471.1,294.41,471.1Z" transform="translate(-10.03 -10.03)" style="fill:#ef6c5e"/><path d="M299.21,464.61c-7.35,5.24-8.42,8.94-6.4,10.13,0,0,2.13,1.28,3.79.2.55-.36,1.08-.68,1.59-1-.7-.4-4.44-2.51-2.66-4.68,2.18-2.65,11.16-9.06,16.33-8.89-.58-.48-1-.79-1-.79S308.35,458.1,299.21,464.61Z" transform="translate(-10.03 -10.03)" style="fill:#f2f2f2"/><path d="M302.41,468.68a.47.47,0,1,1,.49.45A.47.47,0,0,1,302.41,468.68Z" transform="translate(-10.03 -10.03)" style="fill:#14546d"/><path d="M300.63,470.13a.47.47,0,1,1,.49.45A.46.46,0,0,1,300.63,470.13Z" transform="translate(-10.03 -10.03)" style="fill:#14546d"/><path d="M298.21,471.34a.48.48,0,0,1,1,0,.48.48,0,0,1-.45.49A.49.49,0,0,1,298.21,471.34Z" transform="translate(-10.03 -10.03)" style="fill:#14546d"/><path d="M302.89,468.61c.1-.06.23-.1.29,0,.29.46,1.1,1.87.83,2.77a1,1,0,0,1-.37.54.2.2,0,0,1-.3-.11.33.33,0,0,1,.09-.36.47.47,0,0,0,.11-.21,3.79,3.79,0,0,0-.72-2.28A.26.26,0,0,1,302.89,468.61Z" transform="translate(-10.03 -10.03)" style="fill:#f2f2f2"/><path d="M301.08,470a.25.25,0,0,1,.36.11,3,3,0,0,1,.51,2,1,1,0,0,1-.42.59.22.22,0,0,1-.32-.09c-.06-.14,0-.29.14-.39a.7.7,0,0,0,.13-.24,2.67,2.67,0,0,0-.5-1.72C300.91,470.2,301,470.09,301.08,470Z" transform="translate(-10.03 -10.03)" style="fill:#f2f2f2"/><path d="M298.63,471.19a.24.24,0,0,1,.35.09,2.88,2.88,0,0,1,.47,2,1,1,0,0,1-.43.59.22.22,0,0,1-.33-.09c-.06-.14.05-.28.15-.4a.57.57,0,0,0,.14-.24,2.62,2.62,0,0,0-.46-1.65C298.45,471.36,298.53,471.25,298.63,471.19Z" transform="translate(-10.03 -10.03)" style="fill:#f2f2f2"/><path d="M371.43,447.37a7.23,7.23,0,0,1,5.48,3.48c2,3.07,8.07,9,9.86,9.78,2.37,1,15.39-.57,15.39-.57s4.54,3.42,2.52,8.12c-.54,1.25-16.5,1.94-20.64.43s-15.05-12-15.05-12Z" transform="translate(-10.03 -10.03)" style="fill:#f23825"/><path d="M400.21,465.36a4,4,0,0,1,1.62-4.27l.16,0c.61.13,1.27.59,1.87,1.78,1.85,3.68,0,5.36,0,5.36a.93.93,0,0,1-.2.1A4.87,4.87,0,0,1,400.21,465.36Z" transform="translate(-10.03 -10.03)" style="fill:#b21c14"/><path d="M409.35,460.53A5,5,0,0,1,409,459c-.07-.81-1-.9-2.36-.82-1.11.07-3.51,1.83-4.78,2.83,0,0-4.34,2.94-.24,6.29l1.61-.47a11.17,11.17,0,0,0,1.59.2,11,11,0,0,0,4.42-1.64C410.72,464.38,409.35,460.53,409.35,460.53Z" transform="translate(-10.03 -10.03)" style="fill:#e8c5ac"/><path d="M403.58,462.32l-.18-.25Z" transform="translate(-10.03 -10.03)" style="fill:#f5f5f5"/><path d="M407.71,458.17s-1.79,1.79-1.79,2.27a15.81,15.81,0,0,0,1,2.71s.37,2.39,1,2.33,2.15.44,2-1.76c-.09-1.38-.57-3.86-.57-3.86s0-1.2-.43-1.54A1.79,1.79,0,0,0,407.71,458.17Z" transform="translate(-10.03 -10.03)" style="fill:#f4d3bd"/><path d="M401.88,464.93c.91.68,2.54-.07,3.36-1.27a.37.37,0,0,1,.61.06c.35.58.81,1.67,1.42,1.68,1,0,1-.54.9-.81s-1.6-4.33-2.41-4.3a5.35,5.35,0,0,0-4.18,1.9A2,2,0,0,0,401.88,464.93Z" transform="translate(-10.03 -10.03)" style="fill:#ffe1cc"/><path d="M346.24,479.85c.65.06-22.08,17.87-26.78,14.59-4.46-3.11-12.27-23.3-12.27-23.3-.65-.65-.07-3,2.71-4.79.81-.51,5.76-2.81,6.33-.37a84.92,84.92,0,0,0,6.29,15.62c.59,1,.37-.28.77-.45a8.5,8.5,0,0,0,1.91-.79c4-2.58,14.25-12.71,14.25-12.71Z" transform="translate(-10.03 -10.03)" style="fill:#093c4c"/><path d="M346.17,474.37s-2.63,5.77-1.64,7.44c.68,1.15-.26-.08,1,1.48a192.29,192.29,0,0,1,14.37,21.43c4.27,8.52,10.77,18.52,10.77,18.52.27.28,1.86.93.82,2.41-2.77,3.93-9.77,3.75-10.11,3.39,0,0-8.37-13.86-11-19.73-.55-1.2-10.74-11.56-22.26-23.07-6.51-6.51-5.46-11.73-3.31-16.15a14.86,14.86,0,0,1,5.23-5.68Z" transform="translate(-10.03 -10.03)" style="fill:#14546d"/><path d="M353,442.39c4.3-3.26,8.62-1.73,10.75-1.48s7.4,6.72,7.4,6.72-.56,5.09-.77,5.55.53,8.35-10.72,15.69a64,64,0,0,0-13.19,11.47c-2.41,2.85-6.92-1.85-11.51-7-1.57-1.77-6.49-8.66-5.54-9.65A184.12,184.12,0,0,1,353,442.39Z" transform="translate(-10.03 -10.03)" style="fill:#e52c13"/><path d="M365.57,451.8c-4.59,3.08-3.81-10-1.84-10.67l5.92-2.8,2.84,8.93Z" transform="translate(-10.03 -10.03)" style="fill:#d8b7a0"/><path d="M374.47,430.66h0l-6.51-.88-1.75,11.72c0,.82-.62,2.58.79,3.95,0,0,2.6,2.24,3.32,2.69a6.61,6.61,0,0,0,3.62,1.32c.77-.07,2.14-.15,3.24-3.61l2.84-9.19.93-4.45Z" transform="translate(-10.03 -10.03)" style="fill:#e8c5ac"/><path d="M379.7,425.68a16,16,0,0,1,1.68,2.92c.89,1.63-.17,3.94-.68,6.08a8.53,8.53,0,0,1-.51,1.32s.17-.95.3-1.84a1.69,1.69,0,0,0-2-2.11s-5.28,1.57-5.3,1.6,1.82-2.78,1.54-2.67a4.59,4.59,0,0,0-2.43,1.84,14.46,14.46,0,0,0-1.53,4.39c-.12.51-.37,2.36-.46,2.45s-.4.19-.9-.68a11.87,11.87,0,0,0-1.42-2c-1.11-.56-1.88,3.4-1.88,3.4-.15.56-1.6.82-1.69.54-.3-.92-.63-2.46-.82-3.36-2-9.27,5-13.86,12.76-10.85,0,0,1.1.15-.45-1.88a14.44,14.44,0,0,1,3.69,2.69C380.09,428,379.7,425.68,379.7,425.68Z" transform="translate(-10.03 -10.03)" style="fill:#77541c"/><path d="M366.22,441.55a1.71,1.71,0,0,1,1.66,1.25c.37,1.59,1.47,2.28,2.49,3.25s2.22,2.32,3.25,2c.56-.19,1-1,1.47-1.36s.43,1,.67,1.1c.46.14,1.23-1.55,1.23-1.55s-.69,2.16-1.42,2.6a4,4,0,0,1-4.74-.23c-2.28-1.59-4.56-3.06-4.65-4.28A11.16,11.16,0,0,1,366.22,441.55Z" transform="translate(-10.03 -10.03)" style="fill:#77541c"/><path d="M370.34,446.8s2.65-1.74,3.3-2a5.25,5.25,0,0,1,1.79-.35c.58,0,2,0,2,0s.38,0,.17.46-.75,1.8-.75,1.8l-.56.86s1.08-2.27.52-2.35a14.64,14.64,0,0,0-2.22.06c-.49,0-3.16,2.43-3.16,2.43l-1.07-1.16Z" transform="translate(-10.03 -10.03)" style="fill:#77541c"/><g style="opacity:0.26"><path d="M372.15,438.53a1.11,1.11,0,0,0-.9.87,2.36,2.36,0,0,0-.07.33,1,1,0,0,1,0,.2.89.89,0,0,0,.15.77,1.54,1.54,0,0,0,1,.42,5.58,5.58,0,0,0,1.39-.08h.06a3.46,3.46,0,0,0,1.89-1.19,2.24,2.24,0,0,0,.34-.8c.1-.34.09-.59,0-.71a.64.64,0,0,0-.49-.13l-3.34.33Z" transform="translate(-10.03 -10.03)" style="fill:#859393"/></g><path d="M364.18,437.64c-.07,0,0-.22.05-.26l1.71-1a1.55,1.55,0,0,1,1.2.08l4.41,2s0,0,0,.06l-.17.39s0,0-.06,0l-4.49-2a.5.5,0,0,0-.5,0l-1.41.79a.44.44,0,0,1-.38,0Z" transform="translate(-10.03 -10.03)" style="fill:#d63b2b"/><path d="M379.38,437.61c-.12,0-1.11.15-1.33.9l-.12.43-.11.37a.83.83,0,0,0,.08.72.91.91,0,0,0,.67.25l1.19-.1h.06a1.64,1.64,0,0,0,1.54-1.1s0-.15.29-.89c.18-.55.08-.73.05-.77a.35.35,0,0,0-.32-.07l-1.87.26Z" transform="translate(-10.03 -10.03)" style="fill:#859393;opacity:0.45"/><path d="M377.79,439.16s.11.44-.7.48c-1,0-1.18-.47-1.18-.47Z" transform="translate(-10.03 -10.03)" style="fill:#d63b2b"/><path d="M373.72,441.62h-.07a5.8,5.8,0,0,1-1.49,0h0a2.09,2.09,0,0,1-1.33-.68,1.44,1.44,0,0,1-.21-1.23,1,1,0,0,0,0-.12,1.78,1.78,0,0,1,.09-.42,1.66,1.66,0,0,1,1.36-1.22h.1l3.18-.18a1.17,1.17,0,0,1,1,.37,1.3,1.3,0,0,1,.09,1.24,2.84,2.84,0,0,1-.48,1A3.86,3.86,0,0,1,373.72,441.62Zm-1.51-3.05a1.05,1.05,0,0,0-.89.79,1.11,1.11,0,0,0-.08.31,1,1,0,0,1,0,.19.86.86,0,0,0,.11.74,1.43,1.43,0,0,0,.94.44,5.24,5.24,0,0,0,1.34,0h0a3.39,3.39,0,0,0,1.86-1,2.6,2.6,0,0,0,.35-.76c.11-.31.11-.55,0-.67a.63.63,0,0,0-.46-.15l-3.19.18Z" transform="translate(-10.03 -10.03)" style="fill:#d63b2b"/><path d="M379.87,440.69l-1.12.09a1.39,1.39,0,0,1-1.09-.44,1.3,1.3,0,0,1-.18-1.15,3.57,3.57,0,0,1,.1-.35l.1-.37a1.91,1.91,0,0,1,1.67-1.21h.14L381,437a.94.94,0,0,1,.88.27,1.3,1.3,0,0,1,.06,1.24c-.2.59-.24.72-.24.73A2,2,0,0,1,379.87,440.69Zm-.45-2.83c-.1,0-1,.13-1.15.78l-.11.38a2.45,2.45,0,0,0-.09.32.77.77,0,0,0,.06.62.87.87,0,0,0,.58.22l1-.09h.06a1.45,1.45,0,0,0,1.34-1s0-.12.24-.77c.16-.48.08-.63.05-.67a.36.36,0,0,0-.28-.06l-1.62.23Z" transform="translate(-10.03 -10.03)" style="fill:#d63b2b"/><path d="M367.19,436.64a2.59,2.59,0,0,1,1.75,1.66l-.52,3s-.24,1.33-.9,1.36c-1,.07-1.28-.83-1.58-1.81,0-.06-.37-1.49-.39-1.58C365.24,438.05,365.62,436.3,367.19,436.64Z" transform="translate(-10.03 -10.03)" style="fill:#e8c5ac"/><path d="M364,452.24s-.84,3.78-2.72,5.25-5.16-3.68-10.89-5.32-7.45.17-7.45.17a10.2,10.2,0,0,1,7,.24c3.6,1.56,9.05,6.31,11.18,5.65s3.18-6,3.18-6Z" transform="translate(-10.03 -10.03)" style="fill:#d62412"/><path d="M364.37,452.28a2.92,2.92,0,0,1-3.1,1.82c-2.42-.21-10.72-4.46-14.38-4.4-3.27.05-7.34.61-8.51.26-.77-.22,2.13.13,4-.24s5.66-1.22,9.58.41c3.67,1.52,9.47,3.88,10.84,3.17A12.91,12.91,0,0,0,364.37,452.28Z" transform="translate(-10.03 -10.03)" style="fill:#d62412"/><path d="M334,464a2.6,2.6,0,0,1-3.7,0l-18.53-18.52a2.63,2.63,0,0,1,0-3.71l12.42-12.42,22.23,22.24Z" transform="translate(-10.03 -10.03)" style="fill:#444"/><path d="M330.9,450.07a3.5,3.5,0,1,1,0-5A3.51,3.51,0,0,1,330.9,450.07Z" transform="translate(-10.03 -10.03)" style="fill:#727272"/><path d="M311.66,442a2.61,2.61,0,0,0,.15,3.52L330.34,464a2.6,2.6,0,0,0,3.52.15Z" transform="translate(-10.03 -10.03)" style="fill:#1e1e1e"/><path d="M320.2,448.66c-.68,1,1.31,2.56,2.17,3.23.66.51-2.27,2.31-1,2.78,0,0,.49.33,2.63-1.24a1.4,1.4,0,0,0,.41-1.59c-.74-2.7-1.32-3.4-2.21-4S320.89,447.68,320.2,448.66Z" transform="translate(-10.03 -10.03)" style="fill:#d8b7a0"/><path d="M323.56,446.44l.76,1.89-1.16,2,.56.72s-4.92.65-4.61,1.38a14.1,14.1,0,0,0,1.13,1.21s.6,1.39-2.67-.22a1.8,1.8,0,0,1-.89-1.42,7,7,0,0,1-.14-2.74,2.74,2.74,0,0,1,1.3-2.47l2-.88C321,445.22,322.86,445.18,323.56,446.44Z" transform="translate(-10.03 -10.03)" style="fill:#e8c5ac"/><path d="M321.73,448.2c-.28-1.2-.2-3.52.7-4,2.83-1.41,12.15-6.41,19.1-6.26,5.61.11,17.94,2.27,17.94,2.27,2.58.73,2.33,9.15-6.33,7.31-10.2-2.17-12.37-1.65-14.11-1.8s-15.18,5.3-15.18,5.3S322.62,452.09,321.73,448.2Z" transform="translate(-10.03 -10.03)" style="fill:#d62412"/><path d="M118.45,124.74s16.12,0,20.87,2.06,12.2,20.46,12.4,28.52S180.45,171,181.07,171s20.66-1,22.52-3.93-2.48-5.37-11-6S166,147.67,166,147.67s.21-25.41-8.47-29.13-23.15-2.69-23.15-2.69Z" transform="translate(-10.03 -10.03)" style="opacity:0.2"/><path d="M184.92,160.85c.57,2.14,4.64,5.42,4.64,5.42s2.7,1.78,13.07-5c8.34-5.41,9.7-9.43,7.53-10.84,0,0-2.29-1.52-4.16-.41-5.9,3.5-9.73,3.73-10.35,3.73a12,12,0,0,1-5.41-1.06l-6.16,4S184.57,159.52,184.92,160.85Z" transform="translate(-10.03 -10.03)" style="fill:#709614"/><path d="M208.22,154.42,205,150.64c-5.33,3-8.76,3.16-9.35,3.16a13.55,13.55,0,0,1-4.81-.79l-.32.09-6.34,4.18c.17.89.49,2.61.74,3.57a4.58,4.58,0,0,0,.68,1.34c2.1.28,7.59.34,12.13-5.41C203.48,149.51,208.22,154.42,208.22,154.42Z" transform="translate(-10.03 -10.03)" style="fill:#8fad12"/><path d="M202.63,161.32c8.34-5.41,9.7-9.43,7.53-10.84,0,0-2.29-1.52-4.16-.41-.63.37-1.22.7-1.8,1,.75.47,4.76,3,2.7,5.28-2.52,2.81-12.72,9.44-18.41,9,.62.56,1.07.92,1.07.92S192.26,168.05,202.63,161.32Z" transform="translate(-10.03 -10.03)" style="fill:#f2f2f2"/><path d="M199.3,156.68a.52.52,0,1,1-.52-.52A.52.52,0,0,1,199.3,156.68Z" transform="translate(-10.03 -10.03)" style="fill:#14546d"/><path d="M201.33,155.17a.52.52,0,1,1-1,0,.52.52,0,0,1,1,0Z" transform="translate(-10.03 -10.03)" style="fill:#14546d"/><path d="M204.05,154a.52.52,0,1,1-.52-.52A.51.51,0,0,1,204.05,154Z" transform="translate(-10.03 -10.03)" style="fill:#14546d"/><path d="M198.77,156.74c-.11.07-.26.1-.32,0-.3-.53-1.12-2.11-.79-3.1a1.16,1.16,0,0,1,.45-.57.22.22,0,0,1,.32.14.39.39,0,0,1-.12.39.54.54,0,0,0-.13.22,4.22,4.22,0,0,0,.68,2.55A.28.28,0,0,1,198.77,156.74Z" transform="translate(-10.03 -10.03)" style="fill:#f2f2f2"/><path d="M200.83,155.28a.28.28,0,0,1-.39-.14,3.33,3.33,0,0,1-.47-2.27,1.2,1.2,0,0,1,.49-.62.24.24,0,0,1,.36.12.44.44,0,0,1-.18.42.76.76,0,0,0-.16.26A3.06,3.06,0,0,0,201,155C201,155.08,200.94,155.21,200.83,155.28Z" transform="translate(-10.03 -10.03)" style="fill:#f2f2f2"/><path d="M203.59,154.11a.28.28,0,0,1-.39-.12,3.2,3.2,0,0,1-.42-2.19,1.16,1.16,0,0,1,.5-.63.24.24,0,0,1,.36.12c.06.15-.06.31-.19.43a.72.72,0,0,0-.16.25,2.84,2.84,0,0,0,.43,1.84C203.78,153.92,203.69,154,203.59,154.11Z" transform="translate(-10.03 -10.03)" style="fill:#f2f2f2"/><path d="M134,88.59c-.67-2.11-4.87-5.21-4.87-5.21s-2.77-1.65-12.84,5.52c-8.1,5.77-9.28,9.84-7,11.16,0,0,2.35,1.41,4.17.22,5.74-3.74,9.56-4.15,10.18-4.18a12.06,12.06,0,0,1,5.45.82l6-4.22S134.36,89.91,134,88.59Z" transform="translate(-10.03 -10.03)" style="fill:#709614"/><path d="M111,96l3.39,3.63c5.19-3.18,8.62-3.54,9.2-3.57a13.45,13.45,0,0,1,4.84.59l.31-.11,6.15-4.45c-.2-.89-.6-2.59-.89-3.54a4.84,4.84,0,0,0-.73-1.31c-2.12-.19-7.6,0-11.89,5.93C115.9,100.73,111,96,111,96Z" transform="translate(-10.03 -10.03)" style="fill:#8fad12"/><path d="M116.24,88.9c-8.1,5.77-9.28,9.84-7,11.16,0,0,2.35,1.41,4.17.22.61-.4,1.19-.75,1.76-1.07-.78-.44-4.89-2.77-2.93-5.16,2.4-2.91,12.3-10,18-9.79-.64-.53-1.1-.88-1.1-.88S126.31,81.73,116.24,88.9Z" transform="translate(-10.03 -10.03)" style="fill:#f2f2f2"/><path d="M119.76,93.38a.52.52,0,0,1,.5-.54.52.52,0,0,1,0,1A.53.53,0,0,1,119.76,93.38Z" transform="translate(-10.03 -10.03)" style="fill:#14546d"/><path d="M117.81,95a.52.52,0,1,1,1,0,.52.52,0,1,1-1,0Z" transform="translate(-10.03 -10.03)" style="fill:#14546d"/><path d="M115.14,96.31a.52.52,0,0,1,.5-.54.51.51,0,0,1,.54.49.52.52,0,0,1-.49.54A.52.52,0,0,1,115.14,96.31Z" transform="translate(-10.03 -10.03)" style="fill:#14546d"/><path d="M120.3,93.31c.1-.08.25-.11.32,0,.32.5,1.21,2,.92,3a1.11,1.11,0,0,1-.42.59.22.22,0,0,1-.33-.12.4.4,0,0,1,.1-.4.61.61,0,0,0,.13-.22,4.29,4.29,0,0,0-.8-2.52A.27.27,0,0,1,120.3,93.31Z" transform="translate(-10.03 -10.03)" style="fill:#f2f2f2"/><path d="M118.3,94.85a.29.29,0,0,1,.4.13,3.35,3.35,0,0,1,.57,2.24,1.19,1.19,0,0,1-.47.65.25.25,0,0,1-.36-.11c-.06-.15,0-.31.16-.43a.51.51,0,0,0,.14-.26,3,3,0,0,0-.55-1.9C118.12,95.06,118.2,94.93,118.3,94.85Z" transform="translate(-10.03 -10.03)" style="fill:#f2f2f2"/><path d="M115.6,96.14a.28.28,0,0,1,.39.11,3.17,3.17,0,0,1,.51,2.16,1.13,1.13,0,0,1-.47.66.24.24,0,0,1-.36-.1c-.07-.16,0-.32.16-.44a.61.61,0,0,0,.16-.27,2.86,2.86,0,0,0-.51-1.81C115.41,96.34,115.49,96.21,115.6,96.14Z" transform="translate(-10.03 -10.03)" style="fill:#f2f2f2"/><path d="M191.88,67.06a8,8,0,0,1,4.78,5.32c1.23,3.86,5.87,12,7.54,13.33,2.2,1.8,16.49,4,16.49,4s3.8,5,.25,9.36c-1,1.17-18.08-2.87-22-5.71s-12.38-17.2-12.38-17.2Z" transform="translate(-10.03 -10.03)" style="fill:#a5b73d"/><path d="M217,94.73c0-2.15,2-4,3-4h.19a3.22,3.22,0,0,1,1.44,2.46c.87,4.45-1.58,5.68-1.58,5.68a1.23,1.23,0,0,1-.25.05C218.64,98.14,217.05,96.64,217,94.73Z" transform="translate(-10.03 -10.03)" style="fill:#50600b"/><path d="M228.17,92.35a5.6,5.6,0,0,1,.11-1.74c.16-.88-.83-1.26-2.27-1.57-1.19-.26-4.27.89-5.91,1.57,0,0-5.48,1.82-2.14,6.6l1.86,0a11.21,11.21,0,0,0,1.63.69,12,12,0,0,0,5.17-.42C228.48,96.83,228.17,92.35,228.17,92.35Z" transform="translate(-10.03 -10.03)" style="fill:#e8c5ac"/><path d="M221.51,92.52a3,3,0,0,0-.1-.32A3,3,0,0,1,221.51,92.52Z" transform="translate(-10.03 -10.03)" style="fill:#f5f5f5"/><path d="M227.14,89.35s-2.44,1.36-2.58,1.87a17.51,17.51,0,0,0,.27,3.18s-.32,2.65.35,2.77,2.16,1.11,2.67-1.27c.32-1.48.56-4.26.56-4.26s.34-1.27,0-1.75S227.14,89.35,227.14,89.35Z" transform="translate(-10.03 -10.03)" style="fill:#f4d3bd"/><path d="M218.94,94.77c.76,1,2.71.7,3.94-.34a.4.4,0,0,1,.62.25c.21.72.37,2,1,2.21,1.06.33,1.24-.27,1.2-.59s-.4-5.07-1.27-5.29a5.86,5.86,0,0,0-5,.78A2.11,2.11,0,0,0,218.94,94.77Z" transform="translate(-10.03 -10.03)" style="fill:#ffe1cc"/><path d="M168.07,105.69c.71.07-24.33,19.69-29.51,16.08C133.64,118.34,125,96.09,125,96.09c-.71-.71-.07-3.35,3-5.27.89-.56,6.34-3.11,7-.42a93.39,93.39,0,0,0,6.93,17.22c.65,1.11.41-.3.85-.5a9.79,9.79,0,0,0,2.1-.86c4.4-2.85,15.7-14,15.7-14Z" transform="translate(-10.03 -10.03)" style="fill:#dd7c2c"/><path d="M168,99.65s-2.9,6.36-1.81,8.19c.75,1.27-.29-.08,1.1,1.64a211.54,211.54,0,0,1,15.84,23.61c4.7,9.39,11.86,20.41,11.86,20.41.3.3,2.05,1,.91,2.65-3,4.33-10.77,4.14-11.14,3.74,0,0-9.23-15.27-12.17-21.74-.6-1.33-11.84-12.73-24.52-25.42-7.18-7.17-6-12.93-3.66-17.8a16.57,16.57,0,0,1,5.77-6.26Z" transform="translate(-10.03 -10.03)" style="fill:#ed872b"/><path d="M175.53,64.41c4.74-3.59,9.5-1.9,11.85-1.63s8.15,7.41,8.15,7.41-.62,5.6-.85,6.11.59,9.2-11.8,17.29a70,70,0,0,0-14.54,12.64c-2.65,3.13-7.62-2-12.68-7.71-1.74-1.94-7.15-9.53-6.11-10.63A203.71,203.71,0,0,1,175.53,64.41Z" transform="translate(-10.03 -10.03)" style="fill:#b9d34c"/><path d="M189.36,74.79c-5.05,3.38-4.19-11.06-2-11.76l6.53-3.1L197,69.78Z" transform="translate(-10.03 -10.03)" style="fill:#d8b7a0"/><path d="M199.17,51.49h0l-7.17-1-1.94,12.92c0,.9-.68,2.85.88,4.35,0,0,2.86,2.47,3.66,3s2.51,1.57,4,1.45c.86-.07,2.36-.16,3.58-4,.05-.19,3.12-10.13,3.12-10.13l1-4.9Z" transform="translate(-10.03 -10.03)" style="fill:#e8c5ac"/><path d="M204.93,46a17.21,17.21,0,0,1,1.85,3.22c1,1.79-.18,4.34-.74,6.7a9.45,9.45,0,0,1-.57,1.45s.18-1,.33-2A1.86,1.86,0,0,0,203.62,53s-5.82,1.73-5.84,1.76,2-3.06,1.7-2.94a5.06,5.06,0,0,0-2.68,2c-1.12,1.45-1.92,5.87-1.69,4.83-.13.57-.4,2.61-.5,2.7-.23.24-.44.21-1-.74a12.76,12.76,0,0,0-1.56-2.22c-1.22-.62-2.07,3.74-2.07,3.74-.17.62-1.76.91-1.86.61-.33-1-.7-2.72-.91-3.71-2.16-10.22,5.49-15.28,14.06-11.95,0,0,1.21.16-.49-2.08a15.87,15.87,0,0,1,4.06,3C205.37,48.6,204.93,46,204.93,46Z" transform="translate(-10.03 -10.03)" style="fill:#4f3611"/><path d="M190.08,63.48a1.91,1.91,0,0,1,1.83,1.38c.41,1.76,1.62,2.52,2.75,3.58s2.44,2.57,3.57,2.18c.62-.21,1.12-1.1,1.63-1.49s.46,1.12.73,1.21c.51.15,1.36-1.71,1.36-1.71s-.77,2.38-1.57,2.87a4.42,4.42,0,0,1-5.22-.26c-2.51-1.75-5-3.37-5.12-4.71A12.53,12.53,0,0,1,190.08,63.48Z" transform="translate(-10.03 -10.03)" style="fill:#4f3611"/><g style="opacity:0.26"><path d="M196.61,60.16a1.23,1.23,0,0,0-1,1,1.66,1.66,0,0,0-.07.36.77.77,0,0,1,0,.22,1,1,0,0,0,.16.84,1.71,1.71,0,0,0,1.12.47,5.93,5.93,0,0,0,1.54-.09h.06a3.92,3.92,0,0,0,2.09-1.3,3.26,3.26,0,0,0,.37-.89.94.94,0,0,0,0-.78.73.73,0,0,0-.55-.15l-3.67.37Z" transform="translate(-10.03 -10.03)" style="fill:#859393"/></g><path d="M187.83,59.18c-.07,0,0-.24.06-.29l1.89-1.06a1.65,1.65,0,0,1,1.31.08L196,60.09a0,0,0,0,1,0,.07l-.18.42s0,.05-.07,0l-5-2.22a.58.58,0,0,0-.55.05l-1.55.87a.46.46,0,0,1-.42,0Z" transform="translate(-10.03 -10.03)" style="fill:#709614"/><path d="M204.58,59.15c-.13,0-1.23.16-1.46,1l-.14.47c0,.15-.08.25-.11.41a.88.88,0,0,0,.08.79,1,1,0,0,0,.74.28L205,62h.08a1.81,1.81,0,0,0,1.69-1.22s0-.16.32-1c.2-.61.09-.8,0-.85s-.23-.09-.35-.08l-2.05.3Z" transform="translate(-10.03 -10.03)" style="fill:#859393;opacity:0.45"/><path d="M202.83,60.85s.12.49-.77.53c-1.16,0-1.3-.51-1.3-.51Z" transform="translate(-10.03 -10.03)" style="fill:#709614"/><path d="M198.34,63.56h-.08a5.34,5.34,0,0,1-1.64,0h0a2.19,2.19,0,0,1-1.46-.75,1.57,1.57,0,0,1-.23-1.34.88.88,0,0,1,0-.14,2.63,2.63,0,0,1,.1-.46,1.84,1.84,0,0,1,1.5-1.35h.11l3.5-.2a1.35,1.35,0,0,1,1.08.41,1.42,1.42,0,0,1,.1,1.37,3.43,3.43,0,0,1-.52,1.07A4.34,4.34,0,0,1,198.34,63.56Zm-1.66-3.36a1.19,1.19,0,0,0-1,.88,2.29,2.29,0,0,0-.08.33,1.49,1.49,0,0,1,0,.22,1,1,0,0,0,.11.81,1.69,1.69,0,0,0,1,.49,6.2,6.2,0,0,0,1.48,0h.06a3.7,3.7,0,0,0,2-1.16,2.17,2.17,0,0,0,.39-.83.86.86,0,0,0,0-.74.65.65,0,0,0-.52-.16l-3.51.19Z" transform="translate(-10.03 -10.03)" style="fill:#709614"/><path d="M205.12,62.53l-1.24.11a1.57,1.57,0,0,1-1.19-.49,1.39,1.39,0,0,1-.21-1.26c0-.15.07-.25.12-.39l.11-.4a2.09,2.09,0,0,1,1.83-1.34h.16l1.69-.25a1.07,1.07,0,0,1,1,.31,1.42,1.42,0,0,1,.06,1.36c-.22.65-.26.79-.26.8A2.22,2.22,0,0,1,205.12,62.53Zm-.5-3.11c-.11,0-1.06.14-1.26.86l-.13.41c0,.13-.06.21-.09.36a.79.79,0,0,0,.07.68.82.82,0,0,0,.64.24l1.13-.09H205a1.62,1.62,0,0,0,1.48-1.06s0-.14.27-.85c.17-.53.08-.69,0-.74s-.19-.08-.3-.07l-1.78.26Z" transform="translate(-10.03 -10.03)" style="fill:#709614"/><path d="M191.15,58.07a2.87,2.87,0,0,1,1.93,1.83l-.58,3.3s-.27,1.47-1,1.52c-1.09.06-1.42-.92-1.75-2,0-.06-.41-1.64-.43-1.73C189,59.63,189.41,57.7,191.15,58.07Z" transform="translate(-10.03 -10.03)" style="fill:#e8c5ac"/><path d="M139.37,71.32c-.75,1.08,1.45,2.82,2.4,3.56.72.56-2.51,2.54-1.06,3.06,0,0,.54.37,2.89-1.37a1.51,1.51,0,0,0,.46-1.74c-.83-3-1.46-3.76-2.45-4.45S140.13,70.24,139.37,71.32Z" transform="translate(-10.03 -10.03)" style="fill:#d8b7a0"/><path d="M143.07,68.87l.84,2.09-1.28,2.17.62.79s-5.42.72-5.08,1.52a14.41,14.41,0,0,0,1.24,1.34s.67,1.52-2.94-.24a2,2,0,0,1-1-1.57,7.88,7.88,0,0,1-.15-3,3,3,0,0,1,1.43-2.72l2.23-1C140.28,67.53,142.31,67.48,143.07,68.87Z" transform="translate(-10.03 -10.03)" style="fill:#e8c5ac"/><path d="M141.05,70.82c-.3-1.32-.22-3.88.78-4.38,3.11-1.56,13.38-7.07,21-6.9,6.18.12,19.76,2.5,19.76,2.5,2.84.81,2.57,10.08-7,8.05-11.24-2.39-13.63-1.81-15.55-2S143.39,74,143.39,74,142,75.1,141.05,70.82Z" transform="translate(-10.03 -10.03)" style="fill:#d6e86b"/><g style="clip-path:url(#clip-path-16)"><path d="M393.68,329.47s-2.23,10,4,12.91a19.57,19.57,0,0,0,11.8,1.56l49.39,13.33s3.3-4.29,8-10.18c2.91-3.66,25,9.77,30.78,8.21s19.6-5.57,16.48-16-22.66,1-38.92,1.25-45.66-4.69-45.66-4.69L417.26,343S398.8,318.12,393.68,329.47Z" transform="translate(-10.03 -10.03)" style="opacity:0.2"/><path d="M439,267.8s-5.12,2.78-6.56,3.84-1.78,2.89-1.39,5.29,2.55,1.49,3.5.27a6,6,0,0,1,3.62-2.44,22.9,22.9,0,0,0,4.56-1.78Z" transform="translate(-10.03 -10.03)" style="fill:#e8c5ac"/><path d="M438,271.38c-.33-1.42-.24-4.18.84-4.72,3.35-1.67,14.41-7.61,22.67-7.43,6.66.13,21.29,2.69,21.29,2.69,3.06.88,2.77,10.87-7.51,8.68-12.11-2.58-14.68-2-16.75-2.14s-18,6.3-18,6.3S439,276,438,271.38Z" transform="translate(-10.03 -10.03)" style="fill:#d8721d"/><path d="M405.18,325l-.1,3.56s.35,6.93.17,8.45a2.88,2.88,0,0,1-1.3,1.86,3.48,3.48,0,0,1-1.66.55,5.34,5.34,0,0,1-2.9-2c-1.23-1.87-2.21-6.5-2.21-6.5,0-.66-.85-10.48-.85-10.48a16.08,16.08,0,0,1,1.51-1.11l4-2.3Z" transform="translate(-10.03 -10.03)" style="fill:#3156a8"/><path d="M400.55,327.65a.2.2,0,0,1-.17-.23c0-.09.08-.19.16-.16a9.85,9.85,0,0,1,3.27,1.32,3.93,3.93,0,0,1,1.44,1.93.19.19,0,0,1-.13.26.23.23,0,0,1-.25-.15,3.54,3.54,0,0,0-1.29-1.73A9.55,9.55,0,0,0,400.55,327.65Z" transform="translate(-10.03 -10.03)" style="fill:#d5dfef"/><path d="M400.67,328.86a.19.19,0,0,1-.16-.23c0-.09.06-.18.16-.16a10.16,10.16,0,0,1,3.27,1.32,4,4,0,0,1,1.43,1.93c0,.12,0,.24-.13.26a.2.2,0,0,1-.24-.15,3.61,3.61,0,0,0-1.3-1.72A9.38,9.38,0,0,0,400.67,328.86Z" transform="translate(-10.03 -10.03)" style="fill:#d5dfef"/><path d="M400.57,330.11a.2.2,0,0,1-.17-.23c0-.1.07-.18.16-.18a10.22,10.22,0,0,1,3.27,1.34,4,4,0,0,1,1.44,1.93.19.19,0,0,1-.13.26.24.24,0,0,1-.25-.15,3.5,3.5,0,0,0-1.29-1.73A9.49,9.49,0,0,0,400.57,330.11Z" transform="translate(-10.03 -10.03)" style="fill:#d5dfef"/><path d="M404,338.88c-.86.3-2.51-.92-3.25-1.8-2.53-3.07-3.7-15.1-3.73-15.68-.08-1.33.24-1.67.24-1.67a10.33,10.33,0,0,0-1.06.78s-1.1.72-1.11,1.52c0,.64.9,5.22,1.11,6.41,0,0,1.26,6.83,3.29,9.45a3.94,3.94,0,0,0,2.86,1.88A4.8,4.8,0,0,0,404,338.88Z" transform="translate(-10.03 -10.03)" style="fill:#585e60"/><path d="M495,341l3.55.25s6.94-.08,8.45.16a3,3,0,0,1,1.82,1.37,3.6,3.6,0,0,1,.48,1.69,5.33,5.33,0,0,1-2.11,2.81c-1.92,1.16-6.58,1.95-6.58,1.95-.66-.06-10.51.43-10.51.43a17.09,17.09,0,0,1-1.05-1.55L486.88,344Z" transform="translate(-10.03 -10.03)" style="fill:#3156a8"/><path d="M497.4,345.69a.2.2,0,0,1-.24.16c-.09,0-.18-.08-.16-.17a9.85,9.85,0,0,1,1.46-3.21,3.89,3.89,0,0,1,2-1.36.2.2,0,0,1,.26.14.23.23,0,0,1-.17.24,3.58,3.58,0,0,0-1.77,1.22A9.47,9.47,0,0,0,497.4,345.69Z" transform="translate(-10.03 -10.03)" style="fill:#d5dfef"/><path d="M498.61,345.62a.19.19,0,0,1-.24.15c-.09,0-.17-.07-.15-.16a10.25,10.25,0,0,1,1.45-3.22,3.83,3.83,0,0,1,2-1.35.19.19,0,0,1,.25.14.21.21,0,0,1-.16.23,3.53,3.53,0,0,0-1.77,1.23A9.43,9.43,0,0,0,498.61,345.62Z" transform="translate(-10.03 -10.03)" style="fill:#d5dfef"/><path d="M499.85,345.77a.21.21,0,0,1-.24.16c-.08,0-.17-.08-.16-.17a10.07,10.07,0,0,1,1.46-3.21,3.91,3.91,0,0,1,2-1.36.18.18,0,0,1,.25.14.22.22,0,0,1-.16.24,3.53,3.53,0,0,0-1.78,1.22A9.81,9.81,0,0,0,499.85,345.77Z" transform="translate(-10.03 -10.03)" style="fill:#d5dfef"/><path d="M508.76,342.67c.26.87-1,2.47-1.94,3.17-3.16,2.41-15.23,3.1-15.81,3.11-1.33,0-1.66-.31-1.66-.31a12.17,12.17,0,0,0,.73,1.09s.68,1.13,1.48,1.17c.64,0,5.26-.7,6.46-.85,0,0,6.86-1,9.56-2.91a4,4,0,0,0,2-2.78A5.15,5.15,0,0,0,508.76,342.67Z" transform="translate(-10.03 -10.03)" style="fill:#3d4244"/><path d="M460.73,293.8s26.86,14.1,28.76,20.19S500,341,500,341c.44,1.49-1.12,2.5-3.33,3.49-5.36,2.39-9.23.63-9.23.63a1.88,1.88,0,0,1-1-1.28s-5.82-17.66-8.56-25.15c-.56-1.55-22.36-5.08-27.88-11.3-6.26-7-3.17-16.71-3.17-16.71Z" transform="translate(-10.03 -10.03)" style="fill:#51c6f4"/><path d="M460.37,304.73c-5,2.18-21.7,19.28-31.67,23.32-4.48,1.82-23,.51-23,.51-1.89,1-3.44-2-4.1-2.63s-3.7-8-1.15-8.52c16.19-3.2,21.62-.43,24.6-2,8-4.36,17-21.19,17-21.19Z" transform="translate(-10.03 -10.03)" style="fill:#6ddafc"/><path d="M464.43,257.67s6.41-1.6,8.68-1.17,7.85,5.21,7.85,5.21-1.08,8.82-1.34,9.3-9.38,11.91-9.38,11.91l-4-11.13Z" transform="translate(-10.03 -10.03)" style="fill:#6ddafc"/><path d="M482.55,262.87a5.87,5.87,0,0,0-3.25-3.95c.89,2.09,1.63,5.82-1.24,11.22-1.49,2.81-4.85,4.88-4.84,4.67A26.91,26.91,0,0,1,471,263.62c0-.45.39-7.22.39-7.22s-10.89-.31-14.5,2.54L439,296.17c-.4.89-.72,1.08-.11,2,0,0,3.61,2.7,8.66,5.71,7.43,4.41,12.54,1.22,12.54,1.22.16,0,7.67-6.75,11.53-5.23,0,0-4.81-3.46-2.9-6.24C482.36,273.84,483.6,267.61,482.55,262.87Z" transform="translate(-10.03 -10.03)" style="fill:#ed872b"/><path d="M478.31,263.92c-4.09,2.38-6.65-3.58-5.9-7.5l4.63-7.49,6,6.24Z" transform="translate(-10.03 -10.03)" style="fill:#e8c5ac"/><path d="M488.44,243.33h0l-6.29-3.3L476,251.29c-.33.82-.73,1.5-1,2.23a3.6,3.6,0,0,0,.25,2.77s.84,1.34,1.69,2.92c.5.94,2.44,3,3.93,3,.84,0,1.78.7,4.16-1.28a33.88,33.88,0,0,0,2.26-2.8l4.48-6.68,2.59-4.18Z" transform="translate(-10.03 -10.03)" style="fill:#ffe1cc"/><path d="M494.93,245.11c.25,1.93-2,4.44-2,4.42.67-1.36-.27-2.95-1.07-3-1.53-.14-6.44-.55-7-.52-1.68.07-2.86,1.75-3.32,2.77l-.53,1c-.27.51-.5,1.14-1,.82s-.35-.52-.21-1.15c0,0,.22-2.16-1.3-2.71-1.3-.46-1.9,2.83-1.9,3l-3.42,5.33c-.12-.11-.84,0-.75-1.58a49.68,49.68,0,0,1,1.33-7.85c3.26-11.86,12.09-12.73,18.57-6.08A9.84,9.84,0,0,1,494.93,245.11Z" transform="translate(-10.03 -10.03)" style="fill:#4f3611"/><path d="M478.84,246.71a2,2,0,0,1,1,2.52l-1.73,3.26A1.1,1.1,0,0,1,477,253c-1-.3-1-1.33-.94-2.43,0-.07.17-1.66.18-1.75C476.33,247.43,477.3,245.9,478.84,246.71Z" transform="translate(-10.03 -10.03)" style="fill:#ffe1cc"/><path d="M463.77,259.14s1.93,2.35,2.61,7.28c.52,3.78,1.35,12.47,2.38,14.21,1.37,2.3,13.3,8.82,13.3,8.82s1.75,5.63-2.79,8.36c-1.22.73-15.06-8.35-17.64-12.12s-5.42-19.19-5.42-19.19-1.66-6.36.93-7.91A5.17,5.17,0,0,1,463.77,259.14Z" transform="translate(-10.03 -10.03)" style="fill:#f7964d"/><path d="M477.22,292.73c.68-1.9,3.06-2.86,3.94-2.61l.17.05a3,3,0,0,1,.48,2.64c-.66,4.22-3.22,4.51-3.22,4.51a.93.93,0,0,1-.24,0C477.53,296.26,476.61,294.42,477.22,292.73Z" transform="translate(-10.03 -10.03)" style="fill:#d1783b"/><path d="M488.75,294.62a5.53,5.53,0,0,1,.65-1.51c.43-.73-.33-1.38-1.5-2.12-1-.61-5-1-6.66-.92,0,0-5.42-.15-4,5.15l1.65.57a10.6,10.6,0,0,0,1.21,1.14,12.54,12.54,0,0,0,4.71,1.29C487.39,298.37,488.75,294.62,488.75,294.62Z" transform="translate(-10.03 -10.03)" style="fill:#e8c5ac"/><path d="M481.88,292.22c0-.11,0-.22,0-.32C481.89,292,481.88,292.11,481.88,292.22Z" transform="translate(-10.03 -10.03)" style="fill:#f5f5f5"/><path d="M494.82,244.67a13.44,13.44,0,0,0-5.08-.23c-2.48.45-4.8-.7-6,.43-2.82,2.65-2.42,4.06-2.42,4.06a1.59,1.59,0,0,0,2.29.32c2.17-1.79,2.73-1.63,3-1.36s-.8,1.18-1.44,1.34a8.79,8.79,0,0,0,5,1.15,5.73,5.73,0,0,0,2.84-.8A4.14,4.14,0,0,0,494.82,244.67Z" transform="translate(-10.03 -10.03)" style="fill:#4f3611"/></g><path d="M518.25,479.44c-.77-1-4.32-8.56-4.32-8.56-.83-2-2.32-4.22-3.93-3.76,0,0-4.76.26-3.4,8.1.45,2.56,3.45,12.4,3.45,12.4,1.07,3.25,5.29,3.23,6,2.79C516,490.41,519.51,481,518.25,479.44Z" transform="translate(-10.03 -10.03)" style="fill:#60300d"/><path d="M583.9,522.58s1.53-.51,6.36,2.2a3.59,3.59,0,0,1,1.92,2.66,6.32,6.32,0,0,1-.71,2.75c-.14.27-2,10-5.38,13.43s-5.51,2.58-5.51,2.58-2.71-1.39-1.86-3.19,2.13-6,2.13-6a53.83,53.83,0,0,0,.79-6.86A15.67,15.67,0,0,1,583.9,522.58Z" transform="translate(-10.03 -10.03)" style="fill:#60300d"/><path d="M591.47,530.19a6.32,6.32,0,0,0,.71-2.75,3.59,3.59,0,0,0-1.92-2.66l-.47-.26c-2.76,0-3.48,5-3.85,7.26-.46,2.79-3.82,9-5.34,10.62a3.78,3.78,0,0,0-.86,3.24,6,6,0,0,0,.84.56s2.1.87,5.51-2.58S591.33,530.46,591.47,530.19Z" transform="translate(-10.03 -10.03)"/><path d="M512.64,490.23s0,.1-1.07-1.66c-1.25-2.09-4.38-13.87-4.23-17.18a4.65,4.65,0,0,1,2.66-4.27s-4.9.19-3.4,8.1c0,0,2.53,14,5,14.57Z" transform="translate(-10.03 -10.03)"/><path d="M511.19,463.69s-5.79-.91-7,4.57-1.53,13.72,4.26,19.52,35.68,25,44.52,36.28,24.39,25.91,29,25.91,12.81-2.13,6.4-9.15-42.68-29.87-52.13-43S516.37,464.61,511.19,463.69Z" transform="translate(-10.03 -10.03)" style="opacity:0.30000000000000004"/><path d="M569.4,414.75l-5.54-1.27-2.7,14.45c-.86,4.13.68,5.21,1.91,5.55,2.55.71,5.77,0,7.43-.42,3.21-.88,4.44-5.64,4.56-6l3.45-9.21Z" transform="translate(-10.03 -10.03)" style="fill:#ffe1cc"/><path d="M572.88,437.41l1.6-9.08-7.79-.92L564.63,436c-.43,1.18-1.81,4.19-2.8,5Z" transform="translate(-10.03 -10.03)" style="fill:#ffe1cc"/><path d="M579.28,414.67a2.47,2.47,0,0,0-.43-1.11,2,2,0,0,0-.84-.62,3.15,3.15,0,0,1,.52.54,1,1,0,0,1,.22.65,11.68,11.68,0,0,0-5.79-2.7,15.24,15.24,0,0,1-3.4-.79c-.08,0,.46.38.24.76-.11.19-.77-.08-1.19-.23s-1.86-.35-2.39.13c0,0,.65.39.1.59a10.45,10.45,0,0,0-2.65,1.31,8.93,8.93,0,0,0-1.6,1.8c0,.44,1.24.39,1.52,1a6.76,6.76,0,0,1,.61,2.62,21.44,21.44,0,0,1-.33,4.1l-.22,1.54c-.16.54,1.17-.77,1.69-1.11s1.12.19,2.52,2.7c.6,1.08,3.2,5.42,3.2,5.42.8,1,1.56,1.66,2.92.65a40.19,40.19,0,0,0,4.71-4.52C581.59,423.29,582.34,418.1,579.28,414.67Z" transform="translate(-10.03 -10.03)" style="fill:#4f3611"/><path d="M565.45,423a2.12,2.12,0,0,1,1,2,2.44,2.44,0,0,1-.86,1.85,2.18,2.18,0,0,1-1.22.42s.73-2.21.84-2.63A14.41,14.41,0,0,0,565.45,423Z" transform="translate(-10.03 -10.03)" style="fill:#efcfbd"/><path d="M565.07,422.33s-.64-.24-.48.83a4.86,4.86,0,0,1-.06,2.2c-.14.49-.71,1.89-.71,1.89s.21.72.89,0a5.91,5.91,0,0,0,1-2.14C565.84,424.67,565.84,422.34,565.07,422.33Z" transform="translate(-10.03 -10.03)" style="fill:#ffe8d9"/><path d="M592.89,469.33l4.85,3.58,1.18,2.22,1.08,2.64,2.69.11s.59.55-1,2.95c-1,1.47-3.49.63-3.49.63a7.9,7.9,0,0,1-3.76-2c-.56-.76-1.87-3-1.87-3C592.2,475.16,591.47,469.73,592.89,469.33Z" transform="translate(-10.03 -10.03)" style="fill:#f2d9cc"/><path d="M596,474.44c2-1.43,1.4-3.51,1.08-5.14-1.26-6.35-2.85-14.35-5.58-17.05-3-2.95-13.25-12.06-13.25-12.06s-7.41-5.84-11.55-1c-2.51,2.93,2.91,5.23,5.36,7.55,1.92,1.83,9.37,7.36,12.3,10,3.42,3.13,6.73,19.75,6.73,19.75S591.72,477.52,596,474.44Z" transform="translate(-10.03 -10.03)" style="fill:#a5b73d"/><path d="M569.17,477.27s-25.52-8.24-28.26-8.4c-6-.34-23.67,8.74-23.67,8.74s-3.35,1.39-3.61,6.81c-.15,3,1,6.28,1.83,6.1,14.17-3,22.23-10.37,24.39-9.91,3.64.78,11.59,7.9,17.82,9.44,5,1.23,9.59,2.42,9.59,2.42Z" transform="translate(-10.03 -10.03)" style="fill:#093c4c"/><path d="M557.85,486.31c-.37,9.46,1.77,24.28,3.4,27.41,3.51,6.74,21,22,20.06,21.31-.15-.12,2.27,2,5.88-2.77,1.12-1.48,2.11-2.82,3.48-2.57a38.41,38.41,0,0,0-4.18-4.57c-4.51-4.25-11.13-10.8-13.45-15.38-2.7-5.35,1.88-29.09,1.88-29.09Z" transform="translate(-10.03 -10.03)" style="fill:#14546d"/><path d="M558.56,444.19c-1.87,1.71-4.39,7.21-4.43,13.62-.1,12.68,1.45,27.74,1.45,27.74-.06,1.11,1.28,3.16,4.64,4.17a12.33,12.33,0,0,0,7.78.46c5.77-1.29,9.93-5.69,10.07-8,0,0-.2-7.56,2.17-28.66C582,438.3,573.76,436,573.76,436L566,438.24Z" transform="translate(-10.03 -10.03)" style="fill:#b9d34c"/><path d="M572.41,433.74c1.08-.19,1.34,0,1.51.68s.16.69.37,1.33-.06.55-.06.55a36.46,36.46,0,0,0-9.61,3.65c-3,1.77-3.18,1.94-3.18,1.94l.79-2.14c.62-1.83,2.88-3.54,6.17-4.76A31.5,31.5,0,0,1,572.41,433.74Z" transform="translate(-10.03 -10.03)" style="fill:#f5f5f5"/><path d="M529.58,439.94s-2.76-5.72-2.55-8.07,2.21-5.33,3.93-6,1.87.18,1.32,2.63,1.14,3.6,1.77,6.15-3.06,5-3.06,5Z" transform="translate(-10.03 -10.03)" style="fill:#ffe8d9"/><path d="M529.4,437.23a7.16,7.16,0,0,0-.08,4.75s7.83,14.53,14.39,14c4.12-.32,13.75-3,13.75-3s9.75-2.81,9.34-7.33c-.34-3.76-4.52-3.85-7.73-3.06-4.31,1.05-9.41,3.92-13.71,4.58-4.92.75-10.6-12.79-10.6-12.79S530.65,433.15,529.4,437.23Z" transform="translate(-10.03 -10.03)" style="fill:#d6e86b"/><path d="M92.59,308.2s-11.89,3.05-4,18.29c4.13,8,16.76,6.1,25.3,10.06,0,0,5.79,2.44,14,15.25,6.44,10,25.62,15.24,27.14,11.89s-7.93-12.2-22.26-24.39C121.8,329.91,99.6,304.24,92.59,308.2Z" transform="translate(-10.03 -10.03)" style="opacity:0.30000000000000004"/><path d="M127.27,238.1l-5.65.68L124,253.3c.59,4.17,2.41,4.66,3.68,4.56,2.64-.19,5.44-1.92,6.85-2.91,2.71-1.92,2.25-6.82,2.24-7.22l.12-9.83Z" transform="translate(-10.03 -10.03)" style="fill:#ffe1cc"/><path d="M138.23,258.23l-1.58-9.09L129,250.92l1,8.82c0,1.26-.28,4.56-.95,5.62Z" transform="translate(-10.03 -10.03)" style="fill:#ffe1cc"/><path d="M136.53,234.67a2.45,2.45,0,0,0-.78-.9,2,2,0,0,0-1-.3,4,4,0,0,1,.68.34.94.94,0,0,1,.42.53,11.65,11.65,0,0,0-6.36-.57,15.48,15.48,0,0,1-3.47.41c-.08,0,.57.2.49.64,0,.21-.75.18-1.2.18s-1.86.3-2.2.93c0,0,.75.15.3.52a10.24,10.24,0,0,0-2.05,2.13,8.89,8.89,0,0,0-.9,2.24c.2.4,1.31,0,1.77.41a7.12,7.12,0,0,1,1.47,2.27,22.19,22.19,0,0,1,1.08,4l.31,1.52c0,.57.83-1.11,1.21-1.61s1.12-.2,3.29,1.68c.93.82,4.85,4,4.85,4,1.08.66,2,1,3-.38a40.3,40.3,0,0,0,2.89-5.85C141.62,242,140.57,236.85,136.53,234.67Z" transform="translate(-10.03 -10.03)" style="fill:#84460f"/><path d="M126.34,247.18a2.12,2.12,0,0,1,1.65,1.5,2.47,2.47,0,0,1-.18,2,2.21,2.21,0,0,1-1,.81s-.07-2.33-.11-2.76A15.53,15.53,0,0,0,126.34,247.18Z" transform="translate(-10.03 -10.03)" style="fill:#efcfbd"/><path d="M125.76,246.7s-.68,0-.17,1a4.84,4.84,0,0,1,.7,2.09c0,.5,0,2,0,2s.45.61.83-.33a5.92,5.92,0,0,0,.21-2.35C127.28,248.64,126.49,246.45,125.76,246.7Z" transform="translate(-10.03 -10.03)" style="fill:#ffe8d9"/><path d="M100.69,316.43s-1,2.57-2,1.23a37.61,37.61,0,0,1-2.14-3.89c-.7-1.68-2-3.54-3.3-3.16,0,0-4,.22-2.86,6.81.37,2.16,2.89,10.43,2.89,10.43.9,2.74,4.45,2.72,5,2.34l5.9-3.84Z" transform="translate(-10.03 -10.03)" style="fill:#231f20"/><path d="M165.06,288.16l5.3,3.33,1.4,2.2,1.32,2.66,2.8-.1s.65.53-.78,3.14c-.87,1.59-3.57.92-3.57.92a8.28,8.28,0,0,1-4.05-1.83c-.64-.75-2.17-2.92-2.17-2.92C164.8,294.25,163.63,288.68,165.06,288.16Z" transform="translate(-10.03 -10.03)" style="fill:#f2d9cc"/><path d="M168.63,293.21c1.93-1.63,1.19-3.75.73-5.4-1.8-6.48-4.06-14.66-7.1-17.24-3.33-2.83-14.66-11.46-14.66-11.46s-8.13-5.49-12-.14c-2.36,3.23,3.42,5.19,6.14,7.41,2.13,1.74,10.28,6.9,13.52,9.45,3.79,3,8.5,19.94,8.5,19.94S164.49,296.74,168.63,293.21Z" transform="translate(-10.03 -10.03)" style="fill:#60cfe8"/><path d="M145.06,291.94s-24.68,8.17-27.11,9.43c-5.31,2.75-21.72,16.76-21.72,16.76s-3.09,2.32-.55,7.11c1.42,2.68,5.18,3.76,5.89,3.31,15.94-10.06,18.34-15.08,20.44-15.79,3.53-1.19,13.55-2.09,19.69-4,4.92-1.49,9.48-2.81,9.48-2.81Z" transform="translate(-10.03 -10.03)" style="fill:#093c4c"/><path d="M186.35,329.13a10.23,10.23,0,0,1,6.27,2.06,3.6,3.6,0,0,1,1.61,2.24,5.25,5.25,0,0,1-.59,2.31c-.12.23-1.73,5.75-1.87,6.12a18.56,18.56,0,0,1-2.66,4.67,6.72,6.72,0,0,1-4.63,2.68,2.32,2.32,0,0,1-.82-2.67,21.83,21.83,0,0,0,1.05-5.08s.52-4.09.66-5.76S186.35,329.13,186.35,329.13Z" transform="translate(-10.03 -10.03)" style="fill:#231f20"/><path d="M141.19,310.3c4.64,8.25,14.21,19.76,17.24,21.57,6.51,3.91,25.63,7.15,26.26,7.35.19.06,3,.51,3.55-5.44.19-1.85.33-3.51,1.63-4a7.83,7.83,0,0,0-4.09-.84c-6.19.13-15.05-3.85-19.39-6.61-9.52-6.08-13.61-25.78-13.61-25.78Z" transform="translate(-10.03 -10.03)" style="fill:#14546d"/><path d="M127.06,269.47c-1.17,2.25-1.67,8.27.46,14.32,4.21,12,10.79,25.59,10.79,25.59.31,1.07,2.27,2.54,5.77,2.35a12.36,12.36,0,0,0,7.48-2.21c5-3.17,7.41-8.72,6.74-11,0,0-2.75-7-7.69-27.69-3.55-14.87-12-14.23-12-14.23L132,261.35Z" transform="translate(-10.03 -10.03)" style="fill:#6ddafc"/><path d="M136.54,254.94c1-.55,1.27-.45,1.65.12s.39.6.8,1.13.13.54.13.54a36.63,36.63,0,0,0-7.8,6.7c-2.18,2.66-2.33,2.9-2.33,2.9v-2.28c0-1.94,1.51-4.31,4.19-6.57A32.15,32.15,0,0,1,136.54,254.94Z" transform="translate(-10.03 -10.03)" style="fill:#f5f5f5"/><path d="M101.25,283.22s-5.79-2.6-7.14-4.54-1.74-5.5-.87-7.14,1.54-1.06,2.7,1.16,3.18,2,5.31,3.57.87,5.79.87,5.79Z" transform="translate(-10.03 -10.03)" style="fill:#ffe8d9"/><path d="M98.84,281a7.13,7.13,0,0,0,2.31,4.15s14.06,8.65,19.5,4.92c3.4-2.33,10.37-9.5,10.37-9.5s7-7.33,4.4-11c-2.18-3.09-5.84-1.07-8.22,1.23-3.2,3.07-6.17,8.11-9.56,10.84-3.88,3.12-15.59-5.74-15.59-5.74S97.87,276.85,98.84,281Z" transform="translate(-10.03 -10.03)" style="fill:#80e7ff"/></svg>